<?xml version="1.0" encoding="UTF-8"?><svg id="_레이어_1" xmlns="http://www.w3.org/2000/svg" xmlns:xlink="http://www.w3.org/1999/xlink" viewBox="0 0 108 40"><defs><style>.cls-1{fill:url(#_무제_그라디언트_4);}.cls-2{fill:#fff;}.cls-3{opacity:.5;}.cls-4{clip-path:url(#clippath-2);}.cls-5,.cls-6,.cls-7{isolation:isolate;}.cls-6{fill:url(#_무제_그라디언트_6);}.cls-6,.cls-7{opacity:.1;}.cls-8{fill:#31313f;}.cls-9{clip-path:url(#clippath-1);}.cls-10{clip-path:url(#clippath);}.cls-11{fill:none;}.cls-12{fill:#4c60f8;}.cls-7{fill:url(#_무제_그라디언트_6-2);}</style><linearGradient id="_무제_그라디언트_4" x1="-227.75" y1="301.49" x2="-227.5" y2="301.24" gradientTransform="translate(36383.67 48097.62) scale(159.75 -159.53)" gradientUnits="userSpaceOnUse"><stop offset="0" stop-color="#aec4ff"/><stop offset="1" stop-color="#8665fc"/></linearGradient><clipPath id="clippath"><path class="cls-11" d="M4.98,0h29.81c2.75,0,4.98,2.25,4.98,5.01v29.97c0,2.77-2.23,5.01-4.98,5.01H4.98c-2.75,0-4.98-2.25-4.98-5.01V5.01C0,2.25,2.23,0,4.98,0Z"/></clipPath><linearGradient id="_무제_그라디언트_6" x1="-227.59" y1="301.87" x2="-227.59" y2="301.62" gradientTransform="translate(40296.85 53439.49) scale(177 -177)" gradientUnits="userSpaceOnUse"><stop offset="0" stop-color="#fff"/><stop offset="1" stop-color="#fff" stop-opacity="0"/></linearGradient><linearGradient id="_무제_그라디언트_6-2" x1="-228.14" y1="301.62" x2="-228.14" y2="301.37" gradientTransform="translate(40425.02 53379.49) scale(177 -177)" xlink:href="#_무제_그라디언트_6"/><clipPath id="clippath-1"><polygon class="cls-11" points="19.77 4.9 35.26 20.5 19.77 36.1 4.28 20.5 19.77 4.9"/></clipPath><clipPath id="clippath-2"><polygon class="cls-11" points="25.76 11.04 29.2 14.5 13.82 30 10.38 26.54 25.76 11.04"/></clipPath></defs><g class="cls-5"><path class="cls-8" d="M44.72,24.78v-5.32h11.95v-1.97c-3.26,.25-6.46,.32-10,.32V5.45h12.77v5.11h-6.53v2.11c2.38,0,4.61-.11,6.74-.29v2.75h1.03V5.45h13.44v5.11h-7.24v1.97h7.45v5.11h-10.25v1.82h11.99v5.32h-31.36Zm22.06,11.86v-5.22h-20.22v-5.29h27.46v10.5h-7.24Z"/><path class="cls-8" d="M96.01,25.85v10.58h-7.41v-10.58h-11.95v-6.11h20.79c.53-2.68,.92-5.54,.92-7.97h-19.69V5.66h27.28c.11,4.79-.5,10.11-1.35,14.08h3.41v6.11h-11.99Z"/></g><g><g id="_1"><rect id="Shadows-3" class="cls-12" x="4.82" y="30.19" width="30.13" height="9.16"/><path id="Panel-3" class="cls-1" d="M4.98,0h29.81c2.75,0,4.98,2.25,4.98,5.01v29.97c0,2.77-2.23,5.01-4.98,5.01H4.98c-2.75,0-4.98-2.25-4.98-5.01V5.01C0,2.25,2.23,0,4.98,0Z"/><g class="cls-10"><g id="_1-2"><ellipse id="Oval" class="cls-6" cx="12.92" cy="30.19" rx="22.03" ry="22.19"/><ellipse id="Oval_Copy" class="cls-7" cx="44.82" cy="15.14" rx="22.03" ry="22.19"/></g></g></g><g id="_그룹_18804"><g class="cls-9"><g id="_그룹_18753"><path id="_패스_8779" class="cls-2" d="M27.46,24.78L15.52,12.75c-.96-.95-2.5-.93-3.44,.04-.93,.95-.93,2.48,0,3.43l11.94,12.03c.94,.97,2.48,.98,3.44,.04,.96-.95,.98-2.5,.03-3.47-.01-.01-.02-.02-.03-.04"/><g id="_그룹_18752" class="cls-3"><g id="_그룹_18751"><g class="cls-4"><g id="_그룹_18750"><path id="_패스_8780" class="cls-2" d="M24.04,12.77l-11.94,12.03c-.94,.97-.92,2.52,.03,3.47,.95,.93,2.46,.93,3.41,0l11.94-12.03c.96-.95,.98-2.5,.03-3.47-.94-.97-2.48-.98-3.44-.04-.01,.01-.02,.02-.03,.04"/></g></g></g></g><path id="_패스_8781" class="cls-2" d="M27.48,16.07c-.91,.91-2.37,.91-3.28,0s-.91-2.39,0-3.3,2.37-.91,3.28,0c.91,.91,.91,2.39,0,3.3"/><path id="_패스_8782" class="cls-2" d="M15.37,28.27c-.91,.91-2.37,.91-3.28,0s-.91-2.39,0-3.3,2.37-.91,3.28,0h0c.91,.91,.91,2.39,0,3.3"/></g></g></g></g></svg>