<?xml version="1.0" encoding="UTF-8"?>
<svg xmlns="http://www.w3.org/2000/svg" viewBox="0 0 1190.41 747.22">
  <defs>
    <style>
      .cls-1 {
        letter-spacing: -.04em;
      }

      .cls-2, .cls-3 {
        letter-spacing: -.01em;
      }

      .cls-4 {
        letter-spacing: -.03em;
      }

      .cls-5 {
        fill: #fff;
      }

      .cls-6 {
        letter-spacing: -.05em;
      }

      .cls-7 {
        letter-spacing: -.04em;
      }

      .cls-8 {
        letter-spacing: -.04em;
      }

      .cls-9 {
        letter-spacing: -.03em;
      }

      .cls-3, .cls-10 {
        fill: #004c3f;
      }

      .cls-3, .cls-11 {
        font-family: SpoqaHanSansNeo-Regular, 'Spoqa Han Sans Neo';
        font-size: 14px;
      }

      .cls-12 {
        letter-spacing: -.04em;
      }

      .cls-13 {
        fill: #eeece1;
      }

      .cls-14 {
        fill: #ffe4a1;
      }

      .cls-15 {
        fill: none;
        stroke: #004c3f;
        stroke-miterlimit: 10;
        stroke-width: .5px;
      }

      .cls-11 {
        fill: #58a596;
      }

      .cls-16 {
        letter-spacing: -.01em;
      }
    </style>
  </defs>
  <g id="_레이어_1" data-name="레이어 1">
    <rect class="cls-13" x="-4.79" y=".88" width="1200" height="745"/>
    <text class="cls-3" transform="translate(235.38 206.4)"><tspan x="0" y="0" xml:space="preserve">앞으로 힘차게 걸어나가는  R 형태의 심볼을 상하 반전하여 연속적인 체인의 형태로 만들었습니다. 캠핑 중에 만난 낯선이의 친절에 </tspan><tspan x="0" y="27.83" xml:space="preserve">마음이 따듯해진 경험이 한번쯤 있지 않으신가요? 램블의 패턴은 이런 상호간의 따듯한 연결을 상징합니다. 한걸음 한걸음  </tspan><tspan x="0" y="55.66">이 연결된 체인의 형태는 다양한 응용이 가능합니다. </tspan></text>
    <text class="cls-11" transform="translate(235.28 93.76)"><tspan class="cls-2" x="0" y="0">The R-shaped symbol inverted up and down to form a </tspan><tspan class="cls-7" x="342.49" y="0">c</tspan><tspan class="cls-16" x="349.07" y="0" xml:space="preserve">ontinuous chain.  Don&apos;t you have a h</tspan><tspan class="cls-9" x="576.34" y="0">e</tspan><tspan class="cls-2" x="583.67" y="0">artwarming </tspan><tspan class="cls-2" x="0" y="27">experien</tspan><tspan class="cls-7" x="54.6" y="27">c</tspan><tspan class="cls-2" x="61.18" y="27">e because of the kindness of </tspan><tspan class="cls-8" x="241.24" y="27">s</tspan><tspan class="cls-2" x="247.28" y="27">t</tspan><tspan class="cls-12" x="252.35" y="27">r</tspan><tspan class="cls-16" x="257.19" y="27">angers you met while campin</tspan><tspan class="cls-6" x="441.68" y="27">g</tspan><tspan class="cls-2" x="448.79" y="27">? Rambles&apos; </tspan><tspan class="cls-9" x="519.78" y="27">p</tspan><tspan class="cls-2" x="528.03" y="27">a</tspan><tspan class="cls-8" x="535.72" y="27">t</tspan><tspan class="cls-2" x="540.48" y="27">terns represent </tspan><tspan class="cls-2" x="0" y="54">these warm </tspan><tspan class="cls-7" x="77.32" y="54">c</tspan><tspan class="cls-16" x="83.9" y="54">onnections. The shape of the chain </tspan><tspan class="cls-7" x="305.34" y="54">c</tspan><tspan class="cls-2" x="311.92" y="54">onnected by </tspan><tspan class="cls-4" x="393.8" y="54">e</tspan><tspan class="cls-16" x="401.12" y="54">ach </tspan><tspan class="cls-1" x="426.94" y="54">s</tspan><tspan class="cls-2" x="432.97" y="54">tep can be applied in </tspan><tspan class="cls-1" x="566.54" y="54">v</tspan><tspan class="cls-2" x="573.32" y="54">arious ways.</tspan></text>
  </g>
  <g id="_레이어_2" data-name="레이어 2">
    <g>
      <g>
        <path class="cls-5" d="m371.74,345.87c0-.05,0-.1,0-.16-.08-3.26-2.75-5.88-6.03-5.88-1.17,0-2.25.34-3.17.91-.69.43-1.29,1-1.76,1.66l-13.48,25.17c-1.51-2.87-10.82-21.33-12.29-23.36-1.87-2.59-5.22-5.2-8.36-5.74-9.81-1.71-21.08,2.05-23.42,12.76-.39,1.78-.33,3.72.53,5.32.68,1.27,1.83,2.25,3.11,2.91.93.48,1.97.81,3.02.79,2.8-.05,5.12-2.79,5.12-5.59,0-1.7-.24-3.01.98-4.36,1.1-1.22,2.72-1.92,4.34-2.02,4.79-.3,6.36,4.26,5.14,6.97-4.93,10.95-27.93,53.68-27.93,53.68-1.55,2.93-.43,6.57,2.5,8.12,2.93,1.55,6.57.43,8.12-2.5,0,0,13.09-25.43,13.09-25.43,2.44,4.55,9.79,18.21,12.54,22.24,2.86,4.56,7.93,7.59,13.7,7.59,8.93,0,16.16-7.24,16.16-16.16,0-2.26-.47-4.42-1.31-6.37-.2-.53-.42-1.05-.67-1.55-1.37-2.78-4.74-9.5-4.74-9.5-1.13-2.16-2.14-4.01-2.73-5.07l16.88-31.71c.41-.82.65-1.74.65-2.72Zm-38.22,18.84c1.27,2.26,7.13,13.35,11.71,22.08,2.75,5.24,5.03,9.63,5.57,10.73.24.5,1.99,3.57,1.99,4.92,0,2.96-2.4,5.35-5.35,5.35-.59,0-1.16-.1-1.69-.27-1.4-.47-2.54-1.5-3.16-2.82-.16-.17-3.57-6.31-7.11-12.72-3.76-6.79-7.66-13.88-7.97-14.42,0,0,0,0,0,0l6.01-12.84Z"/>
        <path class="cls-5" d="m503.69,345.87c0-.05,0-.1,0-.16-.08-3.26-2.75-5.88-6.03-5.88-1.17,0-2.25.34-3.17.91-.69.43-1.29,1-1.76,1.66l-13.48,25.17c-1.51-2.87-10.82-21.33-12.29-23.36-1.87-2.59-5.22-5.2-8.36-5.74-9.81-1.71-21.08,2.05-23.42,12.76-.39,1.78-.33,3.72.53,5.32.68,1.27,1.83,2.25,3.11,2.91.93.48,1.97.81,3.02.79,2.8-.05,5.12-2.79,5.12-5.59,0-1.7-.24-3.01.98-4.36,1.1-1.22,2.72-1.92,4.34-2.02,4.79-.3,6.36,4.26,5.14,6.97-4.93,10.95-27.93,53.68-27.93,53.68-1.55,2.93-.43,6.57,2.5,8.12,2.93,1.55,6.57.43,8.12-2.5,0,0,13.09-25.43,13.09-25.43,2.44,4.55,9.79,18.21,12.54,22.24,2.86,4.56,7.93,7.59,13.7,7.59,8.93,0,16.16-7.24,16.16-16.16,0-2.26-.47-4.42-1.31-6.37-.2-.53-.42-1.05-.67-1.55-1.37-2.78-4.74-9.5-4.74-9.5-1.13-2.16-2.14-4.01-2.73-5.07l16.88-31.71c.41-.82.65-1.74.65-2.72Zm-38.22,18.84c1.27,2.26,7.13,13.35,11.71,22.08,2.75,5.24,5.03,9.63,5.57,10.73.24.5,1.99,3.57,1.99,4.92,0,2.96-2.4,5.35-5.35,5.35-.59,0-1.16-.1-1.69-.27-1.4-.47-2.54-1.5-3.16-2.82-.16-.17-3.57-6.31-7.11-12.72-3.76-6.79-7.66-13.88-7.97-14.42,0,0,0,0,0,0l6.01-12.84Z"/>
        <path class="cls-5" d="m635.73,345.87c0-.05,0-.1,0-.16-.08-3.26-2.75-5.88-6.03-5.88-1.17,0-2.25.34-3.17.91-.69.43-1.29,1-1.76,1.66l-13.48,25.17c-1.51-2.87-10.82-21.33-12.29-23.36-1.87-2.59-5.22-5.2-8.36-5.74-9.81-1.71-21.08,2.05-23.42,12.76-.39,1.78-.33,3.72.53,5.32.68,1.27,1.83,2.25,3.11,2.91.93.48,1.97.81,3.02.79,2.8-.05,5.12-2.79,5.12-5.59,0-1.7-.24-3.01.98-4.36,1.1-1.22,2.72-1.92,4.34-2.02,4.79-.3,6.36,4.26,5.14,6.97-4.93,10.95-27.93,53.68-27.93,53.68-1.55,2.93-.43,6.57,2.5,8.12,2.93,1.55,6.57.43,8.12-2.5,0,0,13.09-25.43,13.09-25.43,2.44,4.55,9.79,18.21,12.54,22.24,2.86,4.56,7.93,7.59,13.7,7.59,8.93,0,16.16-7.24,16.16-16.16,0-2.26-.47-4.42-1.31-6.37-.2-.53-.42-1.05-.67-1.55-1.37-2.78-4.74-9.5-4.74-9.5-1.13-2.16-2.14-4.01-2.73-5.07l16.88-31.71c.41-.82.65-1.74.65-2.72Zm-38.22,18.84c1.27,2.26,7.13,13.35,11.71,22.08,2.75,5.24,5.03,9.63,5.57,10.73.24.5,1.99,3.57,1.99,4.92,0,2.96-2.4,5.35-5.35,5.35-.59,0-1.16-.1-1.69-.27-1.4-.47-2.54-1.5-3.16-2.82-.16-.17-3.57-6.31-7.11-12.72-3.76-6.79-7.66-13.88-7.97-14.42,0,0,0,0,0,0l6.01-12.84Z"/>
        <path class="cls-5" d="m767.9,345.87c0-.05,0-.1,0-.16-.08-3.26-2.75-5.88-6.03-5.88-1.17,0-2.25.34-3.17.91-.69.43-1.29,1-1.76,1.66l-13.48,25.17c-1.51-2.87-10.82-21.33-12.29-23.36-1.87-2.59-5.22-5.2-8.36-5.74-9.81-1.71-21.08,2.05-23.42,12.76-.39,1.78-.33,3.72.53,5.32.68,1.27,1.83,2.25,3.11,2.91.93.48,1.97.81,3.02.79,2.8-.05,5.12-2.79,5.12-5.59,0-1.7-.24-3.01.98-4.36,1.1-1.22,2.72-1.92,4.34-2.02,4.79-.3,6.36,4.26,5.14,6.97-4.93,10.95-27.93,53.68-27.93,53.68-1.55,2.93-.43,6.57,2.5,8.12,2.93,1.55,6.57.43,8.12-2.5,0,0,13.09-25.43,13.09-25.43,2.44,4.55,9.79,18.21,12.54,22.24,2.86,4.56,7.93,7.59,13.7,7.59,8.93,0,16.16-7.24,16.16-16.16,0-2.26-.47-4.42-1.31-6.37-.2-.53-.42-1.05-.67-1.55-1.37-2.78-4.74-9.5-4.74-9.5-1.13-2.16-2.14-4.01-2.73-5.07l16.88-31.71c.41-.82.65-1.74.65-2.72Zm-38.22,18.84c1.27,2.26,7.13,13.35,11.71,22.08,2.75,5.24,5.03,9.63,5.57,10.73.24.5,1.99,3.57,1.99,4.92,0,2.96-2.4,5.35-5.35,5.35-.59,0-1.16-.1-1.69-.27-1.4-.47-2.54-1.5-3.16-2.82-.16-.17-3.57-6.31-7.11-12.72-3.76-6.79-7.66-13.88-7.97-14.42,0,0,0,0,0,0l6.01-12.84Z"/>
        <path class="cls-5" d="m900.2,345.87c0-.05,0-.1,0-.16-.08-3.26-2.75-5.88-6.03-5.88-1.17,0-2.25.34-3.17.91-.69.43-1.29,1-1.76,1.66l-13.48,25.17c-1.51-2.87-10.82-21.33-12.29-23.36-1.87-2.59-5.22-5.2-8.36-5.74-9.81-1.71-21.08,2.05-23.42,12.76-.39,1.78-.33,3.72.53,5.32.68,1.27,1.83,2.25,3.11,2.91.93.48,1.97.81,3.02.79,2.8-.05,5.12-2.79,5.12-5.59,0-1.7-.24-3.01.98-4.36,1.1-1.22,2.72-1.92,4.34-2.02,4.79-.3,6.36,4.26,5.14,6.97-4.93,10.95-27.93,53.68-27.93,53.68-1.55,2.93-.43,6.57,2.5,8.12,2.93,1.55,6.57.43,8.12-2.5,0,0,13.09-25.43,13.09-25.43,2.44,4.55,9.79,18.21,12.54,22.24,2.86,4.56,7.93,7.59,13.7,7.59,8.93,0,16.16-7.24,16.16-16.16,0-2.26-.47-4.42-1.31-6.37-.2-.53-.42-1.05-.67-1.55-1.37-2.78-4.74-9.5-4.74-9.5-1.13-2.16-2.14-4.01-2.73-5.07l16.88-31.71c.41-.82.65-1.74.65-2.72Zm-38.22,18.84c1.27,2.26,7.13,13.35,11.71,22.08,2.75,5.24,5.03,9.63,5.57,10.73.24.5,1.99,3.57,1.99,4.92,0,2.96-2.4,5.35-5.35,5.35-.59,0-1.16-.1-1.69-.27-1.4-.47-2.54-1.5-3.16-2.82-.16-.17-3.57-6.31-7.11-12.72-3.76-6.79-7.66-13.88-7.97-14.42,0,0,0,0,0,0l6.01-12.84Z"/>
        <path class="cls-14" d="m229.85,411.15c0,.05,0,.1,0,.16.08,3.26,2.75,5.88,6.03,5.88,1.17,0,2.25-.34,3.17-.91.69-.43,1.29-1,1.76-1.66l13.48-25.17c1.51,2.87,10.82,21.33,12.29,23.36,1.87,2.59,5.22,5.2,8.36,5.74,9.81,1.71,21.08-2.05,23.42-12.76.39-1.78.33-3.72-.53-5.32-.68-1.27-1.83-2.25-3.11-2.91-.93-.48-1.97-.81-3.02-.79-2.8.05-5.12,2.79-5.12,5.59,0,1.7.24,3.01-.98,4.36-1.1,1.22-2.72,1.92-4.34,2.02-4.79.3-6.36-4.26-5.14-6.97,4.93-10.95,27.93-53.68,27.93-53.68,1.55-2.93.43-6.57-2.5-8.12-2.93-1.55-6.57-.43-8.12,2.5,0,0-13.09,25.43-13.09,25.43-2.44-4.55-9.79-18.21-12.54-22.24-2.86-4.56-7.93-7.59-13.7-7.59-8.93,0-16.16,7.24-16.16,16.16,0,2.26.47,4.42,1.31,6.37.2.53.42,1.05.67,1.55,1.37,2.78,4.74,9.5,4.74,9.5,1.13,2.16,2.14,4.01,2.73,5.07l-16.88,31.71c-.41.82-.65,1.74-.65,2.72Zm38.22-18.84c-1.27-2.26-7.13-13.35-11.71-22.08-2.75-5.24-5.03-9.63-5.57-10.73-.24-.5-1.99-3.57-1.99-4.92,0-2.96,2.4-5.35,5.35-5.35.59,0,1.16.1,1.69.27,1.4.47,2.54,1.5,3.16,2.82.16.17,3.57,6.31,7.11,12.72,3.76,6.79,7.66,13.88,7.97,14.42,0,0,0,0,0,0l-6.01,12.84Z"/>
        <path class="cls-14" d="m362.01,411.15c0,.05,0,.1,0,.16.08,3.26,2.75,5.88,6.03,5.88,1.17,0,2.25-.34,3.17-.91.69-.43,1.29-1,1.76-1.66l13.48-25.17c1.51,2.87,10.82,21.33,12.29,23.36,1.87,2.59,5.22,5.2,8.36,5.74,9.81,1.71,21.08-2.05,23.42-12.76.39-1.78.33-3.72-.53-5.32-.68-1.27-1.83-2.25-3.11-2.91-.93-.48-1.97-.81-3.02-.79-2.8.05-5.12,2.79-5.12,5.59,0,1.7.24,3.01-.98,4.36-1.1,1.22-2.72,1.92-4.34,2.02-4.79.3-6.36-4.26-5.14-6.97,4.93-10.95,27.93-53.68,27.93-53.68,1.55-2.93.43-6.57-2.5-8.12-2.93-1.55-6.57-.43-8.12,2.5,0,0-13.09,25.43-13.09,25.43-2.44-4.55-9.79-18.21-12.54-22.24-2.86-4.56-7.93-7.59-13.7-7.59-8.93,0-16.16,7.24-16.16,16.16,0,2.26.47,4.42,1.31,6.37.2.53.42,1.05.67,1.55,1.37,2.78,4.74,9.5,4.74,9.5,1.13,2.16,2.14,4.01,2.73,5.07l-16.88,31.71c-.41.82-.65,1.74-.65,2.72Zm38.22-18.84c-1.27-2.26-7.13-13.35-11.71-22.08-2.75-5.24-5.03-9.63-5.57-10.73-.24-.5-1.99-3.57-1.99-4.92,0-2.96,2.4-5.35,5.35-5.35.59,0,1.16.1,1.69.27,1.4.47,2.54,1.5,3.16,2.82.16.17,3.57,6.31,7.11,12.72,3.76,6.79,7.66,13.88,7.97,14.42,0,0,0,0,0,0l-6.01,12.84Z"/>
        <path class="cls-14" d="m494.01,411.15c0,.05,0,.1,0,.16.08,3.26,2.75,5.88,6.03,5.88,1.17,0,2.25-.34,3.17-.91.69-.43,1.29-1,1.76-1.66l13.48-25.17c1.51,2.87,10.82,21.33,12.29,23.36,1.87,2.59,5.22,5.2,8.36,5.74,9.81,1.71,21.08-2.05,23.42-12.76.39-1.78.33-3.72-.53-5.32-.68-1.27-1.83-2.25-3.11-2.91-.93-.48-1.97-.81-3.02-.79-2.8.05-5.12,2.79-5.12,5.59,0,1.7.24,3.01-.98,4.36-1.1,1.22-2.72,1.92-4.34,2.02-4.79.3-6.36-4.26-5.14-6.97,4.93-10.95,27.93-53.68,27.93-53.68,1.55-2.93.43-6.57-2.5-8.12-2.93-1.55-6.57-.43-8.12,2.5,0,0-13.09,25.43-13.09,25.43-2.44-4.55-9.79-18.21-12.54-22.24-2.86-4.56-7.93-7.59-13.7-7.59-8.93,0-16.16,7.24-16.16,16.16,0,2.26.47,4.42,1.31,6.37.2.53.42,1.05.67,1.55,1.37,2.78,4.74,9.5,4.74,9.5,1.13,2.16,2.14,4.01,2.73,5.07l-16.88,31.71c-.41.82-.65,1.74-.65,2.72Zm38.22-18.84c-1.27-2.26-7.13-13.35-11.71-22.08-2.75-5.24-5.03-9.63-5.57-10.73-.24-.5-1.99-3.57-1.99-4.92,0-2.96,2.4-5.35,5.35-5.35.59,0,1.16.1,1.69.27,1.4.47,2.54,1.5,3.16,2.82.16.17,3.57,6.31,7.11,12.72,3.76,6.79,7.66,13.88,7.97,14.42,0,0,0,0,0,0l-6.01,12.84Z"/>
        <path class="cls-14" d="m626.17,411.15c0,.05,0,.1,0,.16.08,3.26,2.75,5.88,6.03,5.88,1.17,0,2.25-.34,3.17-.91.69-.43,1.29-1,1.76-1.66l13.48-25.17c1.51,2.87,10.82,21.33,12.29,23.36,1.87,2.59,5.22,5.2,8.36,5.74,9.81,1.71,21.08-2.05,23.42-12.76.39-1.78.33-3.72-.53-5.32-.68-1.27-1.83-2.25-3.11-2.91-.93-.48-1.97-.81-3.02-.79-2.8.05-5.12,2.79-5.12,5.59,0,1.7.24,3.01-.98,4.36-1.1,1.22-2.72,1.92-4.34,2.02-4.79.3-6.36-4.26-5.14-6.97,4.93-10.95,27.93-53.68,27.93-53.68,1.55-2.93.43-6.57-2.5-8.12-2.93-1.55-6.57-.43-8.12,2.5,0,0-13.09,25.43-13.09,25.43-2.44-4.55-9.79-18.21-12.54-22.24-2.86-4.56-7.93-7.59-13.7-7.59-8.93,0-16.16,7.24-16.16,16.16,0,2.26.47,4.42,1.31,6.37.2.53.42,1.05.67,1.55,1.37,2.78,4.74,9.5,4.74,9.5,1.13,2.16,2.14,4.01,2.73,5.07l-16.88,31.71c-.41.82-.65,1.74-.65,2.72Zm38.22-18.84c-1.27-2.26-7.13-13.35-11.71-22.08-2.75-5.24-5.03-9.63-5.57-10.73-.24-.5-1.99-3.57-1.99-4.92,0-2.96,2.4-5.35,5.35-5.35.59,0,1.16.1,1.69.27,1.4.47,2.54,1.5,3.16,2.82.16.17,3.57,6.31,7.11,12.72,3.76,6.79,7.66,13.88,7.97,14.42,0,0,0,0,0,0l-6.01,12.84Z"/>
        <path class="cls-14" d="m758.49,411.15c0,.05,0,.1,0,.16.08,3.26,2.75,5.88,6.03,5.88,1.17,0,2.25-.34,3.17-.91.69-.43,1.29-1,1.76-1.66l13.48-25.17c1.51,2.87,10.82,21.33,12.29,23.36,1.87,2.59,5.22,5.2,8.36,5.74,9.81,1.71,21.08-2.05,23.42-12.76.39-1.78.33-3.72-.53-5.32-.68-1.27-1.83-2.25-3.11-2.91-.93-.48-1.97-.81-3.02-.79-2.8.05-5.12,2.79-5.12,5.59,0,1.7.24,3.01-.98,4.36-1.1,1.22-2.72,1.92-4.34,2.02-4.79.3-6.36-4.26-5.14-6.97,4.93-10.95,27.93-53.68,27.93-53.68,1.55-2.93.43-6.57-2.5-8.12-2.93-1.55-6.57-.43-8.12,2.5,0,0-13.09,25.43-13.09,25.43-2.44-4.55-9.79-18.21-12.54-22.24-2.86-4.56-7.93-7.59-13.7-7.59-8.93,0-16.16,7.24-16.16,16.16,0,2.26.47,4.42,1.31,6.37.2.53.42,1.05.67,1.55,1.37,2.78,4.74,9.5,4.74,9.5,1.13,2.16,2.14,4.01,2.73,5.07l-16.88,31.71c-.41.82-.65,1.74-.65,2.72Zm38.22-18.84c-1.27-2.26-7.13-13.35-11.71-22.08-2.75-5.24-5.03-9.63-5.57-10.73-.24-.5-1.99-3.57-1.99-4.92,0-2.96,2.4-5.35,5.35-5.35.59,0,1.16.1,1.69.27,1.4.47,2.54,1.5,3.16,2.82.16.17,3.57,6.31,7.11,12.72,3.76,6.79,7.66,13.88,7.97,14.42,0,0,0,0,0,0l-6.01,12.84Z"/>
        <path class="cls-14" d="m890.52,411.1c0,.05,0,.1,0,.16.08,3.26,2.75,5.88,6.03,5.88,1.17,0,2.25-.34,3.17-.91.69-.43,1.29-1,1.76-1.66l13.48-25.17c1.51,2.87,10.82,21.33,12.29,23.36,1.87,2.59,5.22,5.2,8.36,5.74,9.81,1.71,21.08-2.05,23.42-12.76.39-1.78.33-3.72-.53-5.32-.68-1.27-1.83-2.25-3.11-2.91-.93-.48-1.97-.81-3.02-.79-2.8.05-5.12,2.79-5.12,5.59,0,1.7.24,3.01-.98,4.36-1.1,1.22-2.72,1.92-4.34,2.02-4.79.3-6.36-4.26-5.14-6.97,4.93-10.95,27.93-53.68,27.93-53.68,1.55-2.93.43-6.57-2.5-8.12-2.93-1.55-6.57-.43-8.12,2.5,0,0-13.09,25.43-13.09,25.43-2.44-4.55-9.79-18.21-12.54-22.24-2.86-4.56-7.93-7.59-13.7-7.59-8.93,0-16.16,7.24-16.16,16.16,0,2.26.47,4.42,1.31,6.37.2.53.42,1.05.67,1.55,1.37,2.78,4.74,9.5,4.74,9.5,1.13,2.16,2.14,4.01,2.73,5.07l-16.88,31.71c-.41.82-.65,1.74-.65,2.72Zm38.22-18.84c-1.27-2.26-7.13-13.35-11.71-22.08-2.75-5.24-5.03-9.63-5.57-10.73-.24-.5-1.99-3.57-1.99-4.92,0-2.96,2.4-5.35,5.35-5.35.59,0,1.16.1,1.69.27,1.4.47,2.54,1.5,3.16,2.82.16.17,3.57,6.31,7.11,12.72,3.76,6.79,7.66,13.88,7.97,14.42,0,0,0,0,0,0l-6.01,12.84Z"/>
        <path class="cls-5" d="m304.77,422.83c0-.05,0-.1,0-.16-.08-3.26-2.75-5.88-6.03-5.88-1.17,0-2.25.34-3.17.91-.69.43-1.29,1-1.76,1.66l-13.48,25.17c-1.51-2.87-10.82-21.33-12.29-23.36-1.87-2.59-5.22-5.2-8.36-5.74-9.81-1.71-21.08,2.05-23.42,12.76-.39,1.78-.33,3.72.53,5.32.68,1.27,1.83,2.25,3.11,2.91.93.48,1.97.81,3.02.79,2.8-.05,5.12-2.79,5.12-5.59,0-1.7-.24-3.01.98-4.36,1.1-1.22,2.72-1.92,4.34-2.02,4.79-.3,6.36,4.26,5.14,6.97-4.93,10.95-27.93,53.68-27.93,53.68-1.55,2.93-.43,6.57,2.5,8.12,2.93,1.55,6.57.43,8.12-2.5,0,0,13.09-25.43,13.09-25.43,2.44,4.55,9.79,18.21,12.54,22.24,2.86,4.56,7.93,7.59,13.7,7.59,8.93,0,16.16-7.24,16.16-16.16,0-2.26-.47-4.42-1.31-6.37-.2-.53-.42-1.05-.67-1.55-1.37-2.78-4.74-9.5-4.74-9.5-1.13-2.16-2.14-4.01-2.73-5.07l16.88-31.71c.41-.82.65-1.74.65-2.72Zm-38.22,18.84c1.27,2.26,7.13,13.35,11.71,22.08,2.75,5.24,5.03,9.63,5.57,10.73.24.5,1.99,3.57,1.99,4.92,0,2.96-2.4,5.35-5.35,5.35-.59,0-1.16-.1-1.69-.27-1.4-.47-2.54-1.5-3.16-2.82-.16-.17-3.57-6.31-7.11-12.72-3.76-6.79-7.66-13.88-7.97-14.42,0,0,0,0,0,0l6.01-12.84Z"/>
        <path class="cls-5" d="m437.04,422.83c0-.05,0-.1,0-.16-.08-3.26-2.75-5.88-6.03-5.88-1.17,0-2.25.34-3.17.91-.69.43-1.29,1-1.76,1.66l-13.48,25.17c-1.51-2.87-10.82-21.33-12.29-23.36-1.87-2.59-5.22-5.2-8.36-5.74-9.81-1.71-21.08,2.05-23.42,12.76-.39,1.78-.33,3.72.53,5.32.68,1.27,1.83,2.25,3.11,2.91.93.48,1.97.81,3.02.79,2.8-.05,5.12-2.79,5.12-5.59,0-1.7-.24-3.01.98-4.36,1.1-1.22,2.72-1.92,4.34-2.02,4.79-.3,6.36,4.26,5.14,6.97-4.93,10.95-27.93,53.68-27.93,53.68-1.55,2.93-.43,6.57,2.5,8.12,2.93,1.55,6.57.43,8.12-2.5,0,0,13.09-25.43,13.09-25.43,2.44,4.55,9.79,18.21,12.54,22.24,2.86,4.56,7.93,7.59,13.7,7.59,8.93,0,16.16-7.24,16.16-16.16,0-2.26-.47-4.42-1.31-6.37-.2-.53-.42-1.05-.67-1.55-1.37-2.78-4.74-9.5-4.74-9.5-1.13-2.16-2.14-4.01-2.73-5.07l16.88-31.71c.41-.82.65-1.74.65-2.72Zm-38.22,18.84c1.27,2.26,7.13,13.35,11.71,22.08,2.75,5.24,5.03,9.63,5.57,10.73.24.5,1.99,3.57,1.99,4.92,0,2.96-2.4,5.35-5.35,5.35-.59,0-1.16-.1-1.69-.27-1.4-.47-2.54-1.5-3.16-2.82-.16-.17-3.57-6.31-7.11-12.72-3.76-6.79-7.66-13.88-7.97-14.42,0,0,0,0,0,0l6.01-12.84Z"/>
        <path class="cls-5" d="m568.98,422.83c0-.05,0-.1,0-.16-.08-3.26-2.75-5.88-6.03-5.88-1.17,0-2.25.34-3.17.91-.69.43-1.29,1-1.76,1.66l-13.48,25.17c-1.51-2.87-10.82-21.33-12.29-23.36-1.87-2.59-5.22-5.2-8.36-5.74-9.81-1.71-21.08,2.05-23.42,12.76-.39,1.78-.33,3.72.53,5.32.68,1.27,1.83,2.25,3.11,2.91.93.48,1.97.81,3.02.79,2.8-.05,5.12-2.79,5.12-5.59,0-1.7-.24-3.01.98-4.36,1.1-1.22,2.72-1.92,4.34-2.02,4.79-.3,6.36,4.26,5.14,6.97-4.93,10.95-27.93,53.68-27.93,53.68-1.55,2.93-.43,6.57,2.5,8.12,2.93,1.55,6.57.43,8.12-2.5,0,0,13.09-25.43,13.09-25.43,2.44,4.55,9.79,18.21,12.54,22.24,2.86,4.56,7.93,7.59,13.7,7.59,8.93,0,16.16-7.24,16.16-16.16,0-2.26-.47-4.42-1.31-6.37-.2-.53-.42-1.05-.67-1.55-1.37-2.78-4.74-9.5-4.74-9.5-1.13-2.16-2.14-4.01-2.73-5.07l16.88-31.71c.41-.82.65-1.74.65-2.72Zm-38.22,18.84c1.27,2.26,7.13,13.35,11.71,22.08,2.75,5.24,5.03,9.63,5.57,10.73.24.5,1.99,3.57,1.99,4.92,0,2.96-2.4,5.35-5.35,5.35-.59,0-1.16-.1-1.69-.27-1.4-.47-2.54-1.5-3.16-2.82-.16-.17-3.57-6.31-7.11-12.72-3.76-6.79-7.66-13.88-7.97-14.42,0,0,0,0,0,0l6.01-12.84Z"/>
        <path class="cls-5" d="m701.03,422.83c0-.05,0-.1,0-.16-.08-3.26-2.75-5.88-6.03-5.88-1.17,0-2.25.34-3.17.91-.69.43-1.29,1-1.76,1.66l-13.48,25.17c-1.51-2.87-10.82-21.33-12.29-23.36-1.87-2.59-5.22-5.2-8.36-5.74-9.81-1.71-21.08,2.05-23.42,12.76-.39,1.78-.33,3.72.53,5.32.68,1.27,1.83,2.25,3.11,2.91.93.48,1.97.81,3.02.79,2.8-.05,5.12-2.79,5.12-5.59,0-1.7-.24-3.01.98-4.36,1.1-1.22,2.72-1.92,4.34-2.02,4.79-.3,6.36,4.26,5.14,6.97-4.93,10.95-27.93,53.68-27.93,53.68-1.55,2.93-.43,6.57,2.5,8.12,2.93,1.55,6.57.43,8.12-2.5,0,0,13.09-25.43,13.09-25.43,2.44,4.55,9.79,18.21,12.54,22.24,2.86,4.56,7.93,7.59,13.7,7.59,8.93,0,16.16-7.24,16.16-16.16,0-2.26-.47-4.42-1.31-6.37-.2-.53-.42-1.05-.67-1.55-1.37-2.78-4.74-9.5-4.74-9.5-1.13-2.16-2.14-4.01-2.73-5.07l16.88-31.71c.41-.82.65-1.74.65-2.72Zm-38.22,18.84c1.27,2.26,7.13,13.35,11.71,22.08,2.75,5.24,5.03,9.63,5.57,10.73.24.5,1.99,3.57,1.99,4.92,0,2.96-2.4,5.35-5.35,5.35-.59,0-1.16-.1-1.69-.27-1.4-.47-2.54-1.5-3.16-2.82-.16-.17-3.57-6.31-7.11-12.72-3.76-6.79-7.66-13.88-7.97-14.42,0,0,0,0,0,0l6.01-12.84Z"/>
        <path class="cls-5" d="m833.19,422.83c0-.05,0-.1,0-.16-.08-3.26-2.75-5.88-6.03-5.88-1.17,0-2.25.34-3.17.91-.69.43-1.29,1-1.76,1.66l-13.48,25.17c-1.51-2.87-10.82-21.33-12.29-23.36-1.87-2.59-5.22-5.2-8.36-5.74-9.81-1.71-21.08,2.05-23.42,12.76-.39,1.78-.33,3.72.53,5.32.68,1.27,1.83,2.25,3.11,2.91.93.48,1.97.81,3.02.79,2.8-.05,5.12-2.79,5.12-5.59,0-1.7-.24-3.01.98-4.36,1.1-1.22,2.72-1.92,4.34-2.02,4.79-.3,6.36,4.26,5.14,6.97-4.93,10.95-27.93,53.68-27.93,53.68-1.55,2.93-.43,6.57,2.5,8.12,2.93,1.55,6.57.43,8.12-2.5,0,0,13.09-25.43,13.09-25.43,2.44,4.55,9.79,18.21,12.54,22.24,2.86,4.56,7.93,7.59,13.7,7.59,8.93,0,16.16-7.24,16.16-16.16,0-2.26-.47-4.42-1.31-6.37-.2-.53-.42-1.05-.67-1.55-1.37-2.78-4.74-9.5-4.74-9.5-1.13-2.16-2.14-4.01-2.73-5.07l16.88-31.71c.41-.82.65-1.74.65-2.72Zm-38.22,18.84c1.27,2.26,7.13,13.35,11.71,22.08,2.75,5.24,5.03,9.63,5.57,10.73.24.5,1.99,3.57,1.99,4.92,0,2.96-2.4,5.35-5.35,5.35-.59,0-1.16-.1-1.69-.27-1.4-.47-2.54-1.5-3.16-2.82-.16-.17-3.57-6.31-7.11-12.72-3.76-6.79-7.66-13.88-7.97-14.42,0,0,0,0,0,0l6.01-12.84Z"/>
        <path class="cls-5" d="m965.5,422.83c0-.05,0-.1,0-.16-.08-3.26-2.75-5.88-6.03-5.88-1.17,0-2.25.34-3.17.91-.69.43-1.29,1-1.76,1.66l-13.48,25.17c-1.51-2.87-10.82-21.33-12.29-23.36-1.87-2.59-5.22-5.2-8.36-5.74-9.81-1.71-21.08,2.05-23.42,12.76-.39,1.78-.33,3.72.53,5.32.68,1.27,1.83,2.25,3.11,2.91.93.48,1.97.81,3.02.79,2.8-.05,5.12-2.79,5.12-5.59,0-1.7-.24-3.01.98-4.36,1.1-1.22,2.72-1.92,4.34-2.02,4.79-.3,6.36,4.26,5.14,6.97-4.93,10.95-27.93,53.68-27.93,53.68-1.55,2.93-.43,6.57,2.5,8.12,2.93,1.55,6.57.43,8.12-2.5,0,0,13.09-25.43,13.09-25.43,2.44,4.55,9.79,18.21,12.54,22.24,2.86,4.56,7.93,7.59,13.7,7.59,8.93,0,16.16-7.24,16.16-16.16,0-2.26-.47-4.42-1.31-6.37-.2-.53-.42-1.05-.67-1.55-1.37-2.78-4.74-9.5-4.74-9.5-1.13-2.16-2.14-4.01-2.73-5.07l16.88-31.71c.41-.82.65-1.74.65-2.72Zm-38.22,18.84c1.27,2.26,7.13,13.35,11.71,22.08,2.75,5.24,5.03,9.63,5.57,10.73.24.5,1.99,3.57,1.99,4.92,0,2.96-2.4,5.35-5.35,5.35-.59,0-1.16-.1-1.69-.27-1.4-.47-2.54-1.5-3.16-2.82-.16-.17-3.57-6.31-7.11-12.72-3.76-6.79-7.66-13.88-7.97-14.42,0,0,0,0,0,0l6.01-12.84Z"/>
        <path class="cls-14" d="m295.15,488.1c0,.05,0,.1,0,.16.08,3.26,2.75,5.88,6.03,5.88,1.17,0,2.25-.34,3.17-.91.69-.43,1.29-1,1.76-1.66l13.48-25.17c1.51,2.87,10.82,21.33,12.29,23.36,1.87,2.59,5.22,5.2,8.36,5.74,9.81,1.71,21.08-2.05,23.42-12.76.39-1.78.33-3.72-.53-5.32-.68-1.27-1.83-2.25-3.11-2.91-.93-.48-1.97-.81-3.02-.79-2.8.05-5.12,2.79-5.12,5.59,0,1.7.24,3.01-.98,4.36-1.1,1.22-2.72,1.92-4.34,2.02-4.79.3-6.36-4.26-5.14-6.97,4.93-10.95,27.93-53.68,27.93-53.68,1.55-2.93.43-6.57-2.5-8.12-2.93-1.55-6.57-.43-8.12,2.5,0,0-13.09,25.43-13.09,25.43-2.44-4.55-9.79-18.21-12.54-22.24-2.86-4.56-7.93-7.59-13.7-7.59-8.93,0-16.16,7.24-16.16,16.16,0,2.26.47,4.42,1.31,6.37.2.53.42,1.05.67,1.55,1.37,2.78,4.74,9.5,4.74,9.5,1.13,2.16,2.14,4.01,2.73,5.07l-16.88,31.71c-.41.82-.65,1.74-.65,2.72Zm38.22-18.84c-1.27-2.26-7.13-13.35-11.71-22.08-2.75-5.24-5.03-9.63-5.57-10.73-.24-.5-1.99-3.57-1.99-4.92,0-2.96,2.4-5.35,5.35-5.35.59,0,1.16.1,1.69.27,1.4.47,2.54,1.5,3.16,2.82.16.17,3.57,6.31,7.11,12.72,3.76,6.79,7.66,13.88,7.97,14.42,0,0,0,0,0,0l-6.01,12.84Z"/>
        <path class="cls-14" d="m427.31,488.1c0,.05,0,.1,0,.16.08,3.26,2.75,5.88,6.03,5.88,1.17,0,2.25-.34,3.17-.91.69-.43,1.29-1,1.76-1.66l13.48-25.17c1.51,2.87,10.82,21.33,12.29,23.36,1.87,2.59,5.22,5.2,8.36,5.74,9.81,1.71,21.08-2.05,23.42-12.76.39-1.78.33-3.72-.53-5.32-.68-1.27-1.83-2.25-3.11-2.91-.93-.48-1.97-.81-3.02-.79-2.8.05-5.12,2.79-5.12,5.59,0,1.7.24,3.01-.98,4.36-1.1,1.22-2.72,1.92-4.34,2.02-4.79.3-6.36-4.26-5.14-6.97,4.93-10.95,27.93-53.68,27.93-53.68,1.55-2.93.43-6.57-2.5-8.12-2.93-1.55-6.57-.43-8.12,2.5,0,0-13.09,25.43-13.09,25.43-2.44-4.55-9.79-18.21-12.54-22.24-2.86-4.56-7.93-7.59-13.7-7.59-8.93,0-16.16,7.24-16.16,16.16,0,2.26.47,4.42,1.31,6.37.2.53.42,1.05.67,1.55,1.37,2.78,4.74,9.5,4.74,9.5,1.13,2.16,2.14,4.01,2.73,5.07l-16.88,31.71c-.41.82-.65,1.74-.65,2.72Zm38.22-18.84c-1.27-2.26-7.13-13.35-11.71-22.08-2.75-5.24-5.03-9.63-5.57-10.73-.24-.5-1.99-3.57-1.99-4.92,0-2.96,2.4-5.35,5.35-5.35.59,0,1.16.1,1.69.27,1.4.47,2.54,1.5,3.16,2.82.16.17,3.57,6.31,7.11,12.72,3.76,6.79,7.66,13.88,7.97,14.42,0,0,0,0,0,0l-6.01,12.84Z"/>
        <path class="cls-14" d="m559.31,488.1c0,.05,0,.1,0,.16.08,3.26,2.75,5.88,6.03,5.88,1.17,0,2.25-.34,3.17-.91.69-.43,1.29-1,1.76-1.66l13.48-25.17c1.51,2.87,10.82,21.33,12.29,23.36,1.87,2.59,5.22,5.2,8.36,5.74,9.81,1.71,21.08-2.05,23.42-12.76.39-1.78.33-3.72-.53-5.32-.68-1.27-1.83-2.25-3.11-2.91-.93-.48-1.97-.81-3.02-.79-2.8.05-5.12,2.79-5.12,5.59,0,1.7.24,3.01-.98,4.36-1.1,1.22-2.72,1.92-4.34,2.02-4.79.3-6.36-4.26-5.14-6.97,4.93-10.95,27.93-53.68,27.93-53.68,1.55-2.93.43-6.57-2.5-8.12-2.93-1.55-6.57-.43-8.12,2.5,0,0-13.09,25.43-13.09,25.43-2.44-4.55-9.79-18.21-12.54-22.24-2.86-4.56-7.93-7.59-13.7-7.59-8.93,0-16.16,7.24-16.16,16.16,0,2.26.47,4.42,1.31,6.37.2.53.42,1.05.67,1.55,1.37,2.78,4.74,9.5,4.74,9.5,1.13,2.16,2.14,4.01,2.73,5.07l-16.88,31.71c-.41.82-.65,1.74-.65,2.72Zm38.22-18.84c-1.27-2.26-7.13-13.35-11.71-22.08-2.75-5.24-5.03-9.63-5.57-10.73-.24-.5-1.99-3.57-1.99-4.92,0-2.96,2.4-5.35,5.35-5.35.59,0,1.16.1,1.69.27,1.4.47,2.54,1.5,3.16,2.82.16.17,3.57,6.31,7.11,12.72,3.76,6.79,7.66,13.88,7.97,14.42,0,0,0,0,0,0l-6.01,12.84Z"/>
        <path class="cls-14" d="m691.47,488.1c0,.05,0,.1,0,.16.08,3.26,2.75,5.88,6.03,5.88,1.17,0,2.25-.34,3.17-.91.69-.43,1.29-1,1.76-1.66l13.48-25.17c1.51,2.87,10.82,21.33,12.29,23.36,1.87,2.59,5.22,5.2,8.36,5.74,9.81,1.71,21.08-2.05,23.42-12.76.39-1.78.33-3.72-.53-5.32-.68-1.27-1.83-2.25-3.11-2.91-.93-.48-1.97-.81-3.02-.79-2.8.05-5.12,2.79-5.12,5.59,0,1.7.24,3.01-.98,4.36-1.1,1.22-2.72,1.92-4.34,2.02-4.79.3-6.36-4.26-5.14-6.97,4.93-10.95,27.93-53.68,27.93-53.68,1.55-2.93.43-6.57-2.5-8.12-2.93-1.55-6.57-.43-8.12,2.5,0,0-13.09,25.43-13.09,25.43-2.44-4.55-9.79-18.21-12.54-22.24-2.86-4.56-7.93-7.59-13.7-7.59-8.93,0-16.16,7.24-16.16,16.16,0,2.26.47,4.42,1.31,6.37.2.53.42,1.05.67,1.55,1.37,2.78,4.74,9.5,4.74,9.5,1.13,2.16,2.14,4.01,2.73,5.07l-16.88,31.71c-.41.82-.65,1.74-.65,2.72Zm38.22-18.84c-1.27-2.26-7.13-13.35-11.71-22.08-2.75-5.24-5.03-9.63-5.57-10.73-.24-.5-1.99-3.57-1.99-4.92,0-2.96,2.4-5.35,5.35-5.35.59,0,1.16.1,1.69.27,1.4.47,2.54,1.5,3.16,2.82.16.17,3.57,6.31,7.11,12.72,3.76,6.79,7.66,13.88,7.97,14.42,0,0,0,0,0,0l-6.01,12.84Z"/>
        <path class="cls-14" d="m823.79,488.1c0,.05,0,.1,0,.16.08,3.26,2.75,5.88,6.03,5.88,1.17,0,2.25-.34,3.17-.91.69-.43,1.29-1,1.76-1.66l13.48-25.17c1.51,2.87,10.82,21.33,12.29,23.36,1.87,2.59,5.22,5.2,8.36,5.74,9.81,1.71,21.08-2.05,23.42-12.76.39-1.78.33-3.72-.53-5.32-.68-1.27-1.83-2.25-3.11-2.91-.93-.48-1.97-.81-3.02-.79-2.8.05-5.12,2.79-5.12,5.59,0,1.7.24,3.01-.98,4.36-1.1,1.22-2.72,1.92-4.34,2.02-4.79.3-6.36-4.26-5.14-6.97,4.93-10.95,27.93-53.68,27.93-53.68,1.55-2.93.43-6.57-2.5-8.12-2.93-1.55-6.57-.43-8.12,2.5,0,0-13.09,25.43-13.09,25.43-2.44-4.55-9.79-18.21-12.54-22.24-2.86-4.56-7.93-7.59-13.7-7.59-8.93,0-16.16,7.24-16.16,16.16,0,2.26.47,4.42,1.31,6.37.2.53.42,1.05.67,1.55,1.37,2.78,4.74,9.5,4.74,9.5,1.13,2.16,2.14,4.01,2.73,5.07l-16.88,31.71c-.41.82-.65,1.74-.65,2.72Zm38.22-18.84c-1.27-2.26-7.13-13.35-11.71-22.08-2.75-5.24-5.03-9.63-5.57-10.73-.24-.5-1.99-3.57-1.99-4.92,0-2.96,2.4-5.35,5.35-5.35.59,0,1.16.1,1.69.27,1.4.47,2.54,1.5,3.16,2.82.16.17,3.57,6.31,7.11,12.72,3.76,6.79,7.66,13.88,7.97,14.42,0,0,0,0,0,0l-6.01,12.84Z"/>
        <path class="cls-5" d="m368.56,499.91c0-.05,0-.1,0-.16-.08-3.26-2.75-5.88-6.03-5.88-1.17,0-2.25.34-3.17.91-.69.43-1.29,1-1.76,1.66l-13.48,25.17c-1.51-2.87-10.82-21.33-12.29-23.36-1.87-2.59-5.22-5.2-8.36-5.74-9.81-1.71-21.08,2.05-23.42,12.76-.39,1.78-.33,3.72.53,5.32.68,1.27,1.83,2.25,3.11,2.91.93.48,1.97.81,3.02.79,2.8-.05,5.12-2.79,5.12-5.59,0-1.7-.24-3.01.98-4.36,1.1-1.22,2.72-1.92,4.34-2.02,4.79-.3,6.36,4.26,5.14,6.97-4.93,10.95-27.93,53.68-27.93,53.68-1.55,2.93-.43,6.57,2.5,8.12,2.93,1.55,6.57.43,8.12-2.5,0,0,13.09-25.43,13.09-25.43,2.44,4.55,9.79,18.21,12.54,22.24,2.86,4.56,7.93,7.59,13.7,7.59,8.93,0,16.16-7.24,16.16-16.16,0-2.26-.47-4.42-1.31-6.37-.2-.53-.42-1.05-.67-1.55-1.37-2.78-4.74-9.5-4.74-9.5-1.13-2.16-2.14-4.01-2.73-5.07l16.88-31.71c.41-.82.65-1.74.65-2.72Zm-38.22,18.84c1.27,2.26,7.13,13.35,11.71,22.08,2.75,5.24,5.03,9.63,5.57,10.73.24.5,1.99,3.57,1.99,4.92,0,2.96-2.4,5.35-5.35,5.35-.59,0-1.16-.1-1.69-.27-1.4-.47-2.54-1.5-3.16-2.82-.16-.17-3.57-6.31-7.11-12.72-3.76-6.79-7.66-13.88-7.97-14.42,0,0,0,0,0,0l6.01-12.84Z"/>
        <path class="cls-5" d="m500.5,499.91c0-.05,0-.1,0-.16-.08-3.26-2.75-5.88-6.03-5.88-1.17,0-2.25.34-3.17.91-.69.43-1.29,1-1.76,1.66l-13.48,25.17c-1.51-2.87-10.82-21.33-12.29-23.36-1.87-2.59-5.22-5.2-8.36-5.74-9.81-1.71-21.08,2.05-23.42,12.76-.39,1.78-.33,3.72.53,5.32.68,1.27,1.83,2.25,3.11,2.91.93.48,1.97.81,3.02.79,2.8-.05,5.12-2.79,5.12-5.59,0-1.7-.24-3.01.98-4.36,1.1-1.22,2.72-1.92,4.34-2.02,4.79-.3,6.36,4.26,5.14,6.97-4.93,10.95-27.93,53.68-27.93,53.68-1.55,2.93-.43,6.57,2.5,8.12,2.93,1.55,6.57.43,8.12-2.5,0,0,13.09-25.43,13.09-25.43,2.44,4.55,9.79,18.21,12.54,22.24,2.86,4.56,7.93,7.59,13.7,7.59,8.93,0,16.16-7.24,16.16-16.16,0-2.26-.47-4.42-1.31-6.37-.2-.53-.42-1.05-.67-1.55-1.37-2.78-4.74-9.5-4.74-9.5-1.13-2.16-2.14-4.01-2.73-5.07l16.88-31.71c.41-.82.65-1.74.65-2.72Zm-38.22,18.84c1.27,2.26,7.13,13.35,11.71,22.08,2.75,5.24,5.03,9.63,5.57,10.73.24.5,1.99,3.57,1.99,4.92,0,2.96-2.4,5.35-5.35,5.35-.59,0-1.16-.1-1.69-.27-1.4-.47-2.54-1.5-3.16-2.82-.16-.17-3.57-6.31-7.11-12.72-3.76-6.79-7.66-13.88-7.97-14.42,0,0,0,0,0,0l6.01-12.84Z"/>
        <path class="cls-5" d="m632.54,499.91c0-.05,0-.1,0-.16-.08-3.26-2.75-5.88-6.03-5.88-1.17,0-2.25.34-3.17.91-.69.43-1.29,1-1.76,1.66l-13.48,25.17c-1.51-2.87-10.82-21.33-12.29-23.36-1.87-2.59-5.22-5.2-8.36-5.74-9.81-1.71-21.08,2.05-23.42,12.76-.39,1.78-.33,3.72.53,5.32.68,1.27,1.83,2.25,3.11,2.91.93.48,1.97.81,3.02.79,2.8-.05,5.12-2.79,5.12-5.59,0-1.7-.24-3.01.98-4.36,1.1-1.22,2.72-1.92,4.34-2.02,4.79-.3,6.36,4.26,5.14,6.97-4.93,10.95-27.93,53.68-27.93,53.68-1.55,2.93-.43,6.57,2.5,8.12,2.93,1.55,6.57.43,8.12-2.5,0,0,13.09-25.43,13.09-25.43,2.44,4.55,9.79,18.21,12.54,22.24,2.86,4.56,7.93,7.59,13.7,7.59,8.93,0,16.16-7.24,16.16-16.16,0-2.26-.47-4.42-1.31-6.37-.2-.53-.42-1.05-.67-1.55-1.37-2.78-4.74-9.5-4.74-9.5-1.13-2.16-2.14-4.01-2.73-5.07l16.88-31.71c.41-.82.65-1.74.65-2.72Zm-38.22,18.84c1.27,2.26,7.13,13.35,11.71,22.08,2.75,5.24,5.03,9.63,5.57,10.73.24.5,1.99,3.57,1.99,4.92,0,2.96-2.4,5.35-5.35,5.35-.59,0-1.16-.1-1.69-.27-1.4-.47-2.54-1.5-3.16-2.82-.16-.17-3.57-6.31-7.11-12.72-3.76-6.79-7.66-13.88-7.97-14.42,0,0,0,0,0,0l6.01-12.84Z"/>
        <path class="cls-5" d="m764.71,499.91c0-.05,0-.1,0-.16-.08-3.26-2.75-5.88-6.03-5.88-1.17,0-2.25.34-3.17.91-.69.43-1.29,1-1.76,1.66l-13.48,25.17c-1.51-2.87-10.82-21.33-12.29-23.36-1.87-2.59-5.22-5.2-8.36-5.74-9.81-1.71-21.08,2.05-23.42,12.76-.39,1.78-.33,3.72.53,5.32.68,1.27,1.83,2.25,3.11,2.91.93.48,1.97.81,3.02.79,2.8-.05,5.12-2.79,5.12-5.59,0-1.7-.24-3.01.98-4.36,1.1-1.22,2.72-1.92,4.34-2.02,4.79-.3,6.36,4.26,5.14,6.97-4.93,10.95-27.93,53.68-27.93,53.68-1.55,2.93-.43,6.57,2.5,8.12,2.93,1.55,6.57.43,8.12-2.5,0,0,13.09-25.43,13.09-25.43,2.44,4.55,9.79,18.21,12.54,22.24,2.86,4.56,7.93,7.59,13.7,7.59,8.93,0,16.16-7.24,16.16-16.16,0-2.26-.47-4.42-1.31-6.37-.2-.53-.42-1.05-.67-1.55-1.37-2.78-4.74-9.5-4.74-9.5-1.13-2.16-2.14-4.01-2.73-5.07l16.88-31.71c.41-.82.65-1.74.65-2.72Zm-38.22,18.84c1.27,2.26,7.13,13.35,11.71,22.08,2.75,5.24,5.03,9.63,5.57,10.73.24.5,1.99,3.57,1.99,4.92,0,2.96-2.4,5.35-5.35,5.35-.59,0-1.16-.1-1.69-.27-1.4-.47-2.54-1.5-3.16-2.82-.16-.17-3.57-6.31-7.11-12.72-3.76-6.79-7.66-13.88-7.97-14.42,0,0,0,0,0,0l6.01-12.84Z"/>
        <path class="cls-5" d="m897.02,499.91c0-.05,0-.1,0-.16-.08-3.26-2.75-5.88-6.03-5.88-1.17,0-2.25.34-3.17.91-.69.43-1.29,1-1.76,1.66l-13.48,25.17c-1.51-2.87-10.82-21.33-12.29-23.36-1.87-2.59-5.22-5.2-8.36-5.74-9.81-1.71-21.08,2.05-23.42,12.76-.39,1.78-.33,3.72.53,5.32.68,1.27,1.83,2.25,3.11,2.91.93.48,1.97.81,3.02.79,2.8-.05,5.12-2.79,5.12-5.59,0-1.7-.24-3.01.98-4.36,1.1-1.22,2.72-1.92,4.34-2.02,4.79-.3,6.36,4.26,5.14,6.97-4.93,10.95-27.93,53.68-27.93,53.68-1.55,2.93-.43,6.57,2.5,8.12,2.93,1.55,6.57.43,8.12-2.5,0,0,13.09-25.43,13.09-25.43,2.44,4.55,9.79,18.21,12.54,22.24,2.86,4.56,7.93,7.59,13.7,7.59,8.93,0,16.16-7.24,16.16-16.16,0-2.26-.47-4.42-1.31-6.37-.2-.53-.42-1.05-.67-1.55-1.37-2.78-4.74-9.5-4.74-9.5-1.13-2.16-2.14-4.01-2.73-5.07l16.88-31.71c.41-.82.65-1.74.65-2.72Zm-38.22,18.84c1.27,2.26,7.13,13.35,11.71,22.08,2.75,5.24,5.03,9.63,5.57,10.73.24.5,1.99,3.57,1.99,4.92,0,2.96-2.4,5.35-5.35,5.35-.59,0-1.16-.1-1.69-.27-1.4-.47-2.54-1.5-3.16-2.82-.16-.17-3.57-6.31-7.11-12.72-3.76-6.79-7.66-13.88-7.97-14.42,0,0,0,0,0,0l6.01-12.84Z"/>
        <path class="cls-14" d="m226.67,565.19c0,.05,0,.1,0,.16.08,3.26,2.75,5.88,6.03,5.88,1.17,0,2.25-.34,3.17-.91.69-.43,1.29-1,1.76-1.66l13.48-25.17c1.51,2.87,10.82,21.33,12.29,23.36,1.87,2.59,5.22,5.2,8.36,5.74,9.81,1.71,21.08-2.05,23.42-12.76.39-1.78.33-3.72-.53-5.32-.68-1.27-1.83-2.25-3.11-2.91-.93-.48-1.97-.81-3.02-.79-2.8.05-5.12,2.79-5.12,5.59,0,1.7.24,3.01-.98,4.36-1.1,1.22-2.72,1.92-4.34,2.02-4.79.3-6.36-4.26-5.14-6.97,4.93-10.95,27.93-53.68,27.93-53.68,1.55-2.93.43-6.57-2.5-8.12-2.93-1.55-6.57-.43-8.12,2.5,0,0-13.09,25.43-13.09,25.43-2.44-4.55-9.79-18.21-12.54-22.24-2.86-4.56-7.93-7.59-13.7-7.59-8.93,0-16.16,7.24-16.16,16.16,0,2.26.47,4.42,1.31,6.37.2.53.42,1.05.67,1.55,1.37,2.78,4.74,9.5,4.74,9.5,1.13,2.16,2.14,4.01,2.73,5.07l-16.88,31.71c-.41.82-.65,1.74-.65,2.72Zm38.22-18.84c-1.27-2.26-7.13-13.35-11.71-22.08-2.75-5.24-5.03-9.63-5.57-10.73-.24-.5-1.99-3.57-1.99-4.92,0-2.96,2.4-5.35,5.35-5.35.59,0,1.16.1,1.69.27,1.4.47,2.54,1.5,3.16,2.82.16.17,3.57,6.31,7.11,12.72,3.76,6.79,7.66,13.88,7.97,14.42,0,0,0,0,0,0l-6.01,12.84Z"/>
        <path class="cls-14" d="m358.82,565.19c0,.05,0,.1,0,.16.08,3.26,2.75,5.88,6.03,5.88,1.17,0,2.25-.34,3.17-.91.69-.43,1.29-1,1.76-1.66l13.48-25.17c1.51,2.87,10.82,21.33,12.29,23.36,1.87,2.59,5.22,5.2,8.36,5.74,9.81,1.71,21.08-2.05,23.42-12.76.39-1.78.33-3.72-.53-5.32-.68-1.27-1.83-2.25-3.11-2.91-.93-.48-1.97-.81-3.02-.79-2.8.05-5.12,2.79-5.12,5.59,0,1.7.24,3.01-.98,4.36-1.1,1.22-2.72,1.92-4.34,2.02-4.79.3-6.36-4.26-5.14-6.97,4.93-10.95,27.93-53.68,27.93-53.68,1.55-2.93.43-6.57-2.5-8.12-2.93-1.55-6.57-.43-8.12,2.5,0,0-13.09,25.43-13.09,25.43-2.44-4.55-9.79-18.21-12.54-22.24-2.86-4.56-7.93-7.59-13.7-7.59-8.93,0-16.16,7.24-16.16,16.16,0,2.26.47,4.42,1.31,6.37.2.53.42,1.05.67,1.55,1.37,2.78,4.74,9.5,4.74,9.5,1.13,2.16,2.14,4.01,2.73,5.07l-16.88,31.71c-.41.82-.65,1.74-.65,2.72Zm38.22-18.84c-1.27-2.26-7.13-13.35-11.71-22.08-2.75-5.24-5.03-9.63-5.57-10.73-.24-.5-1.99-3.57-1.99-4.92,0-2.96,2.4-5.35,5.35-5.35.59,0,1.16.1,1.69.27,1.4.47,2.54,1.5,3.16,2.82.16.17,3.57,6.31,7.11,12.72,3.76,6.79,7.66,13.88,7.97,14.42,0,0,0,0,0,0l-6.01,12.84Z"/>
        <path class="cls-14" d="m490.82,565.19c0,.05,0,.1,0,.16.08,3.26,2.75,5.88,6.03,5.88,1.17,0,2.25-.34,3.17-.91.69-.43,1.29-1,1.76-1.66l13.48-25.17c1.51,2.87,10.82,21.33,12.29,23.36,1.87,2.59,5.22,5.2,8.36,5.74,9.81,1.71,21.08-2.05,23.42-12.76.39-1.78.33-3.72-.53-5.32-.68-1.27-1.83-2.25-3.11-2.91-.93-.48-1.97-.81-3.02-.79-2.8.05-5.12,2.79-5.12,5.59,0,1.7.24,3.01-.98,4.36-1.1,1.22-2.72,1.92-4.34,2.02-4.79.3-6.36-4.26-5.14-6.97,4.93-10.95,27.93-53.68,27.93-53.68,1.55-2.93.43-6.57-2.5-8.12-2.93-1.55-6.57-.43-8.12,2.5,0,0-13.09,25.43-13.09,25.43-2.44-4.55-9.79-18.21-12.54-22.24-2.86-4.56-7.93-7.59-13.7-7.59-8.93,0-16.16,7.24-16.16,16.16,0,2.26.47,4.42,1.31,6.37.2.53.42,1.05.67,1.55,1.37,2.78,4.74,9.5,4.74,9.5,1.13,2.16,2.14,4.01,2.73,5.07l-16.88,31.71c-.41.82-.65,1.74-.65,2.72Zm38.22-18.84c-1.27-2.26-7.13-13.35-11.71-22.08-2.75-5.24-5.03-9.63-5.57-10.73-.24-.5-1.99-3.57-1.99-4.92,0-2.96,2.4-5.35,5.35-5.35.59,0,1.16.1,1.69.27,1.4.47,2.54,1.5,3.16,2.82.16.17,3.57,6.31,7.11,12.72,3.76,6.79,7.66,13.88,7.97,14.42,0,0,0,0,0,0l-6.01,12.84Z"/>
        <path class="cls-14" d="m622.98,565.19c0,.05,0,.1,0,.16.08,3.26,2.75,5.88,6.03,5.88,1.17,0,2.25-.34,3.17-.91.69-.43,1.29-1,1.76-1.66l13.48-25.17c1.51,2.87,10.82,21.33,12.29,23.36,1.87,2.59,5.22,5.2,8.36,5.74,9.81,1.71,21.08-2.05,23.42-12.76.39-1.78.33-3.72-.53-5.32-.68-1.27-1.83-2.25-3.11-2.91-.93-.48-1.97-.81-3.02-.79-2.8.05-5.12,2.79-5.12,5.59,0,1.7.24,3.01-.98,4.36-1.1,1.22-2.72,1.92-4.34,2.02-4.79.3-6.36-4.26-5.14-6.97,4.93-10.95,27.93-53.68,27.93-53.68,1.55-2.93.43-6.57-2.5-8.12-2.93-1.55-6.57-.43-8.12,2.5,0,0-13.09,25.43-13.09,25.43-2.44-4.55-9.79-18.21-12.54-22.24-2.86-4.56-7.93-7.59-13.7-7.59-8.93,0-16.16,7.24-16.16,16.16,0,2.26.47,4.42,1.31,6.37.2.53.42,1.05.67,1.55,1.37,2.78,4.74,9.5,4.74,9.5,1.13,2.16,2.14,4.01,2.73,5.07l-16.88,31.71c-.41.82-.65,1.74-.65,2.72Zm38.22-18.84c-1.27-2.26-7.13-13.35-11.71-22.08-2.75-5.24-5.03-9.63-5.57-10.73-.24-.5-1.99-3.57-1.99-4.92,0-2.96,2.4-5.35,5.35-5.35.59,0,1.16.1,1.69.27,1.4.47,2.54,1.5,3.16,2.82.16.17,3.57,6.31,7.11,12.72,3.76,6.79,7.66,13.88,7.97,14.42,0,0,0,0,0,0l-6.01,12.84Z"/>
        <path class="cls-14" d="m755.3,565.19c0,.05,0,.1,0,.16.08,3.26,2.75,5.88,6.03,5.88,1.17,0,2.25-.34,3.17-.91.69-.43,1.29-1,1.76-1.66l13.48-25.17c1.51,2.87,10.82,21.33,12.29,23.36,1.87,2.59,5.22,5.2,8.36,5.74,9.81,1.71,21.08-2.05,23.42-12.76.39-1.78.33-3.72-.53-5.32-.68-1.27-1.83-2.25-3.11-2.91-.93-.48-1.97-.81-3.02-.79-2.8.05-5.12,2.79-5.12,5.59,0,1.7.24,3.01-.98,4.36-1.1,1.22-2.72,1.92-4.34,2.02-4.79.3-6.36-4.26-5.14-6.97,4.93-10.95,27.93-53.68,27.93-53.68,1.55-2.93.43-6.57-2.5-8.12-2.93-1.55-6.57-.43-8.12,2.5,0,0-13.09,25.43-13.09,25.43-2.44-4.55-9.79-18.21-12.54-22.24-2.86-4.56-7.93-7.59-13.7-7.59-8.93,0-16.16,7.24-16.16,16.16,0,2.26.47,4.42,1.31,6.37.2.53.42,1.05.67,1.55,1.37,2.78,4.74,9.5,4.74,9.5,1.13,2.16,2.14,4.01,2.73,5.07l-16.88,31.71c-.41.82-.65,1.74-.65,2.72Zm38.22-18.84c-1.27-2.26-7.13-13.35-11.71-22.08-2.75-5.24-5.03-9.63-5.57-10.73-.24-.5-1.99-3.57-1.99-4.92,0-2.96,2.4-5.35,5.35-5.35.59,0,1.16.1,1.69.27,1.4.47,2.54,1.5,3.16,2.82.16.17,3.57,6.31,7.11,12.72,3.76,6.79,7.66,13.88,7.97,14.42,0,0,0,0,0,0l-6.01,12.84Z"/>
        <path class="cls-14" d="m887.33,565.14c0,.05,0,.1,0,.16.08,3.26,2.75,5.88,6.03,5.88,1.17,0,2.25-.34,3.17-.91.69-.43,1.29-1,1.76-1.66l13.48-25.17c1.51,2.87,10.82,21.33,12.29,23.36,1.87,2.59,5.22,5.2,8.36,5.74,9.81,1.71,21.08-2.05,23.42-12.76.39-1.78.33-3.72-.53-5.32-.68-1.27-1.83-2.25-3.11-2.91-.93-.48-1.97-.81-3.02-.79-2.8.05-5.12,2.79-5.12,5.59,0,1.7.24,3.01-.98,4.36-1.1,1.22-2.72,1.92-4.34,2.02-4.79.3-6.36-4.26-5.14-6.97,4.93-10.95,27.93-53.68,27.93-53.68,1.55-2.93.43-6.57-2.5-8.12-2.93-1.55-6.57-.43-8.12,2.5,0,0-13.09,25.43-13.09,25.43-2.44-4.55-9.79-18.21-12.54-22.24-2.86-4.56-7.93-7.59-13.7-7.59-8.93,0-16.16,7.24-16.16,16.16,0,2.26.47,4.42,1.31,6.37.2.53.42,1.05.67,1.55,1.37,2.78,4.74,9.5,4.74,9.5,1.13,2.16,2.14,4.01,2.73,5.07l-16.88,31.71c-.41.82-.65,1.74-.65,2.72Zm38.22-18.84c-1.27-2.26-7.13-13.35-11.71-22.08-2.75-5.24-5.03-9.63-5.57-10.73-.24-.5-1.99-3.57-1.99-4.92,0-2.96,2.4-5.35,5.35-5.35.59,0,1.16.1,1.69.27,1.4.47,2.54,1.5,3.16,2.82.16.17,3.57,6.31,7.11,12.72,3.76,6.79,7.66,13.88,7.97,14.42,0,0,0,0,0,0l-6.01,12.84Z"/>
        <path class="cls-5" d="m301.58,576.87c0-.05,0-.1,0-.16-.08-3.26-2.75-5.88-6.03-5.88-1.17,0-2.25.34-3.17.91-.69.43-1.29,1-1.76,1.66l-13.48,25.17c-1.51-2.87-10.82-21.33-12.29-23.36-1.87-2.59-5.22-5.2-8.36-5.74-9.81-1.71-21.08,2.05-23.42,12.76-.39,1.78-.33,3.72.53,5.32.68,1.27,1.83,2.25,3.11,2.91.93.48,1.97.81,3.02.79,2.8-.05,5.12-2.79,5.12-5.59,0-1.7-.24-3.01.98-4.36,1.1-1.22,2.72-1.92,4.34-2.02,4.79-.3,6.36,4.26,5.14,6.97-4.93,10.95-27.93,53.68-27.93,53.68-1.55,2.93-.43,6.57,2.5,8.12,2.93,1.55,6.57.43,8.12-2.5,0,0,13.09-25.43,13.09-25.43,2.44,4.55,9.79,18.21,12.54,22.24,2.86,4.56,7.93,7.59,13.7,7.59,8.93,0,16.16-7.24,16.16-16.16,0-2.26-.47-4.42-1.31-6.37-.2-.53-.42-1.05-.67-1.55-1.37-2.78-4.74-9.5-4.74-9.5-1.13-2.16-2.14-4.01-2.73-5.07l16.88-31.71c.41-.82.65-1.74.65-2.72Zm-38.22,18.84c1.27,2.26,7.13,13.35,11.71,22.08,2.75,5.24,5.03,9.63,5.57,10.73.24.5,1.99,3.57,1.99,4.92,0,2.96-2.4,5.35-5.35,5.35-.59,0-1.16-.1-1.69-.27-1.4-.47-2.54-1.5-3.16-2.82-.16-.17-3.57-6.31-7.11-12.72-3.76-6.79-7.66-13.88-7.97-14.42,0,0,0,0,0,0l6.01-12.84Z"/>
        <path class="cls-5" d="m433.85,576.87c0-.05,0-.1,0-.16-.08-3.26-2.75-5.88-6.03-5.88-1.17,0-2.25.34-3.17.91-.69.43-1.29,1-1.76,1.66l-13.48,25.17c-1.51-2.87-10.82-21.33-12.29-23.36-1.87-2.59-5.22-5.2-8.36-5.74-9.81-1.71-21.08,2.05-23.42,12.76-.39,1.78-.33,3.72.53,5.32.68,1.27,1.83,2.25,3.11,2.91.93.48,1.97.81,3.02.79,2.8-.05,5.12-2.79,5.12-5.59,0-1.7-.24-3.01.98-4.36,1.1-1.22,2.72-1.92,4.34-2.02,4.79-.3,6.36,4.26,5.14,6.97-4.93,10.95-27.93,53.68-27.93,53.68-1.55,2.93-.43,6.57,2.5,8.12,2.93,1.55,6.57.43,8.12-2.5,0,0,13.09-25.43,13.09-25.43,2.44,4.55,9.79,18.21,12.54,22.24,2.86,4.56,7.93,7.59,13.7,7.59,8.93,0,16.16-7.24,16.16-16.16,0-2.26-.47-4.42-1.31-6.37-.2-.53-.42-1.05-.67-1.55-1.37-2.78-4.74-9.5-4.74-9.5-1.13-2.16-2.14-4.01-2.73-5.07l16.88-31.71c.41-.82.65-1.74.65-2.72Zm-38.22,18.84c1.27,2.26,7.13,13.35,11.71,22.08,2.75,5.24,5.03,9.63,5.57,10.73.24.5,1.99,3.57,1.99,4.92,0,2.96-2.4,5.35-5.35,5.35-.59,0-1.16-.1-1.69-.27-1.4-.47-2.54-1.5-3.16-2.82-.16-.17-3.57-6.31-7.11-12.72-3.76-6.79-7.66-13.88-7.97-14.42,0,0,0,0,0,0l6.01-12.84Z"/>
        <path class="cls-5" d="m565.79,576.87c0-.05,0-.1,0-.16-.08-3.26-2.75-5.88-6.03-5.88-1.17,0-2.25.34-3.17.91-.69.43-1.29,1-1.76,1.66l-13.48,25.17c-1.51-2.87-10.82-21.33-12.29-23.36-1.87-2.59-5.22-5.2-8.36-5.74-9.81-1.71-21.08,2.05-23.42,12.76-.39,1.78-.33,3.72.53,5.32.68,1.27,1.83,2.25,3.11,2.91.93.48,1.97.81,3.02.79,2.8-.05,5.12-2.79,5.12-5.59,0-1.7-.24-3.01.98-4.36,1.1-1.22,2.72-1.92,4.34-2.02,4.79-.3,6.36,4.26,5.14,6.97-4.93,10.95-27.93,53.68-27.93,53.68-1.55,2.93-.43,6.57,2.5,8.12,2.93,1.55,6.57.43,8.12-2.5,0,0,13.09-25.43,13.09-25.43,2.44,4.55,9.79,18.21,12.54,22.24,2.86,4.56,7.93,7.59,13.7,7.59,8.93,0,16.16-7.24,16.16-16.16,0-2.26-.47-4.42-1.31-6.37-.2-.53-.42-1.05-.67-1.55-1.37-2.78-4.74-9.5-4.74-9.5-1.13-2.16-2.14-4.01-2.73-5.07l16.88-31.71c.41-.82.65-1.74.65-2.72Zm-38.22,18.84c1.27,2.26,7.13,13.35,11.71,22.08,2.75,5.24,5.03,9.63,5.57,10.73.24.5,1.99,3.57,1.99,4.92,0,2.96-2.4,5.35-5.35,5.35-.59,0-1.16-.1-1.69-.27-1.4-.47-2.54-1.5-3.16-2.82-.16-.17-3.57-6.31-7.11-12.72-3.76-6.79-7.66-13.88-7.97-14.42,0,0,0,0,0,0l6.01-12.84Z"/>
        <path class="cls-5" d="m697.84,576.87c0-.05,0-.1,0-.16-.08-3.26-2.75-5.88-6.03-5.88-1.17,0-2.25.34-3.17.91-.69.43-1.29,1-1.76,1.66l-13.48,25.17c-1.51-2.87-10.82-21.33-12.29-23.36-1.87-2.59-5.22-5.2-8.36-5.74-9.81-1.71-21.08,2.05-23.42,12.76-.39,1.78-.33,3.72.53,5.32.68,1.27,1.83,2.25,3.11,2.91.93.48,1.97.81,3.02.79,2.8-.05,5.12-2.79,5.12-5.59,0-1.7-.24-3.01.98-4.36,1.1-1.22,2.72-1.92,4.34-2.02,4.79-.3,6.36,4.26,5.14,6.97-4.93,10.95-27.93,53.68-27.93,53.68-1.55,2.93-.43,6.57,2.5,8.12,2.93,1.55,6.57.43,8.12-2.5,0,0,13.09-25.43,13.09-25.43,2.44,4.55,9.79,18.21,12.54,22.24,2.86,4.56,7.93,7.59,13.7,7.59,8.93,0,16.16-7.24,16.16-16.16,0-2.26-.47-4.42-1.31-6.37-.2-.53-.42-1.05-.67-1.55-1.37-2.78-4.74-9.5-4.74-9.5-1.13-2.16-2.14-4.01-2.73-5.07l16.88-31.71c.41-.82.65-1.74.65-2.72Zm-38.22,18.84c1.27,2.26,7.13,13.35,11.71,22.08,2.75,5.24,5.03,9.63,5.57,10.73.24.5,1.99,3.57,1.99,4.92,0,2.96-2.4,5.35-5.35,5.35-.59,0-1.16-.1-1.69-.27-1.4-.47-2.54-1.5-3.16-2.82-.16-.17-3.57-6.31-7.11-12.72-3.76-6.79-7.66-13.88-7.97-14.42,0,0,0,0,0,0l6.01-12.84Z"/>
        <path class="cls-5" d="m830,576.87c0-.05,0-.1,0-.16-.08-3.26-2.75-5.88-6.03-5.88-1.17,0-2.25.34-3.17.91-.69.43-1.29,1-1.76,1.66l-13.48,25.17c-1.51-2.87-10.82-21.33-12.29-23.36-1.87-2.59-5.22-5.2-8.36-5.74-9.81-1.71-21.08,2.05-23.42,12.76-.39,1.78-.33,3.72.53,5.32.68,1.27,1.83,2.25,3.11,2.91.93.48,1.97.81,3.02.79,2.8-.05,5.12-2.79,5.12-5.59,0-1.7-.24-3.01.98-4.36,1.1-1.22,2.72-1.92,4.34-2.02,4.79-.3,6.36,4.26,5.14,6.97-4.93,10.95-27.93,53.68-27.93,53.68-1.55,2.93-.43,6.57,2.5,8.12,2.93,1.55,6.57.43,8.12-2.5,0,0,13.09-25.43,13.09-25.43,2.44,4.55,9.79,18.21,12.54,22.24,2.86,4.56,7.93,7.59,13.7,7.59,8.93,0,16.16-7.24,16.16-16.16,0-2.26-.47-4.42-1.31-6.37-.2-.53-.42-1.05-.67-1.55-1.37-2.78-4.74-9.5-4.74-9.5-1.13-2.16-2.14-4.01-2.73-5.07l16.88-31.71c.41-.82.65-1.74.65-2.72Zm-38.22,18.84c1.27,2.26,7.13,13.35,11.71,22.08,2.75,5.24,5.03,9.63,5.57,10.73.24.5,1.99,3.57,1.99,4.92,0,2.96-2.4,5.35-5.35,5.35-.59,0-1.16-.1-1.69-.27-1.4-.47-2.54-1.5-3.16-2.82-.16-.17-3.57-6.31-7.11-12.72-3.76-6.79-7.66-13.88-7.97-14.42,0,0,0,0,0,0l6.01-12.84Z"/>
        <path class="cls-5" d="m962.31,576.87c0-.05,0-.1,0-.16-.08-3.26-2.75-5.88-6.03-5.88-1.17,0-2.25.34-3.17.91-.69.43-1.29,1-1.76,1.66l-13.48,25.17c-1.51-2.87-10.82-21.33-12.29-23.36-1.87-2.59-5.22-5.2-8.36-5.74-9.81-1.71-21.08,2.05-23.42,12.76-.39,1.78-.33,3.72.53,5.32.68,1.27,1.83,2.25,3.11,2.91.93.48,1.97.81,3.02.79,2.8-.05,5.12-2.79,5.12-5.59,0-1.7-.24-3.01.98-4.36,1.1-1.22,2.72-1.92,4.34-2.02,4.79-.3,6.36,4.26,5.14,6.97-4.93,10.95-27.93,53.68-27.93,53.68-1.55,2.93-.43,6.57,2.5,8.12,2.93,1.55,6.57.43,8.12-2.5,0,0,13.09-25.43,13.09-25.43,2.44,4.55,9.79,18.21,12.54,22.24,2.86,4.56,7.93,7.59,13.7,7.59,8.93,0,16.16-7.24,16.16-16.16,0-2.26-.47-4.42-1.31-6.37-.2-.53-.42-1.05-.67-1.55-1.37-2.78-4.74-9.5-4.74-9.5-1.13-2.16-2.14-4.01-2.73-5.07l16.88-31.71c.41-.82.65-1.74.65-2.72Zm-38.22,18.84c1.27,2.26,7.13,13.35,11.71,22.08,2.75,5.24,5.03,9.63,5.57,10.73.24.5,1.99,3.57,1.99,4.92,0,2.96-2.4,5.35-5.35,5.35-.59,0-1.16-.1-1.69-.27-1.4-.47-2.54-1.5-3.16-2.82-.16-.17-3.57-6.31-7.11-12.72-3.76-6.79-7.66-13.88-7.97-14.42,0,0,0,0,0,0l6.01-12.84Z"/>
        <path class="cls-14" d="m291.96,642.14c0,.05,0,.1,0,.16.08,3.26,2.75,5.88,6.03,5.88,1.17,0,2.25-.34,3.17-.91.69-.43,1.29-1,1.76-1.66l13.48-25.17c1.51,2.87,10.82,21.33,12.29,23.36,1.87,2.59,5.22,5.2,8.36,5.74,9.81,1.71,21.08-2.05,23.42-12.76.39-1.78.33-3.72-.53-5.32-.68-1.27-1.83-2.25-3.11-2.91-.93-.48-1.97-.81-3.02-.79-2.8.05-5.12,2.79-5.12,5.59,0,1.7.24,3.01-.98,4.36-1.1,1.22-2.72,1.92-4.34,2.02-4.79.3-6.36-4.26-5.14-6.97,4.93-10.95,27.93-53.68,27.93-53.68,1.55-2.93.43-6.57-2.5-8.12-2.93-1.55-6.57-.43-8.12,2.5,0,0-13.09,25.43-13.09,25.43-2.44-4.55-9.79-18.21-12.54-22.24-2.86-4.56-7.93-7.59-13.7-7.59-8.93,0-16.16,7.24-16.16,16.16,0,2.26.47,4.42,1.31,6.37.2.53.42,1.05.67,1.55,1.37,2.78,4.74,9.5,4.74,9.5,1.13,2.16,2.14,4.01,2.73,5.07l-16.88,31.71c-.41.82-.65,1.74-.65,2.72Zm38.22-18.84c-1.27-2.26-7.13-13.35-11.71-22.08-2.75-5.24-5.03-9.63-5.57-10.73-.24-.5-1.99-3.57-1.99-4.92,0-2.96,2.4-5.35,5.35-5.35.59,0,1.16.1,1.69.27,1.4.47,2.54,1.5,3.16,2.82.16.17,3.57,6.31,7.11,12.72,3.76,6.79,7.66,13.88,7.97,14.42,0,0,0,0,0,0l-6.01,12.84Z"/>
        <path class="cls-14" d="m424.12,642.14c0,.05,0,.1,0,.16.08,3.26,2.75,5.88,6.03,5.88,1.17,0,2.25-.34,3.17-.91.69-.43,1.29-1,1.76-1.66l13.48-25.17c1.51,2.87,10.82,21.33,12.29,23.36,1.87,2.59,5.22,5.2,8.36,5.74,9.81,1.71,21.08-2.05,23.42-12.76.39-1.78.33-3.72-.53-5.32-.68-1.27-1.83-2.25-3.11-2.91-.93-.48-1.97-.81-3.02-.79-2.8.05-5.12,2.79-5.12,5.59,0,1.7.24,3.01-.98,4.36-1.1,1.22-2.72,1.92-4.34,2.02-4.79.3-6.36-4.26-5.14-6.97,4.93-10.95,27.93-53.68,27.93-53.68,1.55-2.93.43-6.57-2.5-8.12-2.93-1.55-6.57-.43-8.12,2.5,0,0-13.09,25.43-13.09,25.43-2.44-4.55-9.79-18.21-12.54-22.24-2.86-4.56-7.93-7.59-13.7-7.59-8.93,0-16.16,7.24-16.16,16.16,0,2.26.47,4.42,1.31,6.37.2.53.42,1.05.67,1.55,1.37,2.78,4.74,9.5,4.74,9.5,1.13,2.16,2.14,4.01,2.73,5.07l-16.88,31.71c-.41.82-.65,1.74-.65,2.72Zm38.22-18.84c-1.27-2.26-7.13-13.35-11.71-22.08-2.75-5.24-5.03-9.63-5.57-10.73-.24-.5-1.99-3.57-1.99-4.92,0-2.96,2.4-5.35,5.35-5.35.59,0,1.16.1,1.69.27,1.4.47,2.54,1.5,3.16,2.82.16.17,3.57,6.31,7.11,12.72,3.76,6.79,7.66,13.88,7.97,14.42,0,0,0,0,0,0l-6.01,12.84Z"/>
        <path class="cls-14" d="m556.12,642.14c0,.05,0,.1,0,.16.08,3.26,2.75,5.88,6.03,5.88,1.17,0,2.25-.34,3.17-.91.69-.43,1.29-1,1.76-1.66l13.48-25.17c1.51,2.87,10.82,21.33,12.29,23.36,1.87,2.59,5.22,5.2,8.36,5.74,9.81,1.71,21.08-2.05,23.42-12.76.39-1.78.33-3.72-.53-5.32-.68-1.27-1.83-2.25-3.11-2.91-.93-.48-1.97-.81-3.02-.79-2.8.05-5.12,2.79-5.12,5.59,0,1.7.24,3.01-.98,4.36-1.1,1.22-2.72,1.92-4.34,2.02-4.79.3-6.36-4.26-5.14-6.97,4.93-10.95,27.93-53.68,27.93-53.68,1.55-2.93.43-6.57-2.5-8.12-2.93-1.55-6.57-.43-8.12,2.5,0,0-13.09,25.43-13.09,25.43-2.44-4.55-9.79-18.21-12.54-22.24-2.86-4.56-7.93-7.59-13.7-7.59-8.93,0-16.16,7.24-16.16,16.16,0,2.26.47,4.42,1.31,6.37.2.53.42,1.05.67,1.55,1.37,2.78,4.74,9.5,4.74,9.5,1.13,2.16,2.14,4.01,2.73,5.07l-16.88,31.71c-.41.82-.65,1.74-.65,2.72Zm38.22-18.84c-1.27-2.26-7.13-13.35-11.71-22.08-2.75-5.24-5.03-9.63-5.57-10.73-.24-.5-1.99-3.57-1.99-4.92,0-2.96,2.4-5.35,5.35-5.35.59,0,1.16.1,1.69.27,1.4.47,2.54,1.5,3.16,2.82.16.17,3.57,6.31,7.11,12.72,3.76,6.79,7.66,13.88,7.97,14.42,0,0,0,0,0,0l-6.01,12.84Z"/>
        <path class="cls-14" d="m688.28,642.14c0,.05,0,.1,0,.16.08,3.26,2.75,5.88,6.03,5.88,1.17,0,2.25-.34,3.17-.91.69-.43,1.29-1,1.76-1.66l13.48-25.17c1.51,2.87,10.82,21.33,12.29,23.36,1.87,2.59,5.22,5.2,8.36,5.74,9.81,1.71,21.08-2.05,23.42-12.76.39-1.78.33-3.72-.53-5.32-.68-1.27-1.83-2.25-3.11-2.91-.93-.48-1.97-.81-3.02-.79-2.8.05-5.12,2.79-5.12,5.59,0,1.7.24,3.01-.98,4.36-1.1,1.22-2.72,1.92-4.34,2.02-4.79.3-6.36-4.26-5.14-6.97,4.93-10.95,27.93-53.68,27.93-53.68,1.55-2.93.43-6.57-2.5-8.12-2.93-1.55-6.57-.43-8.12,2.5,0,0-13.09,25.43-13.09,25.43-2.44-4.55-9.79-18.21-12.54-22.24-2.86-4.56-7.93-7.59-13.7-7.59-8.93,0-16.16,7.24-16.16,16.16,0,2.26.47,4.42,1.31,6.37.2.53.42,1.05.67,1.55,1.37,2.78,4.74,9.5,4.74,9.5,1.13,2.16,2.14,4.01,2.73,5.07l-16.88,31.71c-.41.82-.65,1.74-.65,2.72Zm38.22-18.84c-1.27-2.26-7.13-13.35-11.71-22.08-2.75-5.24-5.03-9.63-5.57-10.73-.24-.5-1.99-3.57-1.99-4.92,0-2.96,2.4-5.35,5.35-5.35.59,0,1.16.1,1.69.27,1.4.47,2.54,1.5,3.16,2.82.16.17,3.57,6.31,7.11,12.72,3.76,6.79,7.66,13.88,7.97,14.42,0,0,0,0,0,0l-6.01,12.84Z"/>
        <path class="cls-14" d="m820.6,642.14c0,.05,0,.1,0,.16.08,3.26,2.75,5.88,6.03,5.88,1.17,0,2.25-.34,3.17-.91.69-.43,1.29-1,1.76-1.66l13.48-25.17c1.51,2.87,10.82,21.33,12.29,23.36,1.87,2.59,5.22,5.2,8.36,5.74,9.81,1.71,21.08-2.05,23.42-12.76.39-1.78.33-3.72-.53-5.32-.68-1.27-1.83-2.25-3.11-2.91-.93-.48-1.97-.81-3.02-.79-2.8.05-5.12,2.79-5.12,5.59,0,1.7.24,3.01-.98,4.36-1.1,1.22-2.72,1.92-4.34,2.02-4.79.3-6.36-4.26-5.14-6.97,4.93-10.95,27.93-53.68,27.93-53.68,1.55-2.93.43-6.57-2.5-8.12-2.93-1.55-6.57-.43-8.12,2.5,0,0-13.09,25.43-13.09,25.43-2.44-4.55-9.79-18.21-12.54-22.24-2.86-4.56-7.93-7.59-13.7-7.59-8.93,0-16.16,7.24-16.16,16.16,0,2.26.47,4.42,1.31,6.37.2.53.42,1.05.67,1.55,1.37,2.78,4.74,9.5,4.74,9.5,1.13,2.16,2.14,4.01,2.73,5.07l-16.88,31.71c-.41.82-.65,1.74-.65,2.72Zm38.22-18.84c-1.27-2.26-7.13-13.35-11.71-22.08-2.75-5.24-5.03-9.63-5.57-10.73-.24-.5-1.99-3.57-1.99-4.92,0-2.96,2.4-5.35,5.35-5.35.59,0,1.16.1,1.69.27,1.4.47,2.54,1.5,3.16,2.82.16.17,3.57,6.31,7.11,12.72,3.76,6.79,7.66,13.88,7.97,14.42,0,0,0,0,0,0l-6.01,12.84Z"/>
      </g>
      <g>
        <path class="cls-15" d="m369.99,338.83c0-.05,0-.1,0-.16-.08-3.26-2.75-5.88-6.03-5.88-1.17,0-2.25.34-3.17.91-.69.43-1.29,1-1.76,1.66l-13.48,25.17c-1.51-2.87-10.82-21.33-12.29-23.36-1.87-2.59-5.22-5.2-8.36-5.74-9.81-1.71-21.08,2.05-23.42,12.76-.39,1.78-.33,3.72.53,5.32.68,1.27,1.83,2.25,3.11,2.91.93.48,1.97.81,3.02.79,2.8-.05,5.12-2.79,5.12-5.59,0-1.7-.24-3.01.98-4.36,1.1-1.22,2.72-1.92,4.34-2.02,4.79-.3,6.36,4.26,5.14,6.97-4.93,10.95-27.93,53.68-27.93,53.68-1.55,2.93-.43,6.57,2.5,8.12,2.93,1.55,6.57.43,8.12-2.5,0,0,13.09-25.43,13.09-25.43,2.44,4.55,9.79,18.21,12.54,22.24,2.86,4.56,7.93,7.59,13.7,7.59,8.93,0,16.16-7.24,16.16-16.16,0-2.26-.47-4.42-1.31-6.37-.2-.53-.42-1.05-.67-1.55-1.37-2.78-4.74-9.5-4.74-9.5-1.13-2.16-2.14-4.01-2.73-5.07l16.88-31.71c.41-.82.65-1.74.65-2.72Zm-38.22,18.84c1.27,2.26,7.13,13.35,11.71,22.08,2.75,5.24,5.03,9.63,5.57,10.73.24.5,1.99,3.57,1.99,4.92,0,2.96-2.4,5.35-5.35,5.35-.59,0-1.16-.1-1.69-.27-1.4-.47-2.54-1.5-3.16-2.82-.16-.17-3.57-6.31-7.11-12.72-3.76-6.79-7.66-13.88-7.97-14.42,0,0,0,0,0,0l6.01-12.84Z"/>
        <path class="cls-15" d="m501.93,338.83c0-.05,0-.1,0-.16-.08-3.26-2.75-5.88-6.03-5.88-1.17,0-2.25.34-3.17.91-.69.43-1.29,1-1.76,1.66l-13.48,25.17c-1.51-2.87-10.82-21.33-12.29-23.36-1.87-2.59-5.22-5.2-8.36-5.74-9.81-1.71-21.08,2.05-23.42,12.76-.39,1.78-.33,3.72.53,5.32.68,1.27,1.83,2.25,3.11,2.91.93.48,1.97.81,3.02.79,2.8-.05,5.12-2.79,5.12-5.59,0-1.7-.24-3.01.98-4.36,1.1-1.22,2.72-1.92,4.34-2.02,4.79-.3,6.36,4.26,5.14,6.97-4.93,10.95-27.93,53.68-27.93,53.68-1.55,2.93-.43,6.57,2.5,8.12,2.93,1.55,6.57.43,8.12-2.5,0,0,13.09-25.43,13.09-25.43,2.44,4.55,9.79,18.21,12.54,22.24,2.86,4.56,7.93,7.59,13.7,7.59,8.93,0,16.16-7.24,16.16-16.16,0-2.26-.47-4.42-1.31-6.37-.2-.53-.42-1.05-.67-1.55-1.37-2.78-4.74-9.5-4.74-9.5-1.13-2.16-2.14-4.01-2.73-5.07l16.88-31.71c.41-.82.65-1.74.65-2.72Zm-38.22,18.84c1.27,2.26,7.13,13.35,11.71,22.08,2.75,5.24,5.03,9.63,5.57,10.73.24.5,1.99,3.57,1.99,4.92,0,2.96-2.4,5.35-5.35,5.35-.59,0-1.16-.1-1.69-.27-1.4-.47-2.54-1.5-3.16-2.82-.16-.17-3.57-6.31-7.11-12.72-3.76-6.79-7.66-13.88-7.97-14.42,0,0,0,0,0,0l6.01-12.84Z"/>
        <path class="cls-15" d="m633.98,338.83c0-.05,0-.1,0-.16-.08-3.26-2.75-5.88-6.03-5.88-1.17,0-2.25.34-3.17.91-.69.43-1.29,1-1.76,1.66l-13.48,25.17c-1.51-2.87-10.82-21.33-12.29-23.36-1.87-2.59-5.22-5.2-8.36-5.74-9.81-1.71-21.08,2.05-23.42,12.76-.39,1.78-.33,3.72.53,5.32.68,1.27,1.83,2.25,3.11,2.91.93.48,1.97.81,3.02.79,2.8-.05,5.12-2.79,5.12-5.59,0-1.7-.24-3.01.98-4.36,1.1-1.22,2.72-1.92,4.34-2.02,4.79-.3,6.36,4.26,5.14,6.97-4.93,10.95-27.93,53.68-27.93,53.68-1.55,2.93-.43,6.57,2.5,8.12,2.93,1.55,6.57.43,8.12-2.5,0,0,13.09-25.43,13.09-25.43,2.44,4.55,9.79,18.21,12.54,22.24,2.86,4.56,7.93,7.59,13.7,7.59,8.93,0,16.16-7.24,16.16-16.16,0-2.26-.47-4.42-1.31-6.37-.2-.53-.42-1.05-.67-1.55-1.37-2.78-4.74-9.5-4.74-9.5-1.13-2.16-2.14-4.01-2.73-5.07l16.88-31.71c.41-.82.65-1.74.65-2.72Zm-38.22,18.84c1.27,2.26,7.13,13.35,11.71,22.08,2.75,5.24,5.03,9.63,5.57,10.73.24.5,1.99,3.57,1.99,4.92,0,2.96-2.4,5.35-5.35,5.35-.59,0-1.16-.1-1.69-.27-1.4-.47-2.54-1.5-3.16-2.82-.16-.17-3.57-6.31-7.11-12.72-3.76-6.79-7.66-13.88-7.97-14.42,0,0,0,0,0,0l6.01-12.84Z"/>
        <path class="cls-15" d="m766.14,338.83c0-.05,0-.1,0-.16-.08-3.26-2.75-5.88-6.03-5.88-1.17,0-2.25.34-3.17.91-.69.43-1.29,1-1.76,1.66l-13.48,25.17c-1.51-2.87-10.82-21.33-12.29-23.36-1.87-2.59-5.22-5.2-8.36-5.74-9.81-1.71-21.08,2.05-23.42,12.76-.39,1.78-.33,3.72.53,5.32.68,1.27,1.83,2.25,3.11,2.91.93.48,1.97.81,3.02.79,2.8-.05,5.12-2.79,5.12-5.59,0-1.7-.24-3.01.98-4.36,1.1-1.22,2.72-1.92,4.34-2.02,4.79-.3,6.36,4.26,5.14,6.97-4.93,10.95-27.93,53.68-27.93,53.68-1.55,2.93-.43,6.57,2.5,8.12,2.93,1.55,6.57.43,8.12-2.5,0,0,13.09-25.43,13.09-25.43,2.44,4.55,9.79,18.21,12.54,22.24,2.86,4.56,7.93,7.59,13.7,7.59,8.93,0,16.16-7.24,16.16-16.16,0-2.26-.47-4.42-1.31-6.37-.2-.53-.42-1.05-.67-1.55-1.37-2.78-4.74-9.5-4.74-9.5-1.13-2.16-2.14-4.01-2.73-5.07l16.88-31.71c.41-.82.65-1.74.65-2.72Zm-38.22,18.84c1.27,2.26,7.13,13.35,11.71,22.08,2.75,5.24,5.03,9.63,5.57,10.73.24.5,1.99,3.57,1.99,4.92,0,2.96-2.4,5.35-5.35,5.35-.59,0-1.16-.1-1.69-.27-1.4-.47-2.54-1.5-3.16-2.82-.16-.17-3.57-6.31-7.11-12.72-3.76-6.79-7.66-13.88-7.97-14.42,0,0,0,0,0,0l6.01-12.84Z"/>
        <path class="cls-15" d="m898.45,338.83c0-.05,0-.1,0-.16-.08-3.26-2.75-5.88-6.03-5.88-1.17,0-2.25.34-3.17.91-.69.43-1.29,1-1.76,1.66l-13.48,25.17c-1.51-2.87-10.82-21.33-12.29-23.36-1.87-2.59-5.22-5.2-8.36-5.74-9.81-1.71-21.08,2.05-23.42,12.76-.39,1.78-.33,3.72.53,5.32.68,1.27,1.83,2.25,3.11,2.91.93.48,1.97.81,3.02.79,2.8-.05,5.12-2.79,5.12-5.59,0-1.7-.24-3.01.98-4.36,1.1-1.22,2.72-1.92,4.34-2.02,4.79-.3,6.36,4.26,5.14,6.97-4.93,10.95-27.93,53.68-27.93,53.68-1.55,2.93-.43,6.57,2.5,8.12,2.93,1.55,6.57.43,8.12-2.5,0,0,13.09-25.43,13.09-25.43,2.44,4.55,9.79,18.21,12.54,22.24,2.86,4.56,7.93,7.59,13.7,7.59,8.93,0,16.16-7.24,16.16-16.16,0-2.26-.47-4.42-1.31-6.37-.2-.53-.42-1.05-.67-1.55-1.37-2.78-4.74-9.5-4.74-9.5-1.13-2.16-2.14-4.01-2.73-5.07l16.88-31.71c.41-.82.65-1.74.65-2.72Zm-38.22,18.84c1.27,2.26,7.13,13.35,11.71,22.08,2.75,5.24,5.03,9.63,5.57,10.73.24.5,1.99,3.57,1.99,4.92,0,2.96-2.4,5.35-5.35,5.35-.59,0-1.16-.1-1.69-.27-1.4-.47-2.54-1.5-3.16-2.82-.16-.17-3.57-6.31-7.11-12.72-3.76-6.79-7.66-13.88-7.97-14.42,0,0,0,0,0,0l6.01-12.84Z"/>
        <path class="cls-10" d="m228.1,404.11c0,.05,0,.1,0,.16.08,3.26,2.75,5.88,6.03,5.88,1.17,0,2.25-.34,3.17-.91.69-.43,1.29-1,1.76-1.66l13.48-25.17c1.51,2.87,10.82,21.33,12.29,23.36,1.87,2.59,5.22,5.2,8.36,5.74,9.81,1.71,21.08-2.05,23.42-12.76.39-1.78.33-3.72-.53-5.32-.68-1.27-1.83-2.25-3.11-2.91-.93-.48-1.97-.81-3.02-.79-2.8.05-5.12,2.79-5.12,5.59,0,1.7.24,3.01-.98,4.36-1.1,1.22-2.72,1.92-4.34,2.02-4.79.3-6.36-4.26-5.14-6.97,4.93-10.95,27.93-53.68,27.93-53.68,1.55-2.93.43-6.57-2.5-8.12-2.93-1.55-6.57-.43-8.12,2.5,0,0-13.09,25.43-13.09,25.43-2.44-4.55-9.79-18.21-12.54-22.24-2.86-4.56-7.93-7.59-13.7-7.59-8.93,0-16.16,7.24-16.16,16.16,0,2.26.47,4.42,1.31,6.37.2.53.42,1.05.67,1.55,1.37,2.78,4.74,9.5,4.74,9.5,1.13,2.16,2.14,4.01,2.73,5.07l-16.88,31.71c-.41.82-.65,1.74-.65,2.72Zm38.22-18.84c-1.27-2.26-7.13-13.35-11.71-22.08-2.75-5.24-5.03-9.63-5.57-10.73-.24-.5-1.99-3.57-1.99-4.92,0-2.96,2.4-5.35,5.35-5.35.59,0,1.16.1,1.69.27,1.4.47,2.54,1.5,3.16,2.82.16.17,3.57,6.31,7.11,12.72,3.76,6.79,7.66,13.88,7.97,14.42,0,0,0,0,0,0l-6.01,12.84Z"/>
        <path class="cls-10" d="m360.26,404.11c0,.05,0,.1,0,.16.08,3.26,2.75,5.88,6.03,5.88,1.17,0,2.25-.34,3.17-.91.69-.43,1.29-1,1.76-1.66l13.48-25.17c1.51,2.87,10.82,21.33,12.29,23.36,1.87,2.59,5.22,5.2,8.36,5.74,9.81,1.71,21.08-2.05,23.42-12.76.39-1.78.33-3.72-.53-5.32-.68-1.27-1.83-2.25-3.11-2.91-.93-.48-1.97-.81-3.02-.79-2.8.05-5.12,2.79-5.12,5.59,0,1.7.24,3.01-.98,4.36-1.1,1.22-2.72,1.92-4.34,2.02-4.79.3-6.36-4.26-5.14-6.97,4.93-10.95,27.93-53.68,27.93-53.68,1.55-2.93.43-6.57-2.5-8.12-2.93-1.55-6.57-.43-8.12,2.5,0,0-13.09,25.43-13.09,25.43-2.44-4.55-9.79-18.21-12.54-22.24-2.86-4.56-7.93-7.59-13.7-7.59-8.93,0-16.16,7.24-16.16,16.16,0,2.26.47,4.42,1.31,6.37.2.53.42,1.05.67,1.55,1.37,2.78,4.74,9.5,4.74,9.5,1.13,2.16,2.14,4.01,2.73,5.07l-16.88,31.71c-.41.82-.65,1.74-.65,2.72Zm38.22-18.84c-1.27-2.26-7.13-13.35-11.71-22.08-2.75-5.24-5.03-9.63-5.57-10.73-.24-.5-1.99-3.57-1.99-4.92,0-2.96,2.4-5.35,5.35-5.35.59,0,1.16.1,1.69.27,1.4.47,2.54,1.5,3.16,2.82.16.17,3.57,6.31,7.11,12.72,3.76,6.79,7.66,13.88,7.97,14.42,0,0,0,0,0,0l-6.01,12.84Z"/>
        <path class="cls-10" d="m492.26,404.11c0,.05,0,.1,0,.16.08,3.26,2.75,5.88,6.03,5.88,1.17,0,2.25-.34,3.17-.91.69-.43,1.29-1,1.76-1.66l13.48-25.17c1.51,2.87,10.82,21.33,12.29,23.36,1.87,2.59,5.22,5.2,8.36,5.74,9.81,1.71,21.08-2.05,23.42-12.76.39-1.78.33-3.72-.53-5.32-.68-1.27-1.83-2.25-3.11-2.91-.93-.48-1.97-.81-3.02-.79-2.8.05-5.12,2.79-5.12,5.59,0,1.7.24,3.01-.98,4.36-1.1,1.22-2.72,1.92-4.34,2.02-4.79.3-6.36-4.26-5.14-6.97,4.93-10.95,27.93-53.68,27.93-53.68,1.55-2.93.43-6.57-2.5-8.12-2.93-1.55-6.57-.43-8.12,2.5,0,0-13.09,25.43-13.09,25.43-2.44-4.55-9.79-18.21-12.54-22.24-2.86-4.56-7.93-7.59-13.7-7.59-8.93,0-16.16,7.24-16.16,16.16,0,2.26.47,4.42,1.31,6.37.2.53.42,1.05.67,1.55,1.37,2.78,4.74,9.5,4.74,9.5,1.13,2.16,2.14,4.01,2.73,5.07l-16.88,31.71c-.41.82-.65,1.74-.65,2.72Zm38.22-18.84c-1.27-2.26-7.13-13.35-11.71-22.08-2.75-5.24-5.03-9.63-5.57-10.73-.24-.5-1.99-3.57-1.99-4.92,0-2.96,2.4-5.35,5.35-5.35.59,0,1.16.1,1.69.27,1.4.47,2.54,1.5,3.16,2.82.16.17,3.57,6.31,7.11,12.72,3.76,6.79,7.66,13.88,7.97,14.42,0,0,0,0,0,0l-6.01,12.84Z"/>
        <path class="cls-10" d="m624.42,404.11c0,.05,0,.1,0,.16.08,3.26,2.75,5.88,6.03,5.88,1.17,0,2.25-.34,3.17-.91.69-.43,1.29-1,1.76-1.66l13.48-25.17c1.51,2.87,10.82,21.33,12.29,23.36,1.87,2.59,5.22,5.2,8.36,5.74,9.81,1.71,21.08-2.05,23.42-12.76.39-1.78.33-3.72-.53-5.32-.68-1.27-1.83-2.25-3.11-2.91-.93-.48-1.97-.81-3.02-.79-2.8.05-5.12,2.79-5.12,5.59,0,1.7.24,3.01-.98,4.36-1.1,1.22-2.72,1.92-4.34,2.02-4.79.3-6.36-4.26-5.14-6.97,4.93-10.95,27.93-53.68,27.93-53.68,1.55-2.93.43-6.57-2.5-8.12-2.93-1.55-6.57-.43-8.12,2.5,0,0-13.09,25.43-13.09,25.43-2.44-4.55-9.79-18.21-12.54-22.24-2.86-4.56-7.93-7.59-13.7-7.59-8.93,0-16.16,7.24-16.16,16.16,0,2.26.47,4.42,1.31,6.37.2.53.42,1.05.67,1.55,1.37,2.78,4.74,9.5,4.74,9.5,1.13,2.16,2.14,4.01,2.73,5.07l-16.88,31.71c-.41.82-.65,1.74-.65,2.72Zm38.22-18.84c-1.27-2.26-7.13-13.35-11.71-22.08-2.75-5.24-5.03-9.63-5.57-10.73-.24-.5-1.99-3.57-1.99-4.92,0-2.96,2.4-5.35,5.35-5.35.59,0,1.16.1,1.69.27,1.4.47,2.54,1.5,3.16,2.82.16.17,3.57,6.31,7.11,12.72,3.76,6.79,7.66,13.88,7.97,14.42,0,0,0,0,0,0l-6.01,12.84Z"/>
        <path class="cls-10" d="m756.74,404.11c0,.05,0,.1,0,.16.08,3.26,2.75,5.88,6.03,5.88,1.17,0,2.25-.34,3.17-.91.69-.43,1.29-1,1.76-1.66l13.48-25.17c1.51,2.87,10.82,21.33,12.29,23.36,1.87,2.59,5.22,5.2,8.36,5.74,9.81,1.71,21.08-2.05,23.42-12.76.39-1.78.33-3.72-.53-5.32-.68-1.27-1.83-2.25-3.11-2.91-.93-.48-1.97-.81-3.02-.79-2.8.05-5.12,2.79-5.12,5.59,0,1.7.24,3.01-.98,4.36-1.1,1.22-2.72,1.92-4.34,2.02-4.79.3-6.36-4.26-5.14-6.97,4.93-10.95,27.93-53.68,27.93-53.68,1.55-2.93.43-6.57-2.5-8.12-2.93-1.55-6.57-.43-8.12,2.5,0,0-13.09,25.43-13.09,25.43-2.44-4.55-9.79-18.21-12.54-22.24-2.86-4.56-7.93-7.59-13.7-7.59-8.93,0-16.16,7.24-16.16,16.16,0,2.26.47,4.42,1.31,6.37.2.53.42,1.05.67,1.55,1.37,2.78,4.74,9.5,4.74,9.5,1.13,2.16,2.14,4.01,2.73,5.07l-16.88,31.71c-.41.82-.65,1.74-.65,2.72Zm38.22-18.84c-1.27-2.26-7.13-13.35-11.71-22.08-2.75-5.24-5.03-9.63-5.57-10.73-.24-.5-1.99-3.57-1.99-4.92,0-2.96,2.4-5.35,5.35-5.35.59,0,1.16.1,1.69.27,1.4.47,2.54,1.5,3.16,2.82.16.17,3.57,6.31,7.11,12.72,3.76,6.79,7.66,13.88,7.97,14.42,0,0,0,0,0,0l-6.01,12.84Z"/>
        <path class="cls-10" d="m888.76,404.06c0,.05,0,.1,0,.16.08,3.26,2.75,5.88,6.03,5.88,1.17,0,2.25-.34,3.17-.91.69-.43,1.29-1,1.76-1.66l13.48-25.17c1.51,2.87,10.82,21.33,12.29,23.36,1.87,2.59,5.22,5.2,8.36,5.74,9.81,1.71,21.08-2.05,23.42-12.76.39-1.78.33-3.72-.53-5.32-.68-1.27-1.83-2.25-3.11-2.91-.93-.48-1.97-.81-3.02-.79-2.8.05-5.12,2.79-5.12,5.59,0,1.7.24,3.01-.98,4.36-1.1,1.22-2.72,1.92-4.34,2.02-4.79.3-6.36-4.26-5.14-6.97,4.93-10.95,27.93-53.68,27.93-53.68,1.55-2.93.43-6.57-2.5-8.12-2.93-1.55-6.57-.43-8.12,2.5,0,0-13.09,25.43-13.09,25.43-2.44-4.55-9.79-18.21-12.54-22.24-2.86-4.56-7.93-7.59-13.7-7.59-8.93,0-16.16,7.24-16.16,16.16,0,2.26.47,4.42,1.31,6.37.2.53.42,1.05.67,1.55,1.37,2.78,4.74,9.5,4.74,9.5,1.13,2.16,2.14,4.01,2.73,5.07l-16.88,31.71c-.41.82-.65,1.74-.65,2.72Zm38.22-18.84c-1.27-2.26-7.13-13.35-11.71-22.08-2.75-5.24-5.03-9.63-5.57-10.73-.24-.5-1.99-3.57-1.99-4.92,0-2.96,2.4-5.35,5.35-5.35.59,0,1.16.1,1.69.27,1.4.47,2.54,1.5,3.16,2.82.16.17,3.57,6.31,7.11,12.72,3.76,6.79,7.66,13.88,7.97,14.42,0,0,0,0,0,0l-6.01,12.84Z"/>
        <path class="cls-15" d="m303.02,415.79c0-.05,0-.1,0-.16-.08-3.26-2.75-5.88-6.03-5.88-1.17,0-2.25.34-3.17.91-.69.43-1.29,1-1.76,1.66l-13.48,25.17c-1.51-2.87-10.82-21.33-12.29-23.36-1.87-2.59-5.22-5.2-8.36-5.74-9.81-1.71-21.08,2.05-23.42,12.76-.39,1.78-.33,3.72.53,5.32.68,1.27,1.83,2.25,3.11,2.91.93.48,1.97.81,3.02.79,2.8-.05,5.12-2.79,5.12-5.59,0-1.7-.24-3.01.98-4.36,1.1-1.22,2.72-1.92,4.34-2.02,4.79-.3,6.36,4.26,5.14,6.97-4.93,10.95-27.93,53.68-27.93,53.68-1.55,2.93-.43,6.57,2.5,8.12,2.93,1.55,6.57.43,8.12-2.5,0,0,13.09-25.43,13.09-25.43,2.44,4.55,9.79,18.21,12.54,22.24,2.86,4.56,7.93,7.59,13.7,7.59,8.93,0,16.16-7.24,16.16-16.16,0-2.26-.47-4.42-1.31-6.37-.2-.53-.42-1.05-.67-1.55-1.37-2.78-4.74-9.5-4.74-9.5-1.13-2.16-2.14-4.01-2.73-5.07l16.88-31.71c.41-.82.65-1.74.65-2.72Zm-38.22,18.84c1.27,2.26,7.13,13.35,11.71,22.08,2.75,5.24,5.03,9.63,5.57,10.73.24.5,1.99,3.57,1.99,4.92,0,2.96-2.4,5.35-5.35,5.35-.59,0-1.16-.1-1.69-.27-1.4-.47-2.54-1.5-3.16-2.82-.16-.17-3.57-6.31-7.11-12.72-3.76-6.79-7.66-13.88-7.97-14.42,0,0,0,0,0,0l6.01-12.84Z"/>
        <path class="cls-15" d="m435.29,415.79c0-.05,0-.1,0-.16-.08-3.26-2.75-5.88-6.03-5.88-1.17,0-2.25.34-3.17.91-.69.43-1.29,1-1.76,1.66l-13.48,25.17c-1.51-2.87-10.82-21.33-12.29-23.36-1.87-2.59-5.22-5.2-8.36-5.74-9.81-1.71-21.08,2.05-23.42,12.76-.39,1.78-.33,3.72.53,5.32.68,1.27,1.83,2.25,3.11,2.91.93.48,1.97.81,3.02.79,2.8-.05,5.12-2.79,5.12-5.59,0-1.7-.24-3.01.98-4.36,1.1-1.22,2.72-1.92,4.34-2.02,4.79-.3,6.36,4.26,5.14,6.97-4.93,10.95-27.93,53.68-27.93,53.68-1.55,2.93-.43,6.57,2.5,8.12,2.93,1.55,6.57.43,8.12-2.5,0,0,13.09-25.43,13.09-25.43,2.44,4.55,9.79,18.21,12.54,22.24,2.86,4.56,7.93,7.59,13.7,7.59,8.93,0,16.16-7.24,16.16-16.16,0-2.26-.47-4.42-1.31-6.37-.2-.53-.42-1.05-.67-1.55-1.37-2.78-4.74-9.5-4.74-9.5-1.13-2.16-2.14-4.01-2.73-5.07l16.88-31.71c.41-.82.65-1.74.65-2.72Zm-38.22,18.84c1.27,2.26,7.13,13.35,11.71,22.08,2.75,5.24,5.03,9.63,5.57,10.73.24.5,1.99,3.57,1.99,4.92,0,2.96-2.4,5.35-5.35,5.35-.59,0-1.16-.1-1.69-.27-1.4-.47-2.54-1.5-3.16-2.82-.16-.17-3.57-6.31-7.11-12.72-3.76-6.79-7.66-13.88-7.97-14.42,0,0,0,0,0,0l6.01-12.84Z"/>
        <path class="cls-15" d="m567.23,415.79c0-.05,0-.1,0-.16-.08-3.26-2.75-5.88-6.03-5.88-1.17,0-2.25.34-3.17.91-.69.43-1.29,1-1.76,1.66l-13.48,25.17c-1.51-2.87-10.82-21.33-12.29-23.36-1.87-2.59-5.22-5.2-8.36-5.74-9.81-1.71-21.08,2.05-23.42,12.76-.39,1.78-.33,3.72.53,5.32.68,1.27,1.83,2.25,3.11,2.91.93.48,1.97.81,3.02.79,2.8-.05,5.12-2.79,5.12-5.59,0-1.7-.24-3.01.98-4.36,1.1-1.22,2.72-1.92,4.34-2.02,4.79-.3,6.36,4.26,5.14,6.97-4.93,10.95-27.93,53.68-27.93,53.68-1.55,2.93-.43,6.57,2.5,8.12,2.93,1.55,6.57.43,8.12-2.5,0,0,13.09-25.43,13.09-25.43,2.44,4.55,9.79,18.21,12.54,22.24,2.86,4.56,7.93,7.59,13.7,7.59,8.93,0,16.16-7.24,16.16-16.16,0-2.26-.47-4.42-1.31-6.37-.2-.53-.42-1.05-.67-1.55-1.37-2.78-4.74-9.5-4.74-9.5-1.13-2.16-2.14-4.01-2.73-5.07l16.88-31.71c.41-.82.65-1.74.65-2.72Zm-38.22,18.84c1.27,2.26,7.13,13.35,11.71,22.08,2.75,5.24,5.03,9.63,5.57,10.73.24.5,1.99,3.57,1.99,4.92,0,2.96-2.4,5.35-5.35,5.35-.59,0-1.16-.1-1.69-.27-1.4-.47-2.54-1.5-3.16-2.82-.16-.17-3.57-6.31-7.11-12.72-3.76-6.79-7.66-13.88-7.97-14.42,0,0,0,0,0,0l6.01-12.84Z"/>
        <path class="cls-15" d="m699.27,415.79c0-.05,0-.1,0-.16-.08-3.26-2.75-5.88-6.03-5.88-1.17,0-2.25.34-3.17.91-.69.43-1.29,1-1.76,1.66l-13.48,25.17c-1.51-2.87-10.82-21.33-12.29-23.36-1.87-2.59-5.22-5.2-8.36-5.74-9.81-1.71-21.08,2.05-23.42,12.76-.39,1.78-.33,3.72.53,5.32.68,1.27,1.83,2.25,3.11,2.91.93.48,1.97.81,3.02.79,2.8-.05,5.12-2.79,5.12-5.59,0-1.7-.24-3.01.98-4.36,1.1-1.22,2.72-1.92,4.34-2.02,4.79-.3,6.36,4.26,5.14,6.97-4.93,10.95-27.93,53.68-27.93,53.68-1.55,2.93-.43,6.57,2.5,8.12,2.93,1.55,6.57.43,8.12-2.5,0,0,13.09-25.43,13.09-25.43,2.44,4.55,9.79,18.21,12.54,22.24,2.86,4.56,7.93,7.59,13.7,7.59,8.93,0,16.16-7.24,16.16-16.16,0-2.26-.47-4.42-1.31-6.37-.2-.53-.42-1.05-.67-1.55-1.37-2.78-4.74-9.5-4.74-9.5-1.13-2.16-2.14-4.01-2.73-5.07l16.88-31.71c.41-.82.65-1.74.65-2.72Zm-38.22,18.84c1.27,2.26,7.13,13.35,11.71,22.08,2.75,5.24,5.03,9.63,5.57,10.73.24.5,1.99,3.57,1.99,4.92,0,2.96-2.4,5.35-5.35,5.35-.59,0-1.16-.1-1.69-.27-1.4-.47-2.54-1.5-3.16-2.82-.16-.17-3.57-6.31-7.11-12.72-3.76-6.79-7.66-13.88-7.97-14.42,0,0,0,0,0,0l6.01-12.84Z"/>
        <path class="cls-15" d="m831.44,415.79c0-.05,0-.1,0-.16-.08-3.26-2.75-5.88-6.03-5.88-1.17,0-2.25.34-3.17.91-.69.43-1.29,1-1.76,1.66l-13.48,25.17c-1.51-2.87-10.82-21.33-12.29-23.36-1.87-2.59-5.22-5.2-8.36-5.74-9.81-1.71-21.08,2.05-23.42,12.76-.39,1.78-.33,3.72.53,5.32.68,1.27,1.83,2.25,3.11,2.91.93.48,1.97.81,3.02.79,2.8-.05,5.12-2.79,5.12-5.59,0-1.7-.24-3.01.98-4.36,1.1-1.22,2.72-1.92,4.34-2.02,4.79-.3,6.36,4.26,5.14,6.97-4.93,10.95-27.93,53.68-27.93,53.68-1.55,2.93-.43,6.57,2.5,8.12,2.93,1.55,6.57.43,8.12-2.5,0,0,13.09-25.43,13.09-25.43,2.44,4.55,9.79,18.21,12.54,22.24,2.86,4.56,7.93,7.59,13.7,7.59,8.93,0,16.16-7.24,16.16-16.16,0-2.26-.47-4.42-1.31-6.37-.2-.53-.42-1.05-.67-1.55-1.37-2.78-4.74-9.5-4.74-9.5-1.13-2.16-2.14-4.01-2.73-5.07l16.88-31.71c.41-.82.65-1.74.65-2.72Zm-38.22,18.84c1.27,2.26,7.13,13.35,11.71,22.08,2.75,5.24,5.03,9.63,5.57,10.73.24.5,1.99,3.57,1.99,4.92,0,2.96-2.4,5.35-5.35,5.35-.59,0-1.16-.1-1.69-.27-1.4-.47-2.54-1.5-3.16-2.82-.16-.17-3.57-6.31-7.11-12.72-3.76-6.79-7.66-13.88-7.97-14.42,0,0,0,0,0,0l6.01-12.84Z"/>
        <path class="cls-15" d="m963.75,415.79c0-.05,0-.1,0-.16-.08-3.26-2.75-5.88-6.03-5.88-1.17,0-2.25.34-3.17.91-.69.43-1.29,1-1.76,1.66l-13.48,25.17c-1.51-2.87-10.82-21.33-12.29-23.36-1.87-2.59-5.22-5.2-8.36-5.74-9.81-1.71-21.08,2.05-23.42,12.76-.39,1.78-.33,3.72.53,5.32.68,1.27,1.83,2.25,3.11,2.91.93.48,1.97.81,3.02.79,2.8-.05,5.12-2.79,5.12-5.59,0-1.7-.24-3.01.98-4.36,1.1-1.22,2.72-1.92,4.34-2.02,4.79-.3,6.36,4.26,5.14,6.97-4.93,10.95-27.93,53.68-27.93,53.68-1.55,2.93-.43,6.57,2.5,8.12,2.93,1.55,6.57.43,8.12-2.5,0,0,13.09-25.43,13.09-25.43,2.44,4.55,9.79,18.21,12.54,22.24,2.86,4.56,7.93,7.59,13.7,7.59,8.93,0,16.16-7.24,16.16-16.16,0-2.26-.47-4.42-1.31-6.37-.2-.53-.42-1.05-.67-1.55-1.37-2.78-4.74-9.5-4.74-9.5-1.13-2.16-2.14-4.01-2.73-5.07l16.88-31.71c.41-.82.65-1.74.65-2.72Zm-38.22,18.84c1.27,2.26,7.13,13.35,11.71,22.08,2.75,5.24,5.03,9.63,5.57,10.73.24.5,1.99,3.57,1.99,4.92,0,2.96-2.4,5.35-5.35,5.35-.59,0-1.16-.1-1.69-.27-1.4-.47-2.54-1.5-3.16-2.82-.16-.17-3.57-6.31-7.11-12.72-3.76-6.79-7.66-13.88-7.97-14.42,0,0,0,0,0,0l6.01-12.84Z"/>
        <path class="cls-10" d="m293.4,481.07c0,.05,0,.1,0,.16.08,3.26,2.75,5.88,6.03,5.88,1.17,0,2.25-.34,3.17-.91.69-.43,1.29-1,1.76-1.66l13.48-25.17c1.51,2.87,10.82,21.33,12.29,23.36,1.87,2.59,5.22,5.2,8.36,5.74,9.81,1.71,21.08-2.05,23.42-12.76.39-1.78.33-3.72-.53-5.32-.68-1.27-1.83-2.25-3.11-2.91-.93-.48-1.97-.81-3.02-.79-2.8.05-5.12,2.79-5.12,5.59,0,1.7.24,3.01-.98,4.36-1.1,1.22-2.72,1.92-4.34,2.02-4.79.3-6.36-4.26-5.14-6.97,4.93-10.95,27.93-53.68,27.93-53.68,1.55-2.93.43-6.57-2.5-8.12-2.93-1.55-6.57-.43-8.12,2.5,0,0-13.09,25.43-13.09,25.43-2.44-4.55-9.79-18.21-12.54-22.24-2.86-4.56-7.93-7.59-13.7-7.59-8.93,0-16.16,7.24-16.16,16.16,0,2.26.47,4.42,1.31,6.37.2.53.42,1.05.67,1.55,1.37,2.78,4.74,9.5,4.74,9.5,1.13,2.16,2.14,4.01,2.73,5.07l-16.88,31.71c-.41.82-.65,1.74-.65,2.72Zm38.22-18.84c-1.27-2.26-7.13-13.35-11.71-22.08-2.75-5.24-5.03-9.63-5.57-10.73-.24-.5-1.99-3.57-1.99-4.92,0-2.96,2.4-5.35,5.35-5.35.59,0,1.16.1,1.69.27,1.4.47,2.54,1.5,3.16,2.82.16.17,3.57,6.31,7.11,12.72,3.76,6.79,7.66,13.88,7.97,14.42,0,0,0,0,0,0l-6.01,12.84Z"/>
        <path class="cls-10" d="m425.56,481.07c0,.05,0,.1,0,.16.08,3.26,2.75,5.88,6.03,5.88,1.17,0,2.25-.34,3.17-.91.69-.43,1.29-1,1.76-1.66l13.48-25.17c1.51,2.87,10.82,21.33,12.29,23.36,1.87,2.59,5.22,5.2,8.36,5.74,9.81,1.71,21.08-2.05,23.42-12.76.39-1.78.33-3.72-.53-5.32-.68-1.27-1.83-2.25-3.11-2.91-.93-.48-1.97-.81-3.02-.79-2.8.05-5.12,2.79-5.12,5.59,0,1.7.24,3.01-.98,4.36-1.1,1.22-2.72,1.92-4.34,2.02-4.79.3-6.36-4.26-5.14-6.97,4.93-10.95,27.93-53.68,27.93-53.68,1.55-2.93.43-6.57-2.5-8.12-2.93-1.55-6.57-.43-8.12,2.5,0,0-13.09,25.43-13.09,25.43-2.44-4.55-9.79-18.21-12.54-22.24-2.86-4.56-7.93-7.59-13.7-7.59-8.93,0-16.16,7.24-16.16,16.16,0,2.26.47,4.42,1.31,6.37.2.53.42,1.05.67,1.55,1.37,2.78,4.74,9.5,4.74,9.5,1.13,2.16,2.14,4.01,2.73,5.07l-16.88,31.71c-.41.82-.65,1.74-.65,2.72Zm38.22-18.84c-1.27-2.26-7.13-13.35-11.71-22.08-2.75-5.24-5.03-9.63-5.57-10.73-.24-.5-1.99-3.57-1.99-4.92,0-2.96,2.4-5.35,5.35-5.35.59,0,1.16.1,1.69.27,1.4.47,2.54,1.5,3.16,2.82.16.17,3.57,6.31,7.11,12.72,3.76,6.79,7.66,13.88,7.97,14.42,0,0,0,0,0,0l-6.01,12.84Z"/>
        <path class="cls-10" d="m557.55,481.07c0,.05,0,.1,0,.16.08,3.26,2.75,5.88,6.03,5.88,1.17,0,2.25-.34,3.17-.91.69-.43,1.29-1,1.76-1.66l13.48-25.17c1.51,2.87,10.82,21.33,12.29,23.36,1.87,2.59,5.22,5.2,8.36,5.74,9.81,1.71,21.08-2.05,23.42-12.76.39-1.78.33-3.72-.53-5.32-.68-1.27-1.83-2.25-3.11-2.91-.93-.48-1.97-.81-3.02-.79-2.8.05-5.12,2.79-5.12,5.59,0,1.7.24,3.01-.98,4.36-1.1,1.22-2.72,1.92-4.34,2.02-4.79.3-6.36-4.26-5.14-6.97,4.93-10.95,27.93-53.68,27.93-53.68,1.55-2.93.43-6.57-2.5-8.12-2.93-1.55-6.57-.43-8.12,2.5,0,0-13.09,25.43-13.09,25.43-2.44-4.55-9.79-18.21-12.54-22.24-2.86-4.56-7.93-7.59-13.7-7.59-8.93,0-16.16,7.24-16.16,16.16,0,2.26.47,4.42,1.31,6.37.2.53.42,1.05.67,1.55,1.37,2.78,4.74,9.5,4.74,9.5,1.13,2.16,2.14,4.01,2.73,5.07l-16.88,31.71c-.41.82-.65,1.74-.65,2.72Zm38.22-18.84c-1.27-2.26-7.13-13.35-11.71-22.08-2.75-5.24-5.03-9.63-5.57-10.73-.24-.5-1.99-3.57-1.99-4.92,0-2.96,2.4-5.35,5.35-5.35.59,0,1.16.1,1.69.27,1.4.47,2.54,1.5,3.16,2.82.16.17,3.57,6.31,7.11,12.72,3.76,6.79,7.66,13.88,7.97,14.42,0,0,0,0,0,0l-6.01,12.84Z"/>
        <path class="cls-10" d="m689.71,481.07c0,.05,0,.1,0,.16.08,3.26,2.75,5.88,6.03,5.88,1.17,0,2.25-.34,3.17-.91.69-.43,1.29-1,1.76-1.66l13.48-25.17c1.51,2.87,10.82,21.33,12.29,23.36,1.87,2.59,5.22,5.2,8.36,5.74,9.81,1.71,21.08-2.05,23.42-12.76.39-1.78.33-3.72-.53-5.32-.68-1.27-1.83-2.25-3.11-2.91-.93-.48-1.97-.81-3.02-.79-2.8.05-5.12,2.79-5.12,5.59,0,1.7.24,3.01-.98,4.36-1.1,1.22-2.72,1.92-4.34,2.02-4.79.3-6.36-4.26-5.14-6.97,4.93-10.95,27.93-53.68,27.93-53.68,1.55-2.93.43-6.57-2.5-8.12-2.93-1.55-6.57-.43-8.12,2.5,0,0-13.09,25.43-13.09,25.43-2.44-4.55-9.79-18.21-12.54-22.24-2.86-4.56-7.93-7.59-13.7-7.59-8.93,0-16.16,7.24-16.16,16.16,0,2.26.47,4.42,1.31,6.37.2.53.42,1.05.67,1.55,1.37,2.78,4.74,9.5,4.74,9.5,1.13,2.16,2.14,4.01,2.73,5.07l-16.88,31.71c-.41.82-.65,1.74-.65,2.72Zm38.22-18.84c-1.27-2.26-7.13-13.35-11.71-22.08-2.75-5.24-5.03-9.63-5.57-10.73-.24-.5-1.99-3.57-1.99-4.92,0-2.96,2.4-5.35,5.35-5.35.59,0,1.16.1,1.69.27,1.4.47,2.54,1.5,3.16,2.82.16.17,3.57,6.31,7.11,12.72,3.76,6.79,7.66,13.88,7.97,14.42,0,0,0,0,0,0l-6.01,12.84Z"/>
        <path class="cls-10" d="m822.03,481.07c0,.05,0,.1,0,.16.08,3.26,2.75,5.88,6.03,5.88,1.17,0,2.25-.34,3.17-.91.69-.43,1.29-1,1.76-1.66l13.48-25.17c1.51,2.87,10.82,21.33,12.29,23.36,1.87,2.59,5.22,5.2,8.36,5.74,9.81,1.71,21.08-2.05,23.42-12.76.39-1.78.33-3.72-.53-5.32-.68-1.27-1.83-2.25-3.11-2.91-.93-.48-1.97-.81-3.02-.79-2.8.05-5.12,2.79-5.12,5.59,0,1.7.24,3.01-.98,4.36-1.1,1.22-2.72,1.92-4.34,2.02-4.79.3-6.36-4.26-5.14-6.97,4.93-10.95,27.93-53.68,27.93-53.68,1.55-2.93.43-6.57-2.5-8.12-2.93-1.55-6.57-.43-8.12,2.5,0,0-13.09,25.43-13.09,25.43-2.44-4.55-9.79-18.21-12.54-22.24-2.86-4.56-7.93-7.59-13.7-7.59-8.93,0-16.16,7.24-16.16,16.16,0,2.26.47,4.42,1.31,6.37.2.53.42,1.05.67,1.55,1.37,2.78,4.74,9.5,4.74,9.5,1.13,2.16,2.14,4.01,2.73,5.07l-16.88,31.71c-.41.82-.65,1.74-.65,2.72Zm38.22-18.84c-1.27-2.26-7.13-13.35-11.71-22.08-2.75-5.24-5.03-9.63-5.57-10.73-.24-.5-1.99-3.57-1.99-4.92,0-2.96,2.4-5.35,5.35-5.35.59,0,1.16.1,1.69.27,1.4.47,2.54,1.5,3.16,2.82.16.17,3.57,6.31,7.11,12.72,3.76,6.79,7.66,13.88,7.97,14.42,0,0,0,0,0,0l-6.01,12.84Z"/>
        <path class="cls-15" d="m366.8,492.87c0-.05,0-.1,0-.16-.08-3.26-2.75-5.88-6.03-5.88-1.17,0-2.25.34-3.17.91-.69.43-1.29,1-1.76,1.66l-13.48,25.17c-1.51-2.87-10.82-21.33-12.29-23.36-1.87-2.59-5.22-5.2-8.36-5.74-9.81-1.71-21.08,2.05-23.42,12.76-.39,1.78-.33,3.72.53,5.32.68,1.27,1.83,2.25,3.11,2.91.93.48,1.97.81,3.02.79,2.8-.05,5.12-2.79,5.12-5.59,0-1.7-.24-3.01.98-4.36,1.1-1.22,2.72-1.92,4.34-2.02,4.79-.3,6.36,4.26,5.14,6.97-4.93,10.95-27.93,53.68-27.93,53.68-1.55,2.93-.43,6.57,2.5,8.12,2.93,1.55,6.57.43,8.12-2.5,0,0,13.09-25.43,13.09-25.43,2.44,4.55,9.79,18.21,12.54,22.24,2.86,4.56,7.93,7.59,13.7,7.59,8.93,0,16.16-7.24,16.16-16.16,0-2.26-.47-4.42-1.31-6.37-.2-.53-.42-1.05-.67-1.55-1.37-2.78-4.74-9.5-4.74-9.5-1.13-2.16-2.14-4.01-2.73-5.07l16.88-31.71c.41-.82.65-1.74.65-2.72Zm-38.22,18.84c1.27,2.26,7.13,13.35,11.71,22.08,2.75,5.24,5.03,9.63,5.57,10.73.24.5,1.99,3.57,1.99,4.92,0,2.96-2.4,5.35-5.35,5.35-.59,0-1.16-.1-1.69-.27-1.4-.47-2.54-1.5-3.16-2.82-.16-.17-3.57-6.31-7.11-12.72-3.76-6.79-7.66-13.88-7.97-14.42,0,0,0,0,0,0l6.01-12.84Z"/>
        <path class="cls-15" d="m498.74,492.87c0-.05,0-.1,0-.16-.08-3.26-2.75-5.88-6.03-5.88-1.17,0-2.25.34-3.17.91-.69.43-1.29,1-1.76,1.66l-13.48,25.17c-1.51-2.87-10.82-21.33-12.29-23.36-1.87-2.59-5.22-5.2-8.36-5.74-9.81-1.71-21.08,2.05-23.42,12.76-.39,1.78-.33,3.72.53,5.32.68,1.27,1.83,2.25,3.11,2.91.93.48,1.97.81,3.02.79,2.8-.05,5.12-2.79,5.12-5.59,0-1.7-.24-3.01.98-4.36,1.1-1.22,2.72-1.92,4.34-2.02,4.79-.3,6.36,4.26,5.14,6.97-4.93,10.95-27.93,53.68-27.93,53.68-1.55,2.93-.43,6.57,2.5,8.12,2.93,1.55,6.57.43,8.12-2.5,0,0,13.09-25.43,13.09-25.43,2.44,4.55,9.79,18.21,12.54,22.24,2.86,4.56,7.93,7.59,13.7,7.59,8.93,0,16.16-7.24,16.16-16.16,0-2.26-.47-4.42-1.31-6.37-.2-.53-.42-1.05-.67-1.55-1.37-2.78-4.74-9.5-4.74-9.5-1.13-2.16-2.14-4.01-2.73-5.07l16.88-31.71c.41-.82.65-1.74.65-2.72Zm-38.22,18.84c1.27,2.26,7.13,13.35,11.71,22.08,2.75,5.24,5.03,9.63,5.57,10.73.24.5,1.99,3.57,1.99,4.92,0,2.96-2.4,5.35-5.35,5.35-.59,0-1.16-.1-1.69-.27-1.4-.47-2.54-1.5-3.16-2.82-.16-.17-3.57-6.31-7.11-12.72-3.76-6.79-7.66-13.88-7.97-14.42,0,0,0,0,0,0l6.01-12.84Z"/>
        <path class="cls-15" d="m630.79,492.87c0-.05,0-.1,0-.16-.08-3.26-2.75-5.88-6.03-5.88-1.17,0-2.25.34-3.17.91-.69.43-1.29,1-1.76,1.66l-13.48,25.17c-1.51-2.87-10.82-21.33-12.29-23.36-1.87-2.59-5.22-5.2-8.36-5.74-9.81-1.71-21.08,2.05-23.42,12.76-.39,1.78-.33,3.72.53,5.32.68,1.27,1.83,2.25,3.11,2.91.93.48,1.97.81,3.02.79,2.8-.05,5.12-2.79,5.12-5.59,0-1.7-.24-3.01.98-4.36,1.1-1.22,2.72-1.92,4.34-2.02,4.79-.3,6.36,4.26,5.14,6.97-4.93,10.95-27.93,53.68-27.93,53.68-1.55,2.93-.43,6.57,2.5,8.12,2.93,1.55,6.57.43,8.12-2.5,0,0,13.09-25.43,13.09-25.43,2.44,4.55,9.79,18.21,12.54,22.24,2.86,4.56,7.93,7.59,13.7,7.59,8.93,0,16.16-7.24,16.16-16.16,0-2.26-.47-4.42-1.31-6.37-.2-.53-.42-1.05-.67-1.55-1.37-2.78-4.74-9.5-4.74-9.5-1.13-2.16-2.14-4.01-2.73-5.07l16.88-31.71c.41-.82.65-1.74.65-2.72Zm-38.22,18.84c1.27,2.26,7.13,13.35,11.71,22.08,2.75,5.24,5.03,9.63,5.57,10.73.24.5,1.99,3.57,1.99,4.92,0,2.96-2.4,5.35-5.35,5.35-.59,0-1.16-.1-1.69-.27-1.4-.47-2.54-1.5-3.16-2.82-.16-.17-3.57-6.31-7.11-12.72-3.76-6.79-7.66-13.88-7.97-14.42,0,0,0,0,0,0l6.01-12.84Z"/>
        <path class="cls-15" d="m762.95,492.87c0-.05,0-.1,0-.16-.08-3.26-2.75-5.88-6.03-5.88-1.17,0-2.25.34-3.17.91-.69.43-1.29,1-1.76,1.66l-13.48,25.17c-1.51-2.87-10.82-21.33-12.29-23.36-1.87-2.59-5.22-5.2-8.36-5.74-9.81-1.71-21.08,2.05-23.42,12.76-.39,1.78-.33,3.72.53,5.32.68,1.27,1.83,2.25,3.11,2.91.93.48,1.97.81,3.02.79,2.8-.05,5.12-2.79,5.12-5.59,0-1.7-.24-3.01.98-4.36,1.1-1.22,2.72-1.92,4.34-2.02,4.79-.3,6.36,4.26,5.14,6.97-4.93,10.95-27.93,53.68-27.93,53.68-1.55,2.93-.43,6.57,2.5,8.12,2.93,1.55,6.57.43,8.12-2.5,0,0,13.09-25.43,13.09-25.43,2.44,4.55,9.79,18.21,12.54,22.24,2.86,4.56,7.93,7.59,13.7,7.59,8.93,0,16.16-7.24,16.16-16.16,0-2.26-.47-4.42-1.31-6.37-.2-.53-.42-1.05-.67-1.55-1.37-2.78-4.74-9.5-4.74-9.5-1.13-2.16-2.14-4.01-2.73-5.07l16.88-31.71c.41-.82.65-1.74.65-2.72Zm-38.22,18.84c1.27,2.26,7.13,13.35,11.71,22.08,2.75,5.24,5.03,9.63,5.57,10.73.24.5,1.99,3.57,1.99,4.92,0,2.96-2.4,5.35-5.35,5.35-.59,0-1.16-.1-1.69-.27-1.4-.47-2.54-1.5-3.16-2.82-.16-.17-3.57-6.31-7.11-12.72-3.76-6.79-7.66-13.88-7.97-14.42,0,0,0,0,0,0l6.01-12.84Z"/>
        <path class="cls-15" d="m895.26,492.87c0-.05,0-.1,0-.16-.08-3.26-2.75-5.88-6.03-5.88-1.17,0-2.25.34-3.17.91-.69.43-1.29,1-1.76,1.66l-13.48,25.17c-1.51-2.87-10.82-21.33-12.29-23.36-1.87-2.59-5.22-5.2-8.36-5.74-9.81-1.71-21.08,2.05-23.42,12.76-.39,1.78-.33,3.72.53,5.32.68,1.27,1.83,2.25,3.11,2.91.93.48,1.97.81,3.02.79,2.8-.05,5.12-2.79,5.12-5.59,0-1.7-.24-3.01.98-4.36,1.1-1.22,2.72-1.92,4.34-2.02,4.79-.3,6.36,4.26,5.14,6.97-4.93,10.95-27.93,53.68-27.93,53.68-1.55,2.93-.43,6.57,2.5,8.12,2.93,1.55,6.57.43,8.12-2.5,0,0,13.09-25.43,13.09-25.43,2.44,4.55,9.79,18.21,12.54,22.24,2.86,4.56,7.93,7.59,13.7,7.59,8.93,0,16.16-7.24,16.16-16.16,0-2.26-.47-4.42-1.31-6.37-.2-.53-.42-1.05-.67-1.55-1.37-2.78-4.74-9.5-4.74-9.5-1.13-2.16-2.14-4.01-2.73-5.07l16.88-31.71c.41-.82.65-1.74.65-2.72Zm-38.22,18.84c1.27,2.26,7.13,13.35,11.71,22.08,2.75,5.24,5.03,9.63,5.57,10.73.24.5,1.99,3.57,1.99,4.92,0,2.96-2.4,5.35-5.35,5.35-.59,0-1.16-.1-1.69-.27-1.4-.47-2.54-1.5-3.16-2.82-.16-.17-3.57-6.31-7.11-12.72-3.76-6.79-7.66-13.88-7.97-14.42,0,0,0,0,0,0l6.01-12.84Z"/>
        <path class="cls-10" d="m224.91,558.15c0,.05,0,.1,0,.16.08,3.26,2.75,5.88,6.03,5.88,1.17,0,2.25-.34,3.17-.91.69-.43,1.29-1,1.76-1.66l13.48-25.17c1.51,2.87,10.82,21.33,12.29,23.36,1.87,2.59,5.22,5.2,8.36,5.74,9.81,1.71,21.08-2.05,23.42-12.76.39-1.78.33-3.72-.53-5.32-.68-1.27-1.83-2.25-3.11-2.91-.93-.48-1.97-.81-3.02-.79-2.8.05-5.12,2.79-5.12,5.59,0,1.7.24,3.01-.98,4.36-1.1,1.22-2.72,1.92-4.34,2.02-4.79.3-6.36-4.26-5.14-6.97,4.93-10.95,27.93-53.68,27.93-53.68,1.55-2.93.43-6.57-2.5-8.12-2.93-1.55-6.57-.43-8.12,2.5,0,0-13.09,25.43-13.09,25.43-2.44-4.55-9.79-18.21-12.54-22.24-2.86-4.56-7.93-7.59-13.7-7.59-8.93,0-16.16,7.24-16.16,16.16,0,2.26.47,4.42,1.31,6.37.2.53.42,1.05.67,1.55,1.37,2.78,4.74,9.5,4.74,9.5,1.13,2.16,2.14,4.01,2.73,5.07l-16.88,31.71c-.41.82-.65,1.74-.65,2.72Zm38.22-18.84c-1.27-2.26-7.13-13.35-11.71-22.08-2.75-5.24-5.03-9.63-5.57-10.73-.24-.5-1.99-3.57-1.99-4.92,0-2.96,2.4-5.35,5.35-5.35.59,0,1.16.1,1.69.27,1.4.47,2.54,1.5,3.16,2.82.16.17,3.57,6.31,7.11,12.72,3.76,6.79,7.66,13.88,7.97,14.42,0,0,0,0,0,0l-6.01,12.84Z"/>
        <path class="cls-10" d="m357.07,558.15c0,.05,0,.1,0,.16.08,3.26,2.75,5.88,6.03,5.88,1.17,0,2.25-.34,3.17-.91.69-.43,1.29-1,1.76-1.66l13.48-25.17c1.51,2.87,10.82,21.33,12.29,23.36,1.87,2.59,5.22,5.2,8.36,5.74,9.81,1.71,21.08-2.05,23.42-12.76.39-1.78.33-3.72-.53-5.32-.68-1.27-1.83-2.25-3.11-2.91-.93-.48-1.97-.81-3.02-.79-2.8.05-5.12,2.79-5.12,5.59,0,1.7.24,3.01-.98,4.36-1.1,1.22-2.72,1.92-4.34,2.02-4.79.3-6.36-4.26-5.14-6.97,4.93-10.95,27.93-53.68,27.93-53.68,1.55-2.93.43-6.57-2.5-8.12-2.93-1.55-6.57-.43-8.12,2.5,0,0-13.09,25.43-13.09,25.43-2.44-4.55-9.79-18.21-12.54-22.24-2.86-4.56-7.93-7.59-13.7-7.59-8.93,0-16.16,7.24-16.16,16.16,0,2.26.47,4.42,1.31,6.37.2.53.42,1.05.67,1.55,1.37,2.78,4.74,9.5,4.74,9.5,1.13,2.16,2.14,4.01,2.73,5.07l-16.88,31.71c-.41.82-.65,1.74-.65,2.72Zm38.22-18.84c-1.27-2.26-7.13-13.35-11.71-22.08-2.75-5.24-5.03-9.63-5.57-10.73-.24-.5-1.99-3.57-1.99-4.92,0-2.96,2.4-5.35,5.35-5.35.59,0,1.16.1,1.69.27,1.4.47,2.54,1.5,3.16,2.82.16.17,3.57,6.31,7.11,12.72,3.76,6.79,7.66,13.88,7.97,14.42,0,0,0,0,0,0l-6.01,12.84Z"/>
        <path class="cls-10" d="m489.07,558.15c0,.05,0,.1,0,.16.08,3.26,2.75,5.88,6.03,5.88,1.17,0,2.25-.34,3.17-.91.69-.43,1.29-1,1.76-1.66l13.48-25.17c1.51,2.87,10.82,21.33,12.29,23.36,1.87,2.59,5.22,5.2,8.36,5.74,9.81,1.71,21.08-2.05,23.42-12.76.39-1.78.33-3.72-.53-5.32-.68-1.27-1.83-2.25-3.11-2.91-.93-.48-1.97-.81-3.02-.79-2.8.05-5.12,2.79-5.12,5.59,0,1.7.24,3.01-.98,4.36-1.1,1.22-2.72,1.92-4.34,2.02-4.79.3-6.36-4.26-5.14-6.97,4.93-10.95,27.93-53.68,27.93-53.68,1.55-2.93.43-6.57-2.5-8.12-2.93-1.55-6.57-.43-8.12,2.5,0,0-13.09,25.43-13.09,25.43-2.44-4.55-9.79-18.21-12.54-22.24-2.86-4.56-7.93-7.59-13.7-7.59-8.93,0-16.16,7.24-16.16,16.16,0,2.26.47,4.42,1.31,6.37.2.53.42,1.05.67,1.55,1.37,2.78,4.74,9.5,4.74,9.5,1.13,2.16,2.14,4.01,2.73,5.07l-16.88,31.71c-.41.82-.65,1.74-.65,2.72Zm38.22-18.84c-1.27-2.26-7.13-13.35-11.71-22.08-2.75-5.24-5.03-9.63-5.57-10.73-.24-.5-1.99-3.57-1.99-4.92,0-2.96,2.4-5.35,5.35-5.35.59,0,1.16.1,1.69.27,1.4.47,2.54,1.5,3.16,2.82.16.17,3.57,6.31,7.11,12.72,3.76,6.79,7.66,13.88,7.97,14.42,0,0,0,0,0,0l-6.01,12.84Z"/>
        <path class="cls-10" d="m621.23,558.15c0,.05,0,.1,0,.16.08,3.26,2.75,5.88,6.03,5.88,1.17,0,2.25-.34,3.17-.91.69-.43,1.29-1,1.76-1.66l13.48-25.17c1.51,2.87,10.82,21.33,12.29,23.36,1.87,2.59,5.22,5.2,8.36,5.74,9.81,1.71,21.08-2.05,23.42-12.76.39-1.78.33-3.72-.53-5.32-.68-1.27-1.83-2.25-3.11-2.91-.93-.48-1.97-.81-3.02-.79-2.8.05-5.12,2.79-5.12,5.59,0,1.7.24,3.01-.98,4.36-1.1,1.22-2.72,1.92-4.34,2.02-4.79.3-6.36-4.26-5.14-6.97,4.93-10.95,27.93-53.68,27.93-53.68,1.55-2.93.43-6.57-2.5-8.12-2.93-1.55-6.57-.43-8.12,2.5,0,0-13.09,25.43-13.09,25.43-2.44-4.55-9.79-18.21-12.54-22.24-2.86-4.56-7.93-7.59-13.7-7.59-8.93,0-16.16,7.24-16.16,16.16,0,2.26.47,4.42,1.31,6.37.2.53.42,1.05.67,1.55,1.37,2.78,4.74,9.5,4.74,9.5,1.13,2.16,2.14,4.01,2.73,5.07l-16.88,31.71c-.41.82-.65,1.74-.65,2.72Zm38.22-18.84c-1.27-2.26-7.13-13.35-11.71-22.08-2.75-5.24-5.03-9.63-5.57-10.73-.24-.5-1.99-3.57-1.99-4.92,0-2.96,2.4-5.35,5.35-5.35.59,0,1.16.1,1.69.27,1.4.47,2.54,1.5,3.16,2.82.16.17,3.57,6.31,7.11,12.72,3.76,6.79,7.66,13.88,7.97,14.42,0,0,0,0,0,0l-6.01,12.84Z"/>
        <path class="cls-10" d="m753.55,558.15c0,.05,0,.1,0,.16.08,3.26,2.75,5.88,6.03,5.88,1.17,0,2.25-.34,3.17-.91.69-.43,1.29-1,1.76-1.66l13.48-25.17c1.51,2.87,10.82,21.33,12.29,23.36,1.87,2.59,5.22,5.2,8.36,5.74,9.81,1.71,21.08-2.05,23.42-12.76.39-1.78.33-3.72-.53-5.32-.68-1.27-1.83-2.25-3.11-2.91-.93-.48-1.97-.81-3.02-.79-2.8.05-5.12,2.79-5.12,5.59,0,1.7.24,3.01-.98,4.36-1.1,1.22-2.72,1.92-4.34,2.02-4.79.3-6.36-4.26-5.14-6.97,4.93-10.95,27.93-53.68,27.93-53.68,1.55-2.93.43-6.57-2.5-8.12-2.93-1.55-6.57-.43-8.12,2.5,0,0-13.09,25.43-13.09,25.43-2.44-4.55-9.79-18.21-12.54-22.24-2.86-4.56-7.93-7.59-13.7-7.59-8.93,0-16.16,7.24-16.16,16.16,0,2.26.47,4.42,1.31,6.37.2.53.42,1.05.67,1.55,1.37,2.78,4.74,9.5,4.74,9.5,1.13,2.16,2.14,4.01,2.73,5.07l-16.88,31.71c-.41.82-.65,1.74-.65,2.72Zm38.22-18.84c-1.27-2.26-7.13-13.35-11.71-22.08-2.75-5.24-5.03-9.63-5.57-10.73-.24-.5-1.99-3.57-1.99-4.92,0-2.96,2.4-5.35,5.35-5.35.59,0,1.16.1,1.69.27,1.4.47,2.54,1.5,3.16,2.82.16.17,3.57,6.31,7.11,12.72,3.76,6.79,7.66,13.88,7.97,14.42,0,0,0,0,0,0l-6.01,12.84Z"/>
        <path class="cls-10" d="m885.57,558.1c0,.05,0,.1,0,.16.08,3.26,2.75,5.88,6.03,5.88,1.17,0,2.25-.34,3.17-.91.69-.43,1.29-1,1.76-1.66l13.48-25.17c1.51,2.87,10.82,21.33,12.29,23.36,1.87,2.59,5.22,5.2,8.36,5.74,9.81,1.71,21.08-2.05,23.42-12.76.39-1.78.33-3.72-.53-5.32-.68-1.27-1.83-2.25-3.11-2.91-.93-.48-1.97-.81-3.02-.79-2.8.05-5.12,2.79-5.12,5.59,0,1.7.24,3.01-.98,4.36-1.1,1.22-2.72,1.92-4.34,2.02-4.79.3-6.36-4.26-5.14-6.97,4.93-10.95,27.93-53.68,27.93-53.68,1.55-2.93.43-6.57-2.5-8.12-2.93-1.55-6.57-.43-8.12,2.5,0,0-13.09,25.43-13.09,25.43-2.44-4.55-9.79-18.21-12.54-22.24-2.86-4.56-7.93-7.59-13.7-7.59-8.93,0-16.16,7.24-16.16,16.16,0,2.26.47,4.42,1.31,6.37.2.53.42,1.05.67,1.55,1.37,2.78,4.74,9.5,4.74,9.5,1.13,2.16,2.14,4.01,2.73,5.07l-16.88,31.71c-.41.82-.65,1.74-.65,2.72Zm38.22-18.84c-1.27-2.26-7.13-13.35-11.71-22.08-2.75-5.24-5.03-9.63-5.57-10.73-.24-.5-1.99-3.57-1.99-4.92,0-2.96,2.4-5.35,5.35-5.35.59,0,1.16.1,1.69.27,1.4.47,2.54,1.5,3.16,2.82.16.17,3.57,6.31,7.11,12.72,3.76,6.79,7.66,13.88,7.97,14.42,0,0,0,0,0,0l-6.01,12.84Z"/>
        <path class="cls-15" d="m299.83,569.83c0-.05,0-.1,0-.16-.08-3.26-2.75-5.88-6.03-5.88-1.17,0-2.25.34-3.17.91-.69.43-1.29,1-1.76,1.66l-13.48,25.17c-1.51-2.87-10.82-21.33-12.29-23.36-1.87-2.59-5.22-5.2-8.36-5.74-9.81-1.71-21.08,2.05-23.42,12.76-.39,1.78-.33,3.72.53,5.32.68,1.27,1.83,2.25,3.11,2.91.93.48,1.97.81,3.02.79,2.8-.05,5.12-2.79,5.12-5.59,0-1.7-.24-3.01.98-4.36,1.1-1.22,2.72-1.92,4.34-2.02,4.79-.3,6.36,4.26,5.14,6.97-4.93,10.95-27.93,53.68-27.93,53.68-1.55,2.93-.43,6.57,2.5,8.12,2.93,1.55,6.57.43,8.12-2.5,0,0,13.09-25.43,13.09-25.43,2.44,4.55,9.79,18.21,12.54,22.24,2.86,4.56,7.93,7.59,13.7,7.59,8.93,0,16.16-7.24,16.16-16.16,0-2.26-.47-4.42-1.31-6.37-.2-.53-.42-1.05-.67-1.55-1.37-2.78-4.74-9.5-4.74-9.5-1.13-2.16-2.14-4.01-2.73-5.07l16.88-31.71c.41-.82.65-1.74.65-2.72Zm-38.22,18.84c1.27,2.26,7.13,13.35,11.71,22.08,2.75,5.24,5.03,9.63,5.57,10.73.24.5,1.99,3.57,1.99,4.92,0,2.96-2.4,5.35-5.35,5.35-.59,0-1.16-.1-1.69-.27-1.4-.47-2.54-1.5-3.16-2.82-.16-.17-3.57-6.31-7.11-12.72-3.76-6.79-7.66-13.88-7.97-14.42,0,0,0,0,0,0l6.01-12.84Z"/>
        <path class="cls-15" d="m432.1,569.83c0-.05,0-.1,0-.16-.08-3.26-2.75-5.88-6.03-5.88-1.17,0-2.25.34-3.17.91-.69.43-1.29,1-1.76,1.66l-13.48,25.17c-1.51-2.87-10.82-21.33-12.29-23.36-1.87-2.59-5.22-5.2-8.36-5.74-9.81-1.71-21.08,2.05-23.42,12.76-.39,1.78-.33,3.72.53,5.32.68,1.27,1.83,2.25,3.11,2.91.93.48,1.97.81,3.02.79,2.8-.05,5.12-2.79,5.12-5.59,0-1.7-.24-3.01.98-4.36,1.1-1.22,2.72-1.92,4.34-2.02,4.79-.3,6.36,4.26,5.14,6.97-4.93,10.95-27.93,53.68-27.93,53.68-1.55,2.93-.43,6.57,2.5,8.12,2.93,1.55,6.57.43,8.12-2.5,0,0,13.09-25.43,13.09-25.43,2.44,4.55,9.79,18.21,12.54,22.24,2.86,4.56,7.93,7.59,13.7,7.59,8.93,0,16.16-7.24,16.16-16.16,0-2.26-.47-4.42-1.31-6.37-.2-.53-.42-1.05-.67-1.55-1.37-2.78-4.74-9.5-4.74-9.5-1.13-2.16-2.14-4.01-2.73-5.07l16.88-31.71c.41-.82.65-1.74.65-2.72Zm-38.22,18.84c1.27,2.26,7.13,13.35,11.71,22.08,2.75,5.24,5.03,9.63,5.57,10.73.24.5,1.99,3.57,1.99,4.92,0,2.96-2.4,5.35-5.35,5.35-.59,0-1.16-.1-1.69-.27-1.4-.47-2.54-1.5-3.16-2.82-.16-.17-3.57-6.31-7.11-12.72-3.76-6.79-7.66-13.88-7.97-14.42,0,0,0,0,0,0l6.01-12.84Z"/>
        <path class="cls-15" d="m564.04,569.83c0-.05,0-.1,0-.16-.08-3.26-2.75-5.88-6.03-5.88-1.17,0-2.25.34-3.17.91-.69.43-1.29,1-1.76,1.66l-13.48,25.17c-1.51-2.87-10.82-21.33-12.29-23.36-1.87-2.59-5.22-5.2-8.36-5.74-9.81-1.71-21.08,2.05-23.42,12.76-.39,1.78-.33,3.72.53,5.32.68,1.27,1.83,2.25,3.11,2.91.93.48,1.97.81,3.02.79,2.8-.05,5.12-2.79,5.12-5.59,0-1.7-.24-3.01.98-4.36,1.1-1.22,2.72-1.92,4.34-2.02,4.79-.3,6.36,4.26,5.14,6.97-4.93,10.95-27.93,53.68-27.93,53.68-1.55,2.93-.43,6.57,2.5,8.12,2.93,1.55,6.57.43,8.12-2.5,0,0,13.09-25.43,13.09-25.43,2.44,4.55,9.79,18.21,12.54,22.24,2.86,4.56,7.93,7.59,13.7,7.59,8.93,0,16.16-7.24,16.16-16.16,0-2.26-.47-4.42-1.31-6.37-.2-.53-.42-1.05-.67-1.55-1.37-2.78-4.74-9.5-4.74-9.5-1.13-2.16-2.14-4.01-2.73-5.07l16.88-31.71c.41-.82.65-1.74.65-2.72Zm-38.22,18.84c1.27,2.26,7.13,13.35,11.71,22.08,2.75,5.24,5.03,9.63,5.57,10.73.24.5,1.99,3.57,1.99,4.92,0,2.96-2.4,5.35-5.35,5.35-.59,0-1.16-.1-1.69-.27-1.4-.47-2.54-1.5-3.16-2.82-.16-.17-3.57-6.31-7.11-12.72-3.76-6.79-7.66-13.88-7.97-14.42,0,0,0,0,0,0l6.01-12.84Z"/>
        <path class="cls-15" d="m696.08,569.83c0-.05,0-.1,0-.16-.08-3.26-2.75-5.88-6.03-5.88-1.17,0-2.25.34-3.17.91-.69.43-1.29,1-1.76,1.66l-13.48,25.17c-1.51-2.87-10.82-21.33-12.29-23.36-1.87-2.59-5.22-5.2-8.36-5.74-9.81-1.71-21.08,2.05-23.42,12.76-.39,1.78-.33,3.72.53,5.32.68,1.27,1.83,2.25,3.11,2.91.93.48,1.97.81,3.02.79,2.8-.05,5.12-2.79,5.12-5.59,0-1.7-.24-3.01.98-4.36,1.1-1.22,2.72-1.92,4.34-2.02,4.79-.3,6.36,4.26,5.14,6.97-4.93,10.95-27.93,53.68-27.93,53.68-1.55,2.93-.43,6.57,2.5,8.12,2.93,1.55,6.57.43,8.12-2.5,0,0,13.09-25.43,13.09-25.43,2.44,4.55,9.79,18.21,12.54,22.24,2.86,4.56,7.93,7.59,13.7,7.59,8.93,0,16.16-7.24,16.16-16.16,0-2.26-.47-4.42-1.31-6.37-.2-.53-.42-1.05-.67-1.55-1.37-2.78-4.74-9.5-4.74-9.5-1.13-2.16-2.14-4.01-2.73-5.07l16.88-31.71c.41-.82.65-1.74.65-2.72Zm-38.22,18.84c1.27,2.26,7.13,13.35,11.71,22.08,2.75,5.24,5.03,9.63,5.57,10.73.24.5,1.99,3.57,1.99,4.92,0,2.96-2.4,5.35-5.35,5.35-.59,0-1.16-.1-1.69-.27-1.4-.47-2.54-1.5-3.16-2.82-.16-.17-3.57-6.31-7.11-12.72-3.76-6.79-7.66-13.88-7.97-14.42,0,0,0,0,0,0l6.01-12.84Z"/>
        <path class="cls-15" d="m828.25,569.83c0-.05,0-.1,0-.16-.08-3.26-2.75-5.88-6.03-5.88-1.17,0-2.25.34-3.17.91-.69.43-1.29,1-1.76,1.66l-13.48,25.17c-1.51-2.87-10.82-21.33-12.29-23.36-1.87-2.59-5.22-5.2-8.36-5.74-9.81-1.71-21.08,2.05-23.42,12.76-.39,1.78-.33,3.72.53,5.32.68,1.27,1.83,2.25,3.11,2.91.93.48,1.97.81,3.02.79,2.8-.05,5.12-2.79,5.12-5.59,0-1.7-.24-3.01.98-4.36,1.1-1.22,2.72-1.92,4.34-2.02,4.79-.3,6.36,4.26,5.14,6.97-4.93,10.95-27.93,53.68-27.93,53.68-1.55,2.93-.43,6.57,2.5,8.12,2.93,1.55,6.57.43,8.12-2.5,0,0,13.09-25.43,13.09-25.43,2.44,4.55,9.79,18.21,12.54,22.24,2.86,4.56,7.93,7.59,13.7,7.59,8.93,0,16.16-7.24,16.16-16.16,0-2.26-.47-4.42-1.31-6.37-.2-.53-.42-1.05-.67-1.55-1.37-2.78-4.74-9.5-4.74-9.5-1.13-2.16-2.14-4.01-2.73-5.07l16.88-31.71c.41-.82.65-1.74.65-2.72Zm-38.22,18.84c1.27,2.26,7.13,13.35,11.71,22.08,2.75,5.24,5.03,9.63,5.57,10.73.24.5,1.99,3.57,1.99,4.92,0,2.96-2.4,5.35-5.35,5.35-.59,0-1.16-.1-1.69-.27-1.4-.47-2.54-1.5-3.16-2.82-.16-.17-3.57-6.31-7.11-12.72-3.76-6.79-7.66-13.88-7.97-14.42,0,0,0,0,0,0l6.01-12.84Z"/>
        <path class="cls-15" d="m960.56,569.83c0-.05,0-.1,0-.16-.08-3.26-2.75-5.88-6.03-5.88-1.17,0-2.25.34-3.17.91-.69.43-1.29,1-1.76,1.66l-13.48,25.17c-1.51-2.87-10.82-21.33-12.29-23.36-1.87-2.59-5.22-5.2-8.36-5.74-9.81-1.71-21.08,2.05-23.42,12.76-.39,1.78-.33,3.72.53,5.32.68,1.27,1.83,2.25,3.11,2.91.93.48,1.97.81,3.02.79,2.8-.05,5.12-2.79,5.12-5.59,0-1.7-.24-3.01.98-4.36,1.1-1.22,2.72-1.92,4.34-2.02,4.79-.3,6.36,4.26,5.14,6.97-4.93,10.95-27.93,53.68-27.93,53.68-1.55,2.93-.43,6.57,2.5,8.12,2.93,1.55,6.57.43,8.12-2.5,0,0,13.09-25.43,13.09-25.43,2.44,4.55,9.79,18.21,12.54,22.24,2.86,4.56,7.93,7.59,13.7,7.59,8.93,0,16.16-7.24,16.16-16.16,0-2.26-.47-4.42-1.31-6.37-.2-.53-.42-1.05-.67-1.55-1.37-2.78-4.74-9.5-4.74-9.5-1.13-2.16-2.14-4.01-2.73-5.07l16.88-31.71c.41-.82.65-1.74.65-2.72Zm-38.22,18.84c1.27,2.26,7.13,13.35,11.71,22.08,2.75,5.24,5.03,9.63,5.57,10.73.24.5,1.99,3.57,1.99,4.92,0,2.96-2.4,5.35-5.35,5.35-.59,0-1.16-.1-1.69-.27-1.4-.47-2.54-1.5-3.16-2.82-.16-.17-3.57-6.31-7.11-12.72-3.76-6.79-7.66-13.88-7.97-14.42,0,0,0,0,0,0l6.01-12.84Z"/>
        <path class="cls-10" d="m290.21,635.11c0,.05,0,.1,0,.16.08,3.26,2.75,5.88,6.03,5.88,1.17,0,2.25-.34,3.17-.91.69-.43,1.29-1,1.76-1.66l13.48-25.17c1.51,2.87,10.82,21.33,12.29,23.36,1.87,2.59,5.22,5.2,8.36,5.74,9.81,1.71,21.08-2.05,23.42-12.76.39-1.78.33-3.72-.53-5.32-.68-1.27-1.83-2.25-3.11-2.91-.93-.48-1.97-.81-3.02-.79-2.8.05-5.12,2.79-5.12,5.59,0,1.7.24,3.01-.98,4.36-1.1,1.22-2.72,1.92-4.34,2.02-4.79.3-6.36-4.26-5.14-6.97,4.93-10.95,27.93-53.68,27.93-53.68,1.55-2.93.43-6.57-2.5-8.12-2.93-1.55-6.57-.43-8.12,2.5,0,0-13.09,25.43-13.09,25.43-2.44-4.55-9.79-18.21-12.54-22.24-2.86-4.56-7.93-7.59-13.7-7.59-8.93,0-16.16,7.24-16.16,16.16,0,2.26.47,4.42,1.31,6.37.2.53.42,1.05.67,1.55,1.37,2.78,4.74,9.5,4.74,9.5,1.13,2.16,2.14,4.01,2.73,5.07l-16.88,31.71c-.41.82-.65,1.74-.65,2.72Zm38.22-18.84c-1.27-2.26-7.13-13.35-11.71-22.08-2.75-5.24-5.03-9.63-5.57-10.73-.24-.5-1.99-3.57-1.99-4.92,0-2.96,2.4-5.35,5.35-5.35.59,0,1.16.1,1.69.27,1.4.47,2.54,1.5,3.16,2.82.16.17,3.57,6.31,7.11,12.72,3.76,6.79,7.66,13.88,7.97,14.42,0,0,0,0,0,0l-6.01,12.84Z"/>
        <path class="cls-10" d="m422.37,635.11c0,.05,0,.1,0,.16.08,3.26,2.75,5.88,6.03,5.88,1.17,0,2.25-.34,3.17-.91.69-.43,1.29-1,1.76-1.66l13.48-25.17c1.51,2.87,10.82,21.33,12.29,23.36,1.87,2.59,5.22,5.2,8.36,5.74,9.81,1.71,21.08-2.05,23.42-12.76.39-1.78.33-3.72-.53-5.32-.68-1.27-1.83-2.25-3.11-2.91-.93-.48-1.97-.81-3.02-.79-2.8.05-5.12,2.79-5.12,5.59,0,1.7.24,3.01-.98,4.36-1.1,1.22-2.72,1.92-4.34,2.02-4.79.3-6.36-4.26-5.14-6.97,4.93-10.95,27.93-53.68,27.93-53.68,1.55-2.93.43-6.57-2.5-8.12-2.93-1.55-6.57-.43-8.12,2.5,0,0-13.09,25.43-13.09,25.43-2.44-4.55-9.79-18.21-12.54-22.24-2.86-4.56-7.93-7.59-13.7-7.59-8.93,0-16.16,7.24-16.16,16.16,0,2.26.47,4.42,1.31,6.37.2.53.42,1.05.67,1.55,1.37,2.78,4.74,9.5,4.74,9.5,1.13,2.16,2.14,4.01,2.73,5.07l-16.88,31.71c-.41.82-.65,1.74-.65,2.72Zm38.22-18.84c-1.27-2.26-7.13-13.35-11.71-22.08-2.75-5.24-5.03-9.63-5.57-10.73-.24-.5-1.99-3.57-1.99-4.92,0-2.96,2.4-5.35,5.35-5.35.59,0,1.16.1,1.69.27,1.4.47,2.54,1.5,3.16,2.82.16.17,3.57,6.31,7.11,12.72,3.76,6.79,7.66,13.88,7.97,14.42,0,0,0,0,0,0l-6.01,12.84Z"/>
        <path class="cls-10" d="m554.36,635.11c0,.05,0,.1,0,.16.08,3.26,2.75,5.88,6.03,5.88,1.17,0,2.25-.34,3.17-.91.69-.43,1.29-1,1.76-1.66l13.48-25.17c1.51,2.87,10.82,21.33,12.29,23.36,1.87,2.59,5.22,5.2,8.36,5.74,9.81,1.71,21.08-2.05,23.42-12.76.39-1.78.33-3.72-.53-5.32-.68-1.27-1.83-2.25-3.11-2.91-.93-.48-1.97-.81-3.02-.79-2.8.05-5.12,2.79-5.12,5.59,0,1.7.24,3.01-.98,4.36-1.1,1.22-2.72,1.92-4.34,2.02-4.79.3-6.36-4.26-5.14-6.97,4.93-10.95,27.93-53.68,27.93-53.68,1.55-2.93.43-6.57-2.5-8.12-2.93-1.55-6.57-.43-8.12,2.5,0,0-13.09,25.43-13.09,25.43-2.44-4.55-9.79-18.21-12.54-22.24-2.86-4.56-7.93-7.59-13.7-7.59-8.93,0-16.16,7.24-16.16,16.16,0,2.26.47,4.42,1.31,6.37.2.53.42,1.05.67,1.55,1.37,2.78,4.74,9.5,4.74,9.5,1.13,2.16,2.14,4.01,2.73,5.07l-16.88,31.71c-.41.82-.65,1.74-.65,2.72Zm38.22-18.84c-1.27-2.26-7.13-13.35-11.71-22.08-2.75-5.24-5.03-9.63-5.57-10.73-.24-.5-1.99-3.57-1.99-4.92,0-2.96,2.4-5.35,5.35-5.35.59,0,1.16.1,1.69.27,1.4.47,2.54,1.5,3.16,2.82.16.17,3.57,6.31,7.11,12.72,3.76,6.79,7.66,13.88,7.97,14.42,0,0,0,0,0,0l-6.01,12.84Z"/>
        <path class="cls-10" d="m686.52,635.11c0,.05,0,.1,0,.16.08,3.26,2.75,5.88,6.03,5.88,1.17,0,2.25-.34,3.17-.91.69-.43,1.29-1,1.76-1.66l13.48-25.17c1.51,2.87,10.82,21.33,12.29,23.36,1.87,2.59,5.22,5.2,8.36,5.74,9.81,1.71,21.08-2.05,23.42-12.76.39-1.78.33-3.72-.53-5.32-.68-1.27-1.83-2.25-3.11-2.91-.93-.48-1.97-.81-3.02-.79-2.8.05-5.12,2.79-5.12,5.59,0,1.7.24,3.01-.98,4.36-1.1,1.22-2.72,1.92-4.34,2.02-4.79.3-6.36-4.26-5.14-6.97,4.93-10.95,27.93-53.68,27.93-53.68,1.55-2.93.43-6.57-2.5-8.12-2.93-1.55-6.57-.43-8.12,2.5,0,0-13.09,25.43-13.09,25.43-2.44-4.55-9.79-18.21-12.54-22.24-2.86-4.56-7.93-7.59-13.7-7.59-8.93,0-16.16,7.24-16.16,16.16,0,2.26.47,4.42,1.31,6.37.2.53.42,1.05.67,1.55,1.37,2.78,4.74,9.5,4.74,9.5,1.13,2.16,2.14,4.01,2.73,5.07l-16.88,31.71c-.41.82-.65,1.74-.65,2.72Zm38.22-18.84c-1.27-2.26-7.13-13.35-11.71-22.08-2.75-5.24-5.03-9.63-5.57-10.73-.24-.5-1.99-3.57-1.99-4.92,0-2.96,2.4-5.35,5.35-5.35.59,0,1.16.1,1.69.27,1.4.47,2.54,1.5,3.16,2.82.16.17,3.57,6.31,7.11,12.72,3.76,6.79,7.66,13.88,7.97,14.42,0,0,0,0,0,0l-6.01,12.84Z"/>
        <path class="cls-10" d="m818.84,635.11c0,.05,0,.1,0,.16.08,3.26,2.75,5.88,6.03,5.88,1.17,0,2.25-.34,3.17-.91.69-.43,1.29-1,1.76-1.66l13.48-25.17c1.51,2.87,10.82,21.33,12.29,23.36,1.87,2.59,5.22,5.2,8.36,5.74,9.81,1.71,21.08-2.05,23.42-12.76.39-1.78.33-3.72-.53-5.32-.68-1.27-1.83-2.25-3.11-2.91-.93-.48-1.97-.81-3.02-.79-2.8.05-5.12,2.79-5.12,5.59,0,1.7.24,3.01-.98,4.36-1.1,1.22-2.72,1.92-4.34,2.02-4.79.3-6.36-4.26-5.14-6.97,4.93-10.95,27.93-53.68,27.93-53.68,1.55-2.93.43-6.57-2.5-8.12-2.93-1.55-6.57-.43-8.12,2.5,0,0-13.09,25.43-13.09,25.43-2.44-4.55-9.79-18.21-12.54-22.24-2.86-4.56-7.93-7.59-13.7-7.59-8.93,0-16.16,7.24-16.16,16.16,0,2.26.47,4.42,1.31,6.37.2.53.42,1.05.67,1.55,1.37,2.78,4.74,9.5,4.74,9.5,1.13,2.16,2.14,4.01,2.73,5.07l-16.88,31.71c-.41.82-.65,1.74-.65,2.72Zm38.22-18.84c-1.27-2.26-7.13-13.35-11.71-22.08-2.75-5.24-5.03-9.63-5.57-10.73-.24-.5-1.99-3.57-1.99-4.92,0-2.96,2.4-5.35,5.35-5.35.59,0,1.16.1,1.69.27,1.4.47,2.54,1.5,3.16,2.82.16.17,3.57,6.31,7.11,12.72,3.76,6.79,7.66,13.88,7.97,14.42,0,0,0,0,0,0l-6.01,12.84Z"/>
      </g>
    </g>
  </g>
</svg>