<?xml version="1.0" encoding="UTF-8"?>
<svg id="_레이어_1" data-name="레이어 1" xmlns="http://www.w3.org/2000/svg" viewBox="0 0 130 35">
  <defs>
    <style>
      .cls-1 {
        fill: #fff;
      }
    </style>
  </defs>
  <g>
    <path class="cls-1" d="m8.8,34.06c-.3,0-.59-.03-.86-.08-.27-.06-.52-.15-.75-.27-.23-.13-.43-.29-.59-.5s-.29-.47-.38-.77c-.09-.31-.14-.67-.14-1.09s.04-.79.13-1.09c.09-.31.22-.56.38-.77s.36-.38.59-.5c.23-.13.47-.21.74-.27.27-.05.56-.08.86-.08s.6.03.87.08c.27.05.52.14.75.26.23.12.42.29.59.49.17.21.3.46.39.77.09.31.14.67.14,1.09s-.05.8-.14,1.12c-.09.31-.22.57-.39.78-.17.21-.36.37-.59.5-.22.12-.47.21-.75.26-.27.05-.56.08-.86.08Zm0-.54c.21,0,.41-.02.61-.06.2-.04.38-.11.55-.21s.32-.23.45-.39c.13-.16.23-.37.3-.62.07-.25.11-.55.11-.9s-.04-.65-.11-.91c-.07-.25-.17-.46-.3-.62-.13-.16-.28-.29-.45-.39-.17-.1-.35-.16-.55-.2-.2-.04-.4-.06-.6-.06s-.41.02-.6.06c-.19.04-.37.1-.54.2-.17.1-.32.23-.45.39-.13.17-.23.37-.3.63-.07.25-.11.55-.11.91s.04.64.11.89c.07.25.17.45.3.62.13.17.28.3.45.4.17.1.35.17.55.21.19.04.39.06.59.06Z"/>
    <path class="cls-1" d="m12.89,32.24v-3.54h.69v3.52c0,.21.03.38.09.53s.15.27.26.37c.11.1.24.17.39.23.15.06.3.09.47.12.17.02.33.03.5.03.18,0,.35-.01.51-.03.16-.02.32-.06.46-.12.15-.06.27-.13.38-.23.11-.1.2-.22.26-.37s.09-.32.09-.52v-3.52h.69v3.54c0,.28-.04.53-.12.73-.08.21-.19.38-.34.52-.15.14-.32.25-.52.33-.2.08-.42.14-.66.18-.24.04-.49.06-.75.06s-.51-.02-.75-.06c-.24-.04-.46-.1-.66-.18-.2-.08-.38-.19-.52-.33-.15-.14-.26-.31-.34-.52-.08-.21-.12-.45-.12-.73Z"/>
    <path class="cls-1" d="m23.33,29.3h-1.95v4.69h-.69v-4.69h-1.95v-.6h4.59v.6Z"/>
    <path class="cls-1" d="m26.61,34.06c-.23,0-.46,0-.69,0-.23,0-.47-.01-.71-.02-.24-.01-.48-.02-.72-.03v-5.3c.25-.02.49-.03.72-.04.23,0,.45-.02.66-.02.21,0,.43,0,.65,0,.66,0,1.2.1,1.62.29.42.19.73.49.94.89.2.4.3.92.3,1.56s-.11,1.12-.32,1.52c-.21.4-.52.69-.94.89-.41.19-.92.29-1.52.29Zm0-.54c.44,0,.82-.08,1.12-.23.3-.15.53-.38.69-.7.16-.32.23-.73.23-1.23,0-.53-.08-.95-.23-1.27-.15-.32-.38-.56-.69-.7-.31-.15-.71-.22-1.2-.22-.12,0-.25,0-.41,0-.16,0-.31,0-.48.01-.16,0-.31.01-.45.02v4.27c.1,0,.21.01.34.02.12,0,.25.01.38.02.13,0,.26,0,.37.01.12,0,.22,0,.31,0Z"/>
    <path class="cls-1" d="m33.33,34.06c-.3,0-.59-.03-.86-.08-.27-.06-.52-.15-.75-.27-.23-.13-.43-.29-.59-.5s-.29-.47-.38-.77c-.09-.31-.14-.67-.14-1.09s.04-.79.13-1.09c.09-.31.22-.56.38-.77s.36-.38.59-.5c.23-.13.47-.21.74-.27.27-.05.56-.08.86-.08s.6.03.87.08c.27.05.52.14.75.26.23.12.42.29.59.49.17.21.3.46.39.77.09.31.14.67.14,1.09s-.05.8-.14,1.12c-.09.31-.22.57-.39.78-.17.21-.36.37-.59.5-.22.12-.47.21-.75.26-.27.05-.56.08-.86.08Zm0-.54c.21,0,.41-.02.61-.06.2-.04.38-.11.55-.21s.32-.23.45-.39c.13-.16.23-.37.3-.62.07-.25.11-.55.11-.9s-.04-.65-.11-.91c-.07-.25-.17-.46-.3-.62-.13-.16-.28-.29-.45-.39-.17-.1-.35-.16-.55-.2-.2-.04-.4-.06-.6-.06s-.41.02-.6.06c-.19.04-.37.1-.54.2-.17.1-.32.23-.45.39-.13.17-.23.37-.3.63-.07.25-.11.55-.11.91s.04.64.11.89c.07.25.17.45.3.62.13.17.28.3.45.4.17.1.35.17.55.21.19.04.39.06.59.06Z"/>
    <path class="cls-1" d="m40.01,34.06c-.3,0-.59-.03-.86-.08-.27-.06-.52-.15-.75-.27-.23-.13-.43-.29-.59-.5s-.29-.47-.38-.77c-.09-.31-.14-.67-.14-1.09s.04-.79.13-1.09c.09-.31.22-.56.38-.77s.36-.38.59-.5c.23-.13.47-.21.74-.27.27-.05.56-.08.86-.08s.6.03.87.08c.27.05.52.14.75.26.23.12.42.29.59.49.17.21.3.46.39.77.09.31.14.67.14,1.09s-.05.8-.14,1.12c-.09.31-.22.57-.39.78-.17.21-.36.37-.59.5-.22.12-.47.21-.75.26-.27.05-.56.08-.86.08Zm0-.54c.21,0,.41-.02.61-.06.2-.04.38-.11.55-.21s.32-.23.45-.39c.13-.16.23-.37.3-.62.07-.25.11-.55.11-.9s-.04-.65-.11-.91c-.07-.25-.17-.46-.3-.62-.13-.16-.28-.29-.45-.39-.17-.1-.35-.16-.55-.2-.2-.04-.4-.06-.6-.06s-.41.02-.6.06c-.19.04-.37.1-.54.2-.17.1-.32.23-.45.39-.13.17-.23.37-.3.63-.07.25-.11.55-.11.91s.04.64.11.89c.07.25.17.45.3.62.13.17.28.3.45.4.17.1.35.17.55.21.19.04.39.06.59.06Z"/>
    <path class="cls-1" d="m49.08,34.06c-.15,0-.3-.03-.45-.09-.15-.06-.31-.14-.48-.26-.17-.11-.34-.25-.51-.42-.17-.17-.35-.37-.54-.6-.19-.23-.38-.49-.58-.77-.06,0-.13,0-.22,0h-.22c-.18,0-.37,0-.57,0-.2,0-.4,0-.6-.01v2.07h-.71v-5.3c.28-.02.52-.03.74-.03.22,0,.43-.01.63-.02.2,0,.4,0,.59,0,.46,0,.85.03,1.18.08.32.05.58.14.78.26.2.12.34.28.43.48.09.2.14.44.14.73,0,.33-.06.6-.17.81-.11.22-.27.38-.49.51-.21.12-.47.21-.78.27.2.28.39.52.57.72.18.21.35.38.51.51.16.14.3.24.44.31.13.07.26.1.37.1.01,0,.03,0,.05,0,.03,0,.05,0,.06-.01v.64s-.04.01-.07.02c-.03,0-.07,0-.1,0Zm-2.87-2.69c.32,0,.59-.02.81-.06.22-.04.4-.1.54-.18.14-.09.24-.2.3-.34s.09-.32.09-.53c0-.27-.06-.49-.17-.65-.11-.16-.3-.27-.55-.34-.26-.07-.61-.11-1.06-.11h-.34c-.1,0-.19,0-.28,0-.09,0-.19,0-.29.01-.1,0-.22,0-.36.02v2.14c.13,0,.24,0,.35.01.11,0,.22,0,.33,0,.11,0,.21,0,.31,0h.31Z"/>
    <path class="cls-1" d="m55,34.06c-.66,0-1.17-.14-1.54-.42-.36-.28-.55-.65-.55-1.12,0-.36.1-.67.29-.93.19-.26.48-.47.87-.63l.34.35c-.28.13-.49.29-.63.47-.14.18-.21.4-.21.67,0,.23.06.42.18.58s.29.29.52.38.49.14.8.14.59-.05.82-.14c.23-.1.42-.23.58-.41l.35.38c-.15.15-.32.27-.51.37-.19.1-.4.18-.61.23s-.45.08-.69.08Zm2.47-.02l-3.38-2.91c-.13-.13-.24-.26-.32-.39-.09-.13-.15-.26-.19-.4-.04-.14-.06-.28-.06-.42,0-.26.06-.49.18-.68.12-.19.31-.34.57-.45.26-.11.59-.16.99-.16.54,0,.95.1,1.23.3.28.2.41.49.41.88,0,.18-.03.35-.09.5-.06.15-.15.29-.28.41-.13.12-.3.22-.51.31l-.3-.31c.19-.09.33-.19.43-.32.09-.13.14-.29.14-.48,0-.17-.04-.3-.12-.41-.08-.11-.19-.19-.34-.25-.15-.06-.33-.09-.55-.09-.36,0-.63.07-.81.2-.18.13-.27.32-.27.57,0,.11.02.21.06.31.04.1.1.2.17.31.08.1.17.21.29.32l3.52,3.12-.78.08Zm-.29-.9l-.4-.41c.13-.16.23-.33.29-.52.07-.19.1-.4.11-.63,0-.07,0-.13,0-.19,0-.06-.02-.12-.03-.19l.54-.02c.02.07.03.13.04.2.01.07.02.14.02.22,0,.3-.05.58-.15.84-.1.26-.24.49-.41.71Z"/>
    <path class="cls-1" d="m61.93,31.44c0-.65.11-1.19.32-1.6.21-.42.53-.72.94-.92.41-.2.92-.29,1.52-.29.19,0,.36,0,.51.01.15,0,.3.02.44.04.14.02.27.04.41.07.13.03.27.06.41.1l-.14.55c-.18-.05-.36-.08-.52-.11-.17-.03-.34-.05-.51-.06-.17,0-.35-.02-.54-.02-.35,0-.65.04-.92.12-.27.08-.49.21-.66.38-.18.18-.31.41-.4.69-.09.28-.14.63-.14,1.03,0,.37.04.68.13.94.09.26.21.47.39.64.17.16.39.28.64.36.25.08.55.12.89.12.31,0,.62-.02.94-.06.32-.04.62-.1.88-.18l.13.54c-.14.04-.29.08-.44.11-.15.04-.32.06-.49.09-.17.02-.35.04-.54.05-.19.01-.38.02-.59.02-.43,0-.81-.05-1.14-.14-.33-.1-.61-.25-.84-.46-.23-.21-.4-.48-.51-.81-.12-.33-.17-.73-.17-1.21Z"/>
    <path class="cls-1" d="m67.44,33.99l2.19-5.33h.75l2.19,5.33h-.78l-.55-1.37h-2.51l-.55,1.37h-.74Zm1.46-1.92h2.17l-1.09-2.76-1.08,2.76Z"/>
    <path class="cls-1" d="m73.73,33.99v-5.28h.72l2.07,2.75,2.07-2.75h.69v5.28h-.65v-4.3l-1.97,2.56h-.33l-1.95-2.54v4.29h-.65Z"/>
    <path class="cls-1" d="m80.98,33.99v-5.3c.38-.02.7-.03.96-.03s.48-.01.65-.02c.17,0,.32,0,.43,0,.51,0,.93.03,1.26.09.33.06.59.16.77.3.18.14.31.32.39.54s.11.49.11.81c0,.34-.04.62-.12.86-.08.24-.21.43-.4.57-.18.15-.42.25-.71.32-.29.07-.65.1-1.07.1h-.34c-.1,0-.19,0-.28,0-.09,0-.17,0-.26,0s-.19,0-.3,0c-.11,0-.24,0-.38-.02v1.79h-.7Zm.7-4.77v2.44c.14,0,.27,0,.38,0,.11,0,.22,0,.32.01.1,0,.2,0,.31,0h.34c.36,0,.66-.02.89-.07.23-.05.42-.12.55-.22.13-.1.23-.24.28-.4.06-.17.08-.37.08-.61,0-.22-.03-.4-.08-.55-.05-.15-.14-.27-.27-.37s-.31-.17-.54-.21c-.23-.05-.52-.07-.88-.07h-.25c-.08,0-.17,0-.28,0-.1,0-.22,0-.36.02-.14,0-.31.02-.51.03Z"/>
    <path class="cls-1" d="m86.9,33.99v-5.28h.7v5.28h-.7Z"/>
    <path class="cls-1" d="m89.31,33.99v-5.31h.65l3.43,4.3v-4.27h.63v5.29h-.65l-3.42-4.25v4.25h-.64Z"/>
    <path class="cls-1" d="m95.48,31.44c0-.62.1-1.14.31-1.56.21-.42.51-.73.91-.94.4-.21.89-.32,1.47-.32.18,0,.35,0,.52.02.16.01.32.03.48.05.16.02.31.05.45.08.15.03.29.07.44.12l-.14.54c-.29-.08-.57-.14-.86-.18s-.57-.06-.85-.06c-.44,0-.81.08-1.11.25s-.53.41-.69.75c-.15.33-.23.75-.23,1.24,0,.47.07.86.22,1.17.15.31.37.54.65.69s.64.23,1.05.23c.31,0,.59-.02.84-.05.25-.04.48-.09.69-.15v-1.49h-1.55v-.53h2.19v2.39c-.29.12-.62.21-1.01.27-.38.06-.8.09-1.24.09-.56,0-1.03-.1-1.4-.29-.38-.19-.66-.49-.86-.88-.19-.39-.29-.87-.29-1.45Z"/>
    <path class="cls-1" d="m104.43,31.44c0-.62.1-1.14.31-1.56.21-.42.51-.73.91-.94.4-.21.89-.32,1.47-.32.18,0,.35,0,.52.02.16.01.32.03.48.05.16.02.31.05.45.08.15.03.29.07.44.12l-.14.54c-.29-.08-.57-.14-.86-.18s-.57-.06-.85-.06c-.44,0-.81.08-1.11.25s-.53.41-.69.75c-.15.33-.23.75-.23,1.24,0,.47.07.86.22,1.17.15.31.37.54.65.69s.64.23,1.05.23c.31,0,.59-.02.84-.05.25-.04.48-.09.69-.15v-1.49h-1.55v-.53h2.19v2.39c-.29.12-.62.21-1.01.27-.38.06-.8.09-1.24.09-.56,0-1.03-.1-1.4-.29-.38-.19-.66-.49-.86-.88-.19-.39-.29-.87-.29-1.45Z"/>
    <path class="cls-1" d="m110.79,33.99v-5.28h3.98v.6h-3.27v1.61h3.09v.59h-3.09v1.87h3.43v.6h-4.14Z"/>
    <path class="cls-1" d="m115.72,33.99l2.19-5.33h.75l2.19,5.33h-.78l-.55-1.37h-2.51l-.55,1.37h-.74Zm1.46-1.92h2.17l-1.09-2.76-1.08,2.76Z"/>
    <path class="cls-1" d="m126.89,34.06c-.15,0-.3-.03-.45-.09-.15-.06-.31-.14-.48-.26-.17-.11-.34-.25-.51-.42-.17-.17-.35-.37-.54-.6-.19-.23-.38-.49-.58-.77-.06,0-.13,0-.22,0h-.22c-.18,0-.37,0-.57,0-.2,0-.4,0-.6-.01v2.07h-.71v-5.3c.28-.02.52-.03.74-.03.22,0,.43-.01.63-.02.2,0,.4,0,.59,0,.46,0,.85.03,1.18.08.32.05.58.14.78.26.2.12.34.28.43.48.09.2.14.44.14.73,0,.33-.06.6-.17.81-.11.22-.27.38-.49.51-.21.12-.47.21-.78.27.2.28.39.52.57.72.18.21.35.38.51.51.16.14.3.24.44.31.13.07.26.1.37.1.01,0,.03,0,.05,0,.03,0,.05,0,.06-.01v.64s-.04.01-.07.02c-.03,0-.07,0-.1,0Zm-2.87-2.69c.32,0,.59-.02.81-.06.22-.04.4-.1.54-.18.14-.09.24-.2.3-.34s.09-.32.09-.53c0-.27-.06-.49-.17-.65-.11-.16-.3-.27-.55-.34-.26-.07-.61-.11-1.06-.11h-.34c-.1,0-.19,0-.28,0-.09,0-.19,0-.29.01-.1,0-.22,0-.36.02v2.14c.13,0,.24,0,.35.01.11,0,.22,0,.33,0,.11,0,.21,0,.31,0h.31Z"/>
  </g>
  <g>
    <path class="cls-1" d="m8.2,7.3c0-4.9-2.4-2.88-2.4-4.84,0-1.74,2.47-1.96,3.73-1.96h10.02c3.57,0,7.72,1.58,7.72,5.79,0,1.9-.92,3.73-2.69,4.59-.28.16-.51.25-.51.63,0,.47.41.6.79.76,3.39,2.02,3.59,5.34,3.64,5.69.41,2.94,2.44,1.17,2.44,3.1,0,1.2-1.42,2.28-5,2.28-5.06,0-4.93-2.73-6.7-6.89-.35-1.45-.89-2.88-2.62-2.88-.7,0-.95.09-.95,2.09,0,.92.06,2.18.22,3.07.25,1.45,1.87,1.01,1.87,2.53,0,1.14-.79,1.99-5.91,1.99-1.52,0-6.01,0-6.01-2.31,0-1.64,2.37-.51,2.37-4.62V7.3Zm7.34,1.39c-.06.82-.22,1.52.82,1.52,2.06,0,2.72-1.14,2.72-3.1,0-1.55-.38-3.13-2.21-3.13-1.17,0-1.14.73-1.2,1.71l-.13,3Z"/>
    <path class="cls-1" d="m47.08,15.33c0,5.57,1.9,2.53,1.9,4.24,0,1.8-2.47,3.76-4.78,3.76-2.5,0-2.56-1.61-3.35-1.61-.38,0-.79.41-1.49.79-.7.41-1.64.82-3.1.82-2.62,0-5.25-1.39-5.25-4.52,0-2.25,2.15-5.03,7.72-5.03.98,0,1.42.06,1.42-1.08,0-1.04-.03-3.23-1.49-3.23-1.9,0-2.09,3.42-4.9,3.42-1.01,0-1.77-.73-1.77-1.74,0-2.69,5.34-4.43,8.35-4.43,1.8,0,6.74.7,6.74,5.44v3.16Zm-9.49,2.78c0,.82.44,1.71,1.36,1.71,1.2,0,1.3-1.3,1.3-2.25,0-.7.03-1.49-.85-1.49-1.08,0-1.8,1.01-1.8,2.02Z"/>
    <path class="cls-1" d="m50.95,14.07c0-2.02-.41-2.59-.73-2.88-.41-.35-.85-.32-.85-1.14,0-2.34,7.84-3.23,7.91-3.23.79,0,.85.7.85,1.36,0,.38-.13,1.45.54,1.45.32,0,.82-.7,1.71-1.42.89-.7,2.15-1.39,4.02-1.39,3.76,0,3.79,2.81,4.46,2.81.25,0,.82-.7,1.74-1.42.95-.7,2.21-1.39,3.83-1.39,3,0,4.87,1.64,4.87,4.74v6.67c0,1.83,1.17,1.99,1.17,2.91,0,1.99-3.61,2.09-4.84,2.09-1.04,0-4.71-.22-4.71-1.87,0-1.17,1.11-1.14,1.11-2.97v-2.85c0-1.33.16-3.98-1.64-3.98s-1.61,2.15-1.61,3.32v1.96c0,3.89,1.14,3.23,1.14,4.4,0,1.96-3.79,1.99-4.93,1.99-4.78,0-5.03-.89-5-1.77.03-1.68,1.61-.35,1.52-4.11v-1.8c0-1.14.16-3.98-1.64-3.98s-1.61,2.15-1.61,3.32v2.56c0,2.91.85,2.72.85,3.86,0,.82-.73,1.93-5.06,1.93-1.23,0-4.96.03-4.96-1.64,0-1.42,1.9-.66,1.9-4.62v-2.91Z"/>
    <path class="cls-1" d="m89.12,9.17c0,.16-.03.51.22.51.16,0,.66-.51,1.49-.98.82-.51,1.93-.98,3.32-.98,3.35,0,6.2,2.81,6.2,6.99,0,5.41-3.97,8.63-9.41,8.63-3.98,0-5.94-1.47-6.45-1.47s-1,.87-2.04.87c-.44,0-.95-.13-.95-.63s.63-1.52.63-5.63v-8.41c0-1.83-2.37-1.01-2.37-2.81,0-2.12,6.14-3.54,8.76-3.54.85,0,.82.66.79,1.36l-.19,6.1Zm1.61,3.42c-1.39,0-1.55,1.14-1.55,2.21,0,6.13.35,6.08,1.61,6.08,2.09,0,2.43-1.81,2.43-3.43,0-1.49-.41-4.87-2.5-4.87Z"/>
    <path class="cls-1" d="m117.52,15.62c-.35,0-.85-.09-.85.44,0,1.58,2.79,2.91,4.27,2.91,2.37,0,3.54-1.42,4.21-1.42s1.23.98,1.23,1.58c0,2.44-4.46,4.21-7.3,4.21-5.69,0-8.63-4.11-8.63-8.19,0-4.87,4.14-8.41,8.89-8.41,5.38,0,7.75,4.14,7.75,6.51,0,2.09-.95,2.37-1.96,2.37h-7.59Zm3.48-3.98c0-1.14-.7-2.02-1.87-2.02-1.04,0-2.63,1.08-2.63,2.09,0,1.14,1.07.89,1.9.89s2.6.19,2.6-.95Z"/>
    <path class="cls-1" d="m108.92,17.23c0,.57-.03,1.61.13,2.12.35,1.14,1.77.6,1.77,1.93,0,2.12-3.86,1.96-5.22,1.96s-5.85.16-5.85-2.09c0-1.11,1.36-.7,1.74-1.87.41-1.3.41-5.25.41-6.8,0-1.23.06-3.61-.22-5.03-.47-2.34-2.34-1.52-2.34-3.32,0-2.75,8.22-3.42,8.66-3.42,1.07,0,1.33.7,1.33,1.64,0,1.27-.41,4.09-.41,8.73v6.13Z"/>
  </g>
</svg>